<?xml version="1.0" encoding="UTF-8"?>
<svg version="1.1" xmlns="http://www.w3.org/2000/svg" width="2156" height="2156">
<path d="M0 0 C157.74 0 315.48 0 478 0 C478 71.94 478 143.88 478 218 C477.67 218.33 477.34 218.66 477 219 C439.71 219 402.42 219 364 219 C364 331.53 364 444.06 364 560 C368.95 559.01 373.9 558.02 379 557 C382.94412369 556.364251 386.87714689 555.75627966 390.83203125 555.203125 C391.9173111 555.04880508 393.00259094 554.89448517 394.12075806 554.73548889 C397.68368829 554.2329414 401.24779921 553.73982543 404.8125 553.25 C406.06418976 553.07769867 407.31587952 552.90539734 408.60549927 552.72787476 C452.01458426 546.7914062 495.55911153 542.36460834 539.25 539.125 C540.30568743 539.04655539 540.30568743 539.04655539 541.38270187 538.96652603 C546.09308985 538.61757767 550.80411034 538.27871096 555.515625 537.9453125 C556.65796097 537.86336136 557.80029694 537.78141022 558.97724915 537.69697571 C569.98334669 536.93941857 580.96851497 536.50143114 592 536 C592 520.16 592 504.32 592 488 C586.82775757 488.00785522 586.82775757 488.00785522 581.55102539 488.01586914 C570.18753663 488.03240224 558.82404695 488.04352093 547.46054935 488.05181217 C540.56752473 488.05697494 533.67451147 488.06401728 526.78149414 488.07543945 C520.13553835 488.086447 513.48959131 488.09227622 506.84362602 488.09487724 C504.30177054 488.09673201 501.75991574 488.1003536 499.21806526 488.10573006 C495.67148538 488.11293667 492.1249551 488.1139911 488.57836914 488.11352539 C487.51598022 488.11712067 486.45359131 488.12071594 485.35900879 488.12442017 C484.39842056 488.1230455 483.43783234 488.12167084 482.44813538 488.12025452 C481.18850526 488.12163721 481.18850526 488.12163721 479.90342808 488.12304783 C478 488 478 488 477 487 C477 415.39 477 343.78 477 270 C634.74 270 792.48 270 955 270 C955 341.61 955 413.22 955 487 C954 488 954 488 952.09657192 488.12304783 C951.25681851 488.12212604 950.41706511 488.12120424 949.55186462 488.12025452 C948.11098228 488.12231651 948.11098228 488.12231651 946.64099121 488.12442017 C945.57860229 488.12082489 944.51621338 488.11722961 943.42163086 488.11352539 C941.75355125 488.11374443 941.75355125 488.11374443 940.05177307 488.1139679 C936.35611049 488.11326821 932.66049759 488.1054732 928.96484375 488.09765625 C926.41036507 488.09579227 923.85588603 488.09436827 921.30140686 488.09336853 C915.2523829 488.08993344 909.20338045 488.08204264 903.15436512 488.07201904 C896.26934846 488.06085683 889.38433096 488.05534718 882.49930751 488.05032361 C868.33285987 488.03986 854.16643494 488.02151495 840 488 C840 503.84 840 519.68 840 536 C844.393125 536.103125 848.78625 536.20625 853.3125 536.3125 C890.75304578 537.36602592 928.15677669 539.5409501 965.51719666 542.16514587 C967.52798075 542.30571749 969.53894976 542.44363648 971.54992676 542.5814209 C1003.75469205 544.8050857 1035.84861165 548.03217954 1068 551 C1068 441.44 1068 331.88 1068 219 C1030.71 219 993.42 219 955 219 C953.16747031 217.16747031 953.87729648 214.60402976 953.87091869 212.16517967 C953.87383153 211.31986578 953.87674437 210.4745519 953.87974548 209.60362244 C953.87889106 208.7125536 953.87803663 207.82148476 953.87715632 206.90341383 C953.87549878 203.89384123 953.88102735 200.88432339 953.88647461 197.87475586 C953.88675645 195.72685243 953.88659881 193.5789489 953.8860321 191.43104553 C953.885744 185.58004331 953.8916428 179.7290614 953.89860606 173.87806392 C953.90483747 167.77080687 953.90544323 161.66354941 953.90663147 155.55628967 C953.90974542 143.98238035 953.91795965 132.40848042 953.92798096 120.83457524 C953.93914014 107.66188977 953.94465205 94.48920386 953.94967639 81.31651485 C953.96014222 54.21100468 953.97774288 27.10550287 954 0 C999.46159273 -0.01710977 1044.92318581 -0.03303149 1090.38478088 -0.04234314 C1091.05708763 -0.0424812 1091.72939438 -0.04261925 1092.42207407 -0.04276149 C1107.03134187 -0.04575405 1121.64060971 -0.04852428 1136.2498776 -0.05106533 C1143.41373677 -0.05231272 1150.57759592 -0.05360927 1157.74145508 -0.05493164 C1158.45436428 -0.0550624 1159.16727349 -0.05519316 1159.901786 -0.05532788 C1183.03016063 -0.05959305 1206.15853282 -0.06710721 1229.28690597 -0.07629722 C1253.04433878 -0.08572009 1276.80177025 -0.09188318 1300.5592049 -0.09391499 C1315.87567594 -0.09523189 1331.19214011 -0.09944446 1346.50860883 -0.10791647 C1356.53556968 -0.11318186 1366.5625269 -0.11480477 1376.58948904 -0.11350138 C1382.38390516 -0.11285767 1388.17830903 -0.11387916 1393.97272301 -0.11920547 C1399.2680754 -0.12403781 1404.56340718 -0.12433975 1409.85876048 -0.12089889 C1411.78339584 -0.12047304 1413.70803244 -0.12177016 1415.63266533 -0.12488318 C1418.23095825 -0.12884442 1420.82917488 -0.12676512 1423.42746639 -0.12304783 C1424.57143504 -0.12698835 1424.57143504 -0.12698835 1425.73851416 -0.13100848 C1430.8858542 -0.1141458 1430.8858542 -0.1141458 1432 1 C1432.10011946 3.79194541 1432.13439282 6.55922648 1432.12698364 9.35168457 C1432.12932363 10.68110415 1432.12932363 10.68110415 1432.13171089 12.0373807 C1432.13572485 15.03079636 1432.13252972 18.02416201 1432.12939453 21.01757812 C1432.1307484 23.15400726 1432.13252824 25.29043617 1432.13470459 27.42686462 C1432.13928068 33.24694066 1432.13748864 39.06699906 1432.1343255 44.88707542 C1432.13180281 50.9631696 1432.13413919 57.03926221 1432.13571167 63.11535645 C1432.13753363 73.32121046 1432.13512636 83.52705724 1432.13037109 93.73291016 C1432.12492842 105.55093162 1432.12669106 117.36893584 1432.1321975 129.18695688 C1432.13672788 139.31344962 1432.13737955 149.43993715 1432.13475883 159.56643057 C1432.13319564 165.62339657 1432.13300343 171.68035446 1432.13629532 177.73731995 C1432.13917294 183.43024571 1432.13720035 189.12314913 1432.13140106 194.81607246 C1432.13007288 196.91197739 1432.13046856 199.00788418 1432.13266373 201.10378838 C1432.13537295 203.95198991 1432.13199691 206.80011861 1432.12698364 209.64831543 C1432.13032973 210.90942666 1432.13032973 210.90942666 1432.13374341 212.19601488 C1432.11414983 217.88585017 1432.11414983 217.88585017 1431 219 C1393.71 219 1356.42 219 1318 219 C1318 341.76 1318 464.52 1318 591 C1324.6 592.32 1331.2 593.64 1338 595 C1341.83553533 595.87151358 1345.65075917 596.75537349 1349.46484375 597.70703125 C1350.44541748 597.94858948 1351.42599121 598.19014771 1352.4362793 598.43902588 C1355.60513687 599.22322367 1358.7716368 600.01630363 1361.9375 600.8125 C1363.61164474 601.23292068 1363.61164474 601.23292068 1365.3196106 601.66183472 C1447.57867069 622.38395866 1528.8483715 648.49423325 1606 684 C1606.63899231 684.29328186 1607.27798462 684.58656372 1607.93634033 684.88873291 C1637.28313093 698.36298626 1666.09124911 712.7289858 1694 729 C1694.73557129 729.42313477 1695.47114258 729.84626953 1696.22900391 730.28222656 C1698.13972863 731.38371906 1700.04057732 732.49995066 1701.9375 733.625 C1702.93652344 734.21539063 1703.93554688 734.80578125 1704.96484375 735.4140625 C1705.63644531 735.93742188 1706.30804687 736.46078125 1707 737 C1707 740.68051427 1706.18590562 741.46359985 1704 744.375 C1703.27039062 745.35210938 1702.54078125 746.32921875 1701.7890625 747.3359375 C1700.86068593 748.55828843 1699.9308468 749.77952915 1699 751 C1698.43120117 751.74668945 1697.86240234 752.49337891 1697.27636719 753.26269531 C1694.60972342 756.76136521 1691.94166861 760.25894149 1689.26953125 763.75341797 C1684.78561666 769.62565326 1680.36521241 775.53910597 1676 781.5 C1670.41344911 789.12745308 1664.70723543 796.6564472 1658.9609375 804.1640625 C1654.57935674 809.89902727 1650.26457042 815.67759563 1646 821.5 C1640.4133758 829.12740017 1634.70723662 836.65644565 1628.9609375 844.1640625 C1624.57935674 849.89902727 1620.26457042 855.67759563 1616 861.5 C1610.4133758 869.12740017 1604.70723662 876.65644565 1598.9609375 884.1640625 C1594.00048826 890.65669684 1589.13699111 897.21441124 1584.31103516 903.80737305 C1579.07939436 910.93606268 1573.72033695 917.96483882 1568.328125 924.97265625 C1565.06335006 929.22875961 1561.90074536 933.4869114 1559 938 C1554.86293364 937.38722434 1551.7307868 935.99936229 1548.046875 934.04296875 C1546.30229004 933.12535767 1546.30229004 933.12535767 1544.52246094 932.18920898 C1543.90850464 931.86314667 1543.29454834 931.53708435 1542.6619873 931.20114136 C1539.38801709 929.46544384 1536.10004801 927.75667719 1532.8125 926.046875 C1532.14716248 925.70055527 1531.48182495 925.35423553 1530.79632568 924.99742126 C1479.80551367 898.51090489 1425.00417645 878.54784329 1370 862.1875 C1369.32525635 861.98637604 1368.6505127 861.78525208 1367.95532227 861.57803345 C1351.71912526 856.76324904 1335.33596125 852.45526216 1319 848 C1318.67 983.3 1318.34 1118.6 1318 1258 C1345.90137863 1250.32299361 1345.90137863 1250.32299361 1373.6875 1242.25 C1374.49054565 1242.00876404 1375.29359131 1241.76752808 1376.12097168 1241.51898193 C1429.69462638 1225.3681959 1481.94201951 1205.31028016 1531.890625 1180.02734375 C1533.28063721 1179.32484497 1533.28063721 1179.32484497 1534.69873047 1178.6081543 C1536.43544716 1177.72680464 1538.1690585 1176.83929863 1539.89892578 1175.94458008 C1540.66188965 1175.5555249 1541.42485352 1175.16646973 1542.2109375 1174.765625 C1542.87399902 1174.42305664 1543.53706055 1174.08048828 1544.22021484 1173.72753906 C1546 1173 1546 1173 1549 1173 C1550.2800293 1174.3190918 1550.2800293 1174.3190918 1551.57421875 1176.19921875 C1552.3161145 1177.25544434 1552.3161145 1177.25544434 1553.07299805 1178.33300781 C1553.60578369 1179.10999023 1554.13856934 1179.88697266 1554.6875 1180.6875 C1555.85150505 1182.34432104 1557.01829291 1183.99918964 1558.1875 1185.65234375 C1558.80496094 1186.52616699 1559.42242188 1187.39999023 1560.05859375 1188.30029297 C1563.33653414 1192.85857578 1566.76422983 1197.30043675 1570.1875 1201.75 C1574.9533495 1207.96211551 1579.63427749 1214.20694438 1584.13354492 1220.61425781 C1587.95232965 1226.01385652 1591.97675314 1231.25182272 1596 1236.5 C1600.84816864 1242.82562047 1605.62305756 1249.17875473 1610.21191406 1255.69458008 C1613.79632245 1260.76410564 1617.51585845 1265.72756122 1621.25 1270.6875 C1626.21992576 1277.28904287 1631.16555655 1283.90660094 1636.0625 1290.5625 C1636.63726074 1291.34343018 1637.21202148 1292.12436035 1637.80419922 1292.92895508 C1640.68204781 1296.84164925 1643.55532886 1300.75765875 1646.42578125 1304.67578125 C1652.61926116 1313.11880052 1658.88391505 1321.49864997 1665.25 1329.8125 C1670.42933988 1336.57870146 1675.49531228 1343.39660714 1680.40625 1350.359375 C1685.8120364 1357.99570433 1691.43419227 1365.4800075 1697 1373 C1694.51424594 1375.79188657 1691.78361971 1377.39448535 1688.5234375 1379.1953125 C1686.83093872 1380.13225952 1686.83093872 1380.13225952 1685.10424805 1381.08813477 C1683.86149512 1381.76769324 1682.61840188 1382.44662967 1681.375 1383.125 C1680.73841461 1383.47392303 1680.10182922 1383.82284607 1679.44595337 1384.18234253 C1615.91335938 1418.98222567 1549.56868547 1446.74893407 1481 1470 C1480.28982727 1470.24151794 1479.57965454 1470.48303589 1478.84796143 1470.73187256 C1426.17431842 1488.62416967 1372.18966467 1502.54233135 1318 1515 C1317.99668985 1515.71356187 1317.99337971 1516.42712374 1317.98996925 1517.16230869 C1317.90805804 1534.68148086 1317.81575684 1552.20056915 1317.71247292 1569.71962833 C1317.66276154 1578.19238115 1317.61632154 1586.66512624 1317.578125 1595.13793945 C1317.54474885 1602.53951171 1317.50468331 1609.94101542 1317.45720994 1617.34251112 C1317.43238748 1621.24638822 1317.41048776 1625.15022255 1317.39665604 1629.05415535 C1317.30253239 1654.64623057 1316.63274252 1680.27711003 1313.3125 1705.6875 C1313.14588867 1706.97962402 1312.97927734 1708.27174805 1312.80761719 1709.60302734 C1303.97048114 1775.8770709 1282.22982384 1841.54032529 1246 1898 C1245.51998535 1898.75104004 1245.0399707 1899.50208008 1244.54541016 1900.27587891 C1230.99369643 1921.3427572 1215.96531739 1941.66283853 1198.828125 1959.9609375 C1196.95534231 1961.86924134 1196.95534231 1961.86924134 1196 1964 C1195.34 1964 1194.68 1964 1194 1964 C1193.77884521 1964.54567627 1193.55769043 1965.09135254 1193.32983398 1965.65356445 C1191.57831333 1968.7440482 1189.2239146 1971.06188164 1186.72265625 1973.54296875 C1186.19667343 1974.07086502 1185.67069061 1974.59876129 1185.12876892 1975.14265442 C1184.01237687 1976.26040582 1182.89346166 1977.37564203 1181.7722168 1978.48852539 C1180.09260969 1980.15757949 1178.42374589 1981.83682173 1176.75585938 1983.51757812 C1170.89630043 1989.3839364 1164.94927344 1994.89557954 1158.42919922 2000.0300293 C1155.8543018 2002.11815465 1153.4606817 2004.3372675 1151.0625 2006.625 C1142.93021033 2014.10484236 1133.9076494 2020.48506761 1125 2027 C1124.0104834 2027.72799805 1124.0104834 2027.72799805 1123.00097656 2028.47070312 C1055.54421319 2078.01439412 975.37353919 2108.76714544 820.1875 2133.75 C819.07122726 2133.83888489 819.07122726 2133.83888489 817.93240356 2133.92956543 C795.29858417 2135.69395113 772.66810681 2136.16131292 749.97265625 2136.16796875 C747.99819521 2136.17037684 746.02373417 2136.17278789 744.04927343 2136.17542917 C737.85389061 2136.18348454 731.65852223 2136.18602206 725.46313477 2136.18530273 C719.89311827 2136.18477253 714.32317238 2136.19178297 708.75317383 2136.20581055 C638.24671773 2136.37924798 568.68281848 2133.34709181 500 2116 C498.83001465 2115.70544922 497.6600293 2115.41089844 496.45458984 2115.10742188 C458.35096918 2105.36451072 421.49138481 2091.92316031 386 2075 C384.54110352 2074.30849854 384.54110352 2074.30849854 383.05273438 2073.60302734 C366.44798343 2065.68354178 350.66763297 2056.60855008 335 2047 C334.25508301 2046.54496094 333.51016602 2046.08992188 332.74267578 2045.62109375 C324.00246468 2040.25068267 315.71979038 2034.28786987 307.4453125 2028.234375 C304.5658285 2026.12902678 301.66834135 2024.05560347 298.7421875 2022.015625 C298.08734375 2021.55728271 297.4325 2021.09894043 296.7578125 2020.62670898 C295.52965823 2019.76945348 294.29802667 2018.91715203 293.0625 2018.07055664 C291.67261239 2017.09609746 290.33027624 2016.05438294 289 2015 C289 2014.34 289 2013.68 289 2013 C288.42765625 2012.731875 287.8553125 2012.46375 287.265625 2012.1875 C284.92115366 2010.95867364 282.87595062 2009.57477824 280.75 2008 C279.69039062 2007.2265625 279.69039062 2007.2265625 278.609375 2006.4375 C278.07828125 2005.963125 277.5471875 2005.48875 277 2005 C277 2004.34 277 2003.68 277 2003 C276.46246094 2002.78085938 275.92492187 2002.56171875 275.37109375 2002.3359375 C272.18701332 2000.54194161 269.69608092 1998.1237784 267.0625 1995.625 C266.03400426 1994.65730841 265.00407291 1993.69114021 263.97265625 1992.7265625 C263.47781738 1992.26282227 262.98297852 1991.79908203 262.47314453 1991.32128906 C261.07982593 1990.07159727 259.60161465 1988.9184808 258.12109375 1987.7734375 C257.07115234 1986.89558594 257.07115234 1986.89558594 256 1986 C256 1985.34 256 1984.68 256 1984 C255.0409375 1983.5978125 255.0409375 1983.5978125 254.0625 1983.1875 C252 1982 252 1982 251 1979 C250.34 1979 249.68 1979 249 1979 C249 1978.34 249 1977.68 249 1977 C248.01 1976.67 247.02 1976.34 246 1976 C246 1975.34 246 1974.68 246 1974 C245.01 1973.67 244.02 1973.34 243 1973 C241.59765625 1971.609375 241.59765625 1971.609375 240.0625 1969.75 C237.32868437 1966.51807389 234.52059691 1963.3866766 231.62817383 1960.29785156 C226.11840626 1954.41091451 220.92304642 1948.39217687 216 1942 C215.24460937 1941.03964844 214.48921875 1940.07929687 213.7109375 1939.08984375 C197.66632248 1918.53745593 183.58958095 1896.82064867 171 1874 C170.50886719 1873.11634766 170.01773437 1872.23269531 169.51171875 1871.32226562 C130.62529303 1800.88550769 113.70235858 1719.29119585 113.88647461 1639.29785156 C113.88675777 1637.53137717 113.88659625 1635.76490267 113.8860321 1633.99842834 C113.88574915 1629.27454606 113.89156354 1624.55068998 113.89860606 1619.8268137 C113.90492429 1614.86344605 113.90545002 1609.90007759 113.90663147 1604.93670654 C113.9097201 1595.56984356 113.91789969 1586.20299246 113.92798096 1576.83613467 C113.93921941 1566.15872934 113.94467189 1555.48132339 113.94967639 1544.80391359 C113.96008481 1522.86926913 113.97763567 1500.93463532 114 1479 C113.39322072 1478.8698947 112.78644144 1478.73978939 112.16127491 1478.6057415 C111.35933547 1478.43121515 110.55739603 1478.2566888 109.7311554 1478.07687378 C108.93875112 1477.90551847 108.14634684 1477.73416317 107.32993031 1477.55761528 C104.0005119 1476.76079549 100.86421121 1475.60306713 97.66796875 1474.3828125 C97.00232407 1474.12990448 96.33667938 1473.87699646 95.65086365 1473.61642456 C93.49345422 1472.79342514 91.34023658 1471.96013953 89.1875 1471.125 C88.44079041 1470.8372168 87.69408081 1470.54943359 86.92474365 1470.25292969 C47.61084243 1455.08871273 9.22392618 1437.50122544 -27.328125 1416.51953125 C-30.54628217 1414.68932198 -33.79218709 1412.91394533 -37.04296875 1411.14257812 C-46.55489592 1405.94889754 -55.71127817 1400.27261317 -64.81933594 1394.40332031 C-66.82517042 1393.11250788 -68.83677224 1391.83145935 -70.8515625 1390.5546875 C-93.81797782 1375.96871369 -115.77528799 1359.64582412 -136.50390625 1342.02734375 C-137.09558594 1341.52452881 -137.68726563 1341.02171387 -138.296875 1340.50366211 C-139.453739 1339.51844013 -140.60875967 1338.53104863 -141.76171875 1337.54125977 C-144.69804099 1335.00541525 -144.69804099 1335.00541525 -148 1333 C-148 1332.34 -148 1331.68 -148 1331 C-148.53625 1330.773125 -149.0725 1330.54625 -149.625 1330.3125 C-152.82460161 1328.54429911 -155.29037223 1326.46329797 -158 1324 C-158 1323.34 -158 1322.68 -158 1322 C-158.53463867 1321.78988281 -159.06927734 1321.57976562 -159.62011719 1321.36328125 C-162.9245415 1319.47038985 -165.41594503 1316.86934474 -168.078125 1314.1875 C-168.64956238 1313.61797607 -169.22099976 1313.04845215 -169.80975342 1312.46166992 C-171.01234789 1311.2604332 -172.21243334 1310.05668003 -173.41015625 1308.85058594 C-175.25040717 1306.99959045 -177.10112633 1305.15954554 -178.953125 1303.3203125 C-180.12043384 1302.15168276 -181.28712251 1300.98243316 -182.453125 1299.8125 C-183.28738007 1298.98431763 -183.28738007 1298.98431763 -184.13848877 1298.1394043 C-188 1294.22993635 -188 1294.22993635 -188 1292 C-188.66 1292 -189.32 1292 -190 1292 C-191.39325954 1290.44759659 -192.71380128 1288.82970015 -194 1287.1875 C-197.20870972 1283.16632852 -200.487753 1279.32718975 -204 1275.5625 C-208.60574762 1270.53933439 -212.72298351 1265.28962841 -216.71484375 1259.76953125 C-218.14113181 1257.80567566 -219.58594593 1255.85614901 -221.03125 1253.90625 C-236.05510035 1233.52061877 -249.03730463 1211.91376742 -259.99804688 1189.08251953 C-260.67203256 1187.68166722 -261.35316287 1186.28423229 -262.04101562 1184.89013672 C-274.09600584 1160.34489842 -281.95339575 1133.81121557 -287 1107 C-287.16435547 1106.15937012 -287.32871094 1105.31874023 -287.49804688 1104.45263672 C-291.21756546 1085.14067271 -292.93127788 1064.65212901 -292 1045 C-291.95891113 1044.05882324 -291.91782227 1043.11764648 -291.87548828 1042.14794922 C-288.11311337 963.01787248 -255.27655551 889.46963425 -203.98486328 829.69238281 C-200.37058909 825.47637661 -196.9323298 821.14227743 -193.55859375 816.73046875 C-193.04425781 816.15941406 -192.52992188 815.58835937 -192 815 C-191.34 815 -190.68 815 -190 815 C-189.72886383 814.40387405 -189.45772766 813.80774811 -189.17837524 813.19355774 C-188.01630797 811.03035746 -186.87542967 809.62762356 -185.14599609 807.90307617 C-184.57134613 807.32534958 -183.99669617 806.74762299 -183.40463257 806.15238953 C-182.47344101 805.23197624 -182.47344101 805.23197624 -181.5234375 804.29296875 C-180.87935944 803.64934891 -180.23528137 803.00572906 -179.57168579 802.34260559 C-178.20721862 800.98115702 -176.84032432 799.62213725 -175.47119141 798.26538086 C-173.39826306 796.21055985 -171.33330021 794.14800013 -169.26953125 792.08398438 C-167.93796785 790.75734275 -166.60595051 789.43115656 -165.2734375 788.10546875 C-164.66478851 787.49793259 -164.05613953 786.89039642 -163.42904663 786.26445007 C-159.10698172 781.98884045 -154.60451818 777.96789913 -150 774 C-148.80878511 772.95438904 -147.61851323 771.90770156 -146.4296875 770.859375 C-138.75763094 764.13377376 -130.9519165 757.65058459 -122.86279297 751.43310547 C-120.88411541 749.91084633 -118.91276301 748.37938136 -116.94140625 746.84765625 C-60.13373557 702.87494402 3.52764093 669.028386 69.8125 641.75 C70.59360138 641.42769409 71.37470276 641.10538818 72.17947388 640.77331543 C85.68416009 635.21269831 99.31477892 630.1319579 113 625 C113.33 491.02 113.66 357.04 114 219 C76.71 219 39.42 219 1 219 C0.67 218.67 0.34 218.34 0 218 C0 146.06 0 74.12 0 0 Z M840 785 C840 961.55 840 1138.1 840 1320 C849.82783524 1320 859.54104286 1319.94950655 869.33984375 1319.484375 C870.55975006 1319.42885971 871.77965637 1319.37334442 873.03652954 1319.31614685 C877.00379605 1319.13295825 880.97068869 1318.94272499 884.9375 1318.75 C885.62386913 1318.71690861 886.31023827 1318.68381721 887.01740646 1318.64972305 C942.35089018 1315.97996449 997.5207533 1311.63991714 1052.56640625 1305.37890625 C1053.66113754 1305.25555405 1054.75586884 1305.13220184 1055.8837738 1305.00511169 C1056.89351761 1304.88813431 1057.90326141 1304.77115692 1058.94360352 1304.65063477 C1059.82693863 1304.54888443 1060.71027374 1304.44713409 1061.62037659 1304.34230042 C1064.29146056 1303.99933871 1064.29146056 1303.99933871 1068 1303 C1068 1137.67 1068 972.34 1068 802 C1065.41049817 800.70524909 1063.19042656 800.61548645 1060.30273438 800.32324219 C1059.09177597 800.1991246 1057.88081757 800.07500702 1056.63316345 799.9471283 C1055.28671365 799.81349528 1053.94024175 799.68008472 1052.59375 799.546875 C1051.18708093 799.40520563 1049.78042949 799.26336103 1048.37379456 799.12135315 C1043.74992054 798.65680479 1039.12503864 798.20278379 1034.5 797.75 C1033.30808107 797.63290995 1033.30808107 797.63290995 1032.09208298 797.51345444 C985.56279833 792.94495513 938.99604097 789.45040066 892.31779099 786.82162094 C890.74189555 786.73282483 889.16602084 786.64366024 887.590168 786.55411148 C883.11609016 786.29991666 878.64176822 786.05130982 874.16690445 785.81132889 C872.18403075 785.70430253 870.20136834 785.5933829 868.21871948 785.48226929 C858.77252504 784.98945732 849.49547223 785 840 785 Z M374.03125 811.21484375 C373.12387589 811.38114288 372.21650177 811.54744202 371.28163147 811.71878052 C367.3161971 812.15024792 367.3161971 812.15024792 364 814 C363.90115214 816.53309587 363.86822491 819.03893069 363.87695217 821.57253361 C363.87579833 822.3790417 363.87464448 823.18554979 363.87345567 824.01649752 C363.87078158 826.75402481 363.87531764 829.49149479 363.87974548 832.22901917 C363.87930994 834.19741214 363.87843535 836.16580505 363.87715632 838.13419765 C363.87490798 843.57049634 363.87893725 849.00677552 363.88393438 854.44307172 C363.88823386 860.29518789 363.88679281 866.14730287 363.8860321 871.99942017 C363.88550655 882.14767787 363.88865664 892.29592917 363.89426994 902.44418526 C363.90238068 917.11704512 363.90500307 931.78990295 363.90625793 946.46276485 C363.90836013 970.26578703 363.91510247 994.06880587 363.92456055 1017.87182617 C363.93374018 1041.00073224 363.94082614 1064.1296374 363.94506836 1087.25854492 C363.94519989 1087.97107807 363.94533141 1088.68361121 363.94546692 1089.41773627 C363.94678541 1096.5730784 363.94806123 1103.72842055 363.94930578 1110.8837627 C363.95184221 1125.46091489 363.95466347 1140.03806701 363.95765686 1154.61521912 C363.95779415 1155.28550004 363.95793144 1155.95578097 363.95807289 1156.64637344 C363.96727852 1201.43091703 363.98314505 1246.21545872 364 1291 C365.87417469 1291.47825763 367.74903816 1291.9538165 369.62417603 1292.42828369 C370.6681637 1292.69340885 371.71215137 1292.95853401 372.78777504 1293.23169327 C377.95182635 1294.46684194 383.16381144 1295.35606613 388.3984375 1296.234375 C390.14982025 1296.53257896 390.14982025 1296.53257896 391.93658447 1296.83680725 C395.74819602 1297.481904 399.56129322 1298.11741277 403.375 1298.75 C404.03209709 1298.8593475 404.68919418 1298.96869499 405.36620331 1299.08135605 C457.40974982 1307.7384849 509.77261302 1313.79258301 562.375 1317.8125 C563.6076358 1317.90778992 563.6076358 1317.90778992 564.86517334 1318.00500488 C567.18837708 1318.18231986 569.51197738 1318.35245155 571.8359375 1318.51953125 C573.13063965 1318.61339111 574.4253418 1318.70725098 575.75927734 1318.80395508 C581.16747004 1319.05397112 586.58603138 1319 592 1319 C592 1143.11 592 967.22 592 786 C519.49632852 786 445.0692064 798.0379184 374.03125 811.21484375 Z M18 959 C17.41226807 959.50305664 16.82453613 960.00611328 16.21899414 960.52441406 C1.20905633 973.44550496 -12.80089761 987.62455595 -24 1004 C-24.39461426 1004.5765332 -24.78922852 1005.15306641 -25.19580078 1005.74707031 C-37.20227504 1023.6076817 -45.29586875 1043.31447098 -41.64111328 1065.14355469 C-37.98491122 1081.69769432 -28.34559062 1096.82938576 -18 1110 C-17.57976562 1110.53592773 -17.15953125 1111.07185547 -16.7265625 1111.62402344 C-10.16849591 1119.8563843 -2.846501 1127.34858361 4.5625 1134.8125 C5.85571167 1136.11973022 5.85571167 1136.11973022 7.17504883 1137.45336914 C13.14196631 1143.39091242 19.40780284 1148.77114807 26 1154 C26.71534912 1154.57999756 27.43069824 1155.15999512 28.16772461 1155.75756836 C50.4582796 1173.82562349 74.89755329 1188.87682559 100 1202.6875 C100.93859863 1203.20538086 101.87719727 1203.72326172 102.84423828 1204.25683594 C103.72063965 1204.73282227 104.59704102 1205.20880859 105.5 1205.69921875 C106.2734375 1206.12033936 107.046875 1206.54145996 107.84375 1206.9753418 C110.23466088 1208.19844225 110.23466088 1208.19844225 114 1209 C114 1106.04 114 1003.08 114 897 C86.4401667 897 37.99357577 941.43629077 18 959 Z M363 1544 C362.95331615 1557.553826 362.91794993 1571.10763234 362.89637566 1584.66152287 C362.88601242 1590.95756466 362.87199245 1597.25355078 362.84912109 1603.54956055 C362.82712296 1609.64449536 362.81537557 1615.73937718 362.81024551 1621.83434868 C362.80659749 1624.14032257 362.79947677 1626.44629411 362.78853989 1628.75224495 C362.69993039 1648.23962243 363.27381159 1667.78468518 367.1875 1686.9375 C367.50895996 1688.54371216 367.50895996 1688.54371216 367.83691406 1690.18237305 C377.79090079 1738.12553191 402.3023149 1785.78787748 441 1817 C442.09782048 1817.90995815 443.19545894 1818.82013593 444.29296875 1819.73046875 C457.64387181 1830.70567821 471.77068414 1839.8548743 487 1848 C487.61359375 1848.33209473 488.2271875 1848.66418945 488.859375 1849.00634766 C556.73305103 1885.46306841 633.21085349 1887.54788378 708.25406122 1887.32916516 C714.70679602 1887.3115205 721.159425 1887.31221531 727.61217642 1887.3177436 C734.71993106 1887.32351175 741.82763213 1887.31770996 748.93537903 1887.30657005 C751.90429211 1887.30202869 754.87317128 1887.30100285 757.84208679 1887.3031559 C781.61678074 1887.31344171 805.36076823 1886.53671911 828.9375 1883.25 C830.16291504 1883.08153564 831.38833008 1882.91307129 832.65087891 1882.73950195 C890.9111055 1874.38418007 951.07045762 1854.19978437 994.2421875 1812.63671875 C997.29074953 1809.72201709 1000.46091831 1806.99528008 1003.70703125 1804.3046875 C1005.23463655 1803.06937667 1005.23463655 1803.06937667 1005 1801 C1005.66 1801 1006.32 1801 1007 1801 C1008.41706502 1799.45111498 1009.75809496 1797.83238466 1011.0625 1796.1875 C1015.88310216 1790.13676013 1015.88310216 1790.13676013 1018.20703125 1787.41796875 C1056.05653555 1743.02152316 1068.24374486 1685.26065123 1068.09765625 1628.4140625 C1068.09578731 1626.2593082 1068.09436566 1624.10455347 1068.09336853 1621.94979858 C1068.0895808 1616.32424716 1068.07978321 1610.69872223 1068.06866455 1605.07318115 C1068.05836921 1599.31441608 1068.05385363 1593.55564666 1068.04882812 1587.796875 C1068.03815698 1576.53123846 1068.02112645 1565.26562145 1068 1554 C1056.53623285 1554.99386492 1045.07275635 1555.99008493 1033.61160278 1557.01368713 C969.16150361 1562.75047354 904.67716872 1566.97883848 840 1569 C840 1584.84 840 1600.68 840 1617 C877.95 1617 915.9 1617 955 1617 C955 1689.27 955 1761.54 955 1836 C797.26 1836 639.52 1836 477 1836 C477 1763.73 477 1691.46 477 1617 C514.62 1617 552.24 1617 591 1617 C591 1600.83 591 1584.66 591 1568 C587.38946011 1567.39824335 584.20215092 1566.87316864 580.61767578 1566.69042969 C579.79561646 1566.64636993 578.97355713 1566.60231018 578.12658691 1566.55691528 C577.24176636 1566.51235199 576.3569458 1566.4677887 575.4453125 1566.421875 C573.47734445 1566.31520185 571.50940973 1566.20791263 569.54150391 1566.10009766 C568.49907532 1566.04364075 567.45664673 1565.98718384 566.38262939 1565.92901611 C537.18997752 1564.32479585 508.0934854 1561.87137624 479 1559 C478.02796631 1558.90416626 477.05593262 1558.80833252 476.05444336 1558.70959473 C448.48256247 1555.96919682 421.08533937 1552.11110807 393.68505859 1548.03417969 C391.74004456 1547.74540955 391.74004456 1547.74540955 389.7557373 1547.45080566 C387.32430259 1547.08890193 384.89320496 1546.72472291 382.46252441 1546.35778809 C381.36226929 1546.19363403 380.26201416 1546.02947998 379.12841797 1545.86035156 C378.18191376 1545.71776917 377.23540955 1545.57518677 376.26022339 1545.42828369 C371.84991221 1544.84891715 367.42766764 1544.42323001 363 1544 Z " fill="#FEC700" transform="translate(355,6)"/>
<path d="M0 0 C128.04 0 256.08 0 388 0 C388 45.87 388 91.74 388 139 C350.05 139 312.1 139 273 139 C273 538.3 273 937.6 273 1349 C310.95 1349 348.9 1349 388 1349 C388 1394.54 388 1440.08 388 1487 C259.96 1487 131.92 1487 0 1487 C0 1441.46 0 1395.92 0 1349 C37.95 1349 75.9 1349 115 1349 C115 949.7 115 550.4 115 139 C77.05 139 39.1 139 0 139 C0 93.13 0 47.26 0 0 Z " fill="#001E3E" transform="translate(877,315)"/>
<path d="M0 0 C0 52.47 0 104.94 0 159 C-24.42 160.98 -48.84 162.96 -74 165 C-92.414126 166.78201219 -110.7123569 168.57776091 -129.03662109 170.99731445 C-132.39727735 171.4404374 -135.75906759 171.87404663 -139.12109375 172.30664062 C-153.1882658 174.13378957 -167.19268285 176.24468945 -181.19018555 178.54238892 C-185.30721668 179.2128955 -189.42888596 179.85241531 -193.55078125 180.4921875 C-210.99022613 183.22231497 -228.24584435 186.35088271 -245.47412109 190.22460938 C-249.15961138 191.0351008 -252.85257865 191.79661043 -256.55078125 192.546875 C-335.25018333 208.55959321 -412.50005908 232.91728987 -642 382 C-642.47856445 382.62390625 -642.95712891 383.2478125 -643.45019531 383.890625 C-666.56948226 414.12900399 -680.60917236 447.03975806 -676.73193359 485.67089844 C-674.4000261 502.19544801 -668.21285747 519.11395396 -659 533 C-658.23925757 534.41092714 -657.48944363 535.82779483 -656.75 537.25 C-642.70798141 562.72366192 -619.74909622 586.17213684 -597 604 C-595.82135161 604.97571353 -594.6457775 605.955148 -593.47265625 606.9375 C-549.52997236 643.58904457 -496.80086744 670.64300578 -444 692 C-442.96552734 692.42168457 -441.93105469 692.84336914 -440.86523438 693.27783203 C-414.94778808 703.83931146 -388.68352383 712.8752419 -362.02532959 721.3548584 C-360.23303665 721.9257693 -358.44187162 722.5002185 -356.65087891 723.07519531 C-340.74457048 728.16841394 -324.60865232 732.30989285 -308.41705322 736.38032532 C-303.9532454 737.50297969 -299.49602628 738.64772419 -295.04296875 739.8125 C-280.79590143 743.50763462 -266.46722956 746.67707337 -252.0625 749.6875 C-251.17014648 749.8740918 -250.27779297 750.06068359 -249.35839844 750.25292969 C-215.42611205 757.32476363 -181.35474257 763.01101427 -147 767.5625 C-145.51202198 767.76027996 -144.02404593 767.95807474 -142.53607178 768.15588379 C-104.75148263 773.17110611 -67.06110445 776.71440509 -29.03759766 779.33886719 C-26.81714813 779.4932117 -24.59670991 779.64771828 -22.3762722 779.80223274 C-20.28985789 779.94619895 -18.20321476 780.0864216 -16.11653137 780.22642517 C-14.22664742 780.35737328 -14.22664742 780.35737328 -12.29858398 780.4909668 C-11.19852524 780.56550583 -10.09846649 780.64004486 -8.96507263 780.71684265 C-6 781 -6 781 -1 782 C-1 834.47 -1 886.94 -1 941 C-13.38085815 941 -13.38085815 941 -17.56420898 940.7121582 C-18.51878998 940.64799713 -19.47337097 940.58383606 -20.45687866 940.51773071 C-21.45981964 940.44613739 -22.46276062 940.37454407 -23.49609375 940.30078125 C-24.5813736 940.22580414 -25.66665344 940.15082703 -26.78482056 940.07357788 C-30.33614097 939.82553648 -33.88686119 939.57010741 -37.4375 939.3125 C-39.28684647 939.17903671 -39.28684647 939.17903671 -41.17355347 939.0428772 C-139.97565298 931.86374954 -238.71783365 918.4251029 -341.70819092 892.5814209 C-344.02630728 891.99332597 -346.34536502 891.40905727 -348.66455078 890.82519531 C-407.35363223 876.01018377 -467.26894429 858.05267726 -522.125 832.1875 C-526.56461543 830.11355779 -531.02474001 828.10139466 -535.51245117 826.13476562 C-549.43975314 820.02041249 -562.88545636 813.09619782 -576.33837891 806.0078125 C-582.41110343 802.81246379 -588.52219655 799.71883357 -594.69921875 796.73046875 C-598.38178844 794.79984346 -601.91749288 792.6847138 -605.47143555 790.52856445 C-607.6985393 789.18223862 -609.9387573 787.86542119 -612.19140625 786.5625 C-623.31974116 780.06830432 -634.09137343 773.0763601 -644.8125 765.9375 C-645.50320587 765.47899658 -646.19391174 765.02049316 -646.9055481 764.5480957 C-665.30061092 752.32022217 -683.05249241 739.17301794 -700 725 C-700.52674316 724.55962402 -701.05348633 724.11924805 -701.59619141 723.66552734 C-714.62916115 712.73182789 -726.94821044 701.1277938 -739 689.125 C-740.18372192 687.94828735 -740.18372192 687.94828735 -741.39135742 686.74780273 C-746.13267926 681.99337357 -750.6414555 677.10634738 -755 672 C-755.87739974 670.99070767 -756.75498842 669.98157954 -757.6328125 668.97265625 C-774.90342062 648.80556683 -789.98737178 627.14774257 -803 604 C-803.34724121 603.3905957 -803.69448242 602.78119141 -804.05224609 602.15332031 C-822.45621326 569.70676568 -833.81094399 532.983857 -838 496 C-838.13148438 494.906875 -838.26296875 493.81375 -838.3984375 492.6875 C-841.83309434 457.78396026 -836.75317644 422.23364058 -826 389 C-825.58524414 387.71077637 -825.58524414 387.71077637 -825.16210938 386.39550781 C-811.31062678 344.16880973 -786.85213144 306.45952608 -758 273 C-757.38511719 272.28328125 -756.77023437 271.5665625 -756.13671875 270.828125 C-754.44135 268.86975155 -752.7254537 266.93191825 -751 265 C-750.27296875 264.18015625 -749.5459375 263.3603125 -748.796875 262.515625 C-742.82396244 255.88312701 -736.61362728 249.50873726 -730.3125 243.1875 C-729.11898926 241.98710083 -729.11898926 241.98710083 -727.90136719 240.76245117 C-723.09488737 235.96845182 -718.15450655 231.41520949 -713 227 C-711.80857836 225.95462463 -710.61844648 224.90777726 -709.4296875 223.859375 C-701.78483753 217.15695326 -694.02329708 210.67009392 -685.94775391 204.49267578 C-684.60268467 203.4618719 -683.26143946 202.4260657 -681.92333984 201.38623047 C-660.223777 184.53778343 -637.14235234 169.51029507 -613.52636719 155.49902344 C-611.08788324 154.05214564 -608.65666431 152.59371225 -606.2265625 151.1328125 C-599.35988841 147.02429103 -592.47815424 143.11098165 -585.2734375 139.6171875 C-581.0555167 137.53339369 -576.9062694 135.32858207 -572.75 133.125 C-556.56969802 124.57365275 -540.26216493 116.49615809 -523.29711914 109.60522461 C-518.97687856 107.84206922 -514.72439116 105.98546384 -510.5 104 C-505.60888242 101.70976313 -500.67793053 99.56185978 -495.6875 97.5 C-495.06101562 97.23960937 -494.43453125 96.97921875 -493.7890625 96.7109375 C-411.85535558 63.15558238 -324.74389911 41.27694815 -33.5 1.1875 C-32.59783752 1.12397339 -31.69567505 1.06044678 -30.76617432 0.99499512 C-28.20906755 0.81733042 -25.65158421 0.64730065 -23.09375 0.48046875 C-22.37520844 0.43075424 -21.65666687 0.38103973 -20.91635132 0.32981873 C-13.91149362 -0.10706919 -7.06837163 0 0 0 Z " fill="#001E3E" transform="translate(947,588)"/>
<path d="M0 0 C3.86233816 0.62517229 7.58414252 1.35878749 11.3515625 2.41796875 C12.36992188 2.70349609 13.38828125 2.98902344 14.4375 3.28320312 C15.489375 3.58162109 16.54125 3.88003906 17.625 4.1875 C18.62273438 4.46658203 19.62046875 4.74566406 20.6484375 5.03320312 C25.58018369 6.42255699 30.50057462 7.83956605 35.3972168 9.34814453 C49.00881106 13.53102501 62.74078504 17.08249285 76.5625 20.5 C77.70985626 20.78513458 78.85721252 21.07026917 80.03933716 21.36404419 C101.69569614 26.74479542 123.39993271 31.64818654 145.25390625 36.16015625 C146.59607563 36.43751026 147.93823875 36.71489454 149.28039551 36.99230957 C152.52020264 37.66183571 155.76007173 38.33106033 159 39 C159.00146656 39.59925797 159.00293312 40.19851593 159.00444412 40.81593323 C159.04189753 55.56491512 159.10140562 70.31369275 159.18390274 85.06248474 C159.2232986 92.19563085 159.25577982 99.32867216 159.27099609 106.46191406 C159.05167968 149.91302186 159.05167968 149.91302186 164 193 C164.19870193 194.11324142 164.39740387 195.22648285 164.60212708 196.37345886 C167.2942228 211.26571719 171.26946724 225.63214388 176 240 C176.226875 240.69834961 176.45375 241.39669922 176.6875 242.11621094 C179.73562798 251.41776398 183.64926118 260.24712789 188 269 C188.39461426 269.79857422 188.78922852 270.59714844 189.19580078 271.41992188 C198.04268402 289.1881172 208.45915394 305.60723033 221 321 C221.4424707 321.54543457 221.88494141 322.09086914 222.34082031 322.65283203 C233.55607513 336.3695866 245.93059845 349.19780346 260 360 C261.00160156 360.79535156 262.00320313 361.59070312 263.03515625 362.41015625 C294.54355176 387.31093771 331.19465677 404.90174212 369.59423828 416.28662109 C371.18838696 416.75933293 372.78056347 417.23875113 374.37060547 417.72509766 C399.93680626 425.50025184 426.37300037 429.89200393 452.9375 432.375 C453.78453491 432.45453918 454.63156982 432.53407837 455.50427246 432.61602783 C477.97512428 434.67947648 500.40887707 435.16140335 522.96484375 435.16796875 C524.94330259 435.17037561 526.92176144 435.17278525 528.90021998 435.17542917 C535.10283546 435.18348919 541.30543651 435.18602134 547.50805664 435.18530273 C553.11160144 435.18477056 558.71507645 435.19182843 564.31860352 435.20581055 C606.7094662 435.51032213 606.7094662 435.51032213 649 433 C649.82764862 432.92429779 650.65529724 432.84859558 651.50802612 432.77059937 C656.01892113 432.35388149 660.50814081 431.84218045 665 431.25 C666.30501465 431.08081055 667.6100293 430.91162109 668.95458984 430.73730469 C718.61691239 424.11745204 769.25889637 410.36927391 812.87426758 385.19995117 C815.34213991 383.80686601 817.84082934 382.47699987 820.33984375 381.140625 C825.85914146 378.1380777 831.10077918 374.81744121 836.3125 371.3125 C837.22257812 370.70164551 838.13265625 370.09079102 839.0703125 369.46142578 C851.64308012 360.94101944 863.07384845 351.53506566 874 341 C874.96389648 340.07695068 874.96389648 340.07695068 875.94726562 339.13525391 C885.12170658 330.31046207 893.48186624 321.27371475 901 311 C901.43006348 310.42008301 901.86012695 309.84016602 902.30322266 309.24267578 C910.11516919 298.6879586 917.20550811 287.80192481 923.125 276.0625 C923.4255127 275.46711426 923.72602539 274.87172852 924.03564453 274.25830078 C946.62281956 228.36862956 952.91679765 179.15960721 953.31640625 128.5625 C953.33702745 126.34333963 953.35802507 124.12418273 953.37937927 121.9050293 C953.43406735 116.11843714 953.48370711 110.33181275 953.53222656 104.54516602 C953.58283542 98.61862383 953.638314 92.69212734 953.69335938 86.765625 C953.80028746 75.17712254 953.90187213 63.58858009 954 52 C954.72960938 51.90136658 955.45921875 51.80273315 956.2109375 51.70111084 C992.47350914 46.78845574 1028.66228036 41.57658385 1064.75 35.5 C1065.52780823 35.36913498 1066.30561646 35.23826996 1067.10699463 35.10343933 C1086.38886909 31.8982511 1086.38886909 31.8982511 1105.60919189 28.35070801 C1108.10714695 27.9842826 1110.47894752 27.97649103 1113 28 C1113.0471168 45.36172116 1113.08218022 62.72342183 1113.10362434 80.08519268 C1113.11385425 88.14999745 1113.12775187 96.21476206 1113.15087891 104.27954102 C1113.17107101 111.32433393 1113.18377625 118.36909773 1113.18817699 125.41391879 C1113.19074165 129.12997829 1113.19658664 132.84595462 1113.21146011 136.56198692 C1113.30793806 161.67078125 1112.52354286 186.69750767 1108.75 211.5625 C1108.64395447 212.28160553 1108.53790894 213.00071106 1108.4286499 213.74160767 C1099.78458358 272.15630111 1079.66648603 329.04224303 1048 379 C1047.58041016 379.66257812 1047.16082031 380.32515625 1046.72851562 381.0078125 C1035.35995504 398.80208124 1022.58335673 415.8331481 1008.3359375 431.41796875 C1007.07459517 432.81219497 1005.81907332 434.21231127 1004.59960938 435.64331055 C999.47729223 441.63464778 993.96555524 447.22057669 988.39501953 452.7902832 C986.76172552 454.42575882 985.1366153 456.06907708 983.51171875 457.71289062 C976.98420426 464.27496677 970.25316092 470.23912692 963 476 C961.90991991 476.92308078 960.82529516 477.85270653 959.75 478.79296875 C944.57506217 492.00637343 928.02692361 503.32247113 911 514 C910.34612305 514.41056641 909.69224609 514.82113281 909.01855469 515.24414062 C876.45209352 535.54845577 841.36589538 551.80203509 805 564 C803.83855469 564.40347656 802.67710937 564.80695312 801.48046875 565.22265625 C751.1881747 582.46731275 698.0156194 591.79842627 645 595 C644.33971519 595.04052994 643.67943037 595.08105988 642.99913692 595.12281799 C627.33359112 596.05550553 611.68713804 596.16424609 595.9977653 596.16725707 C593.87083294 596.16797945 591.74390661 596.17013562 589.61697578 596.17275429 C582.1254245 596.1819502 574.63389073 596.18609713 567.14233398 596.18530273 C561.03260662 596.18477164 554.92294346 596.19179947 548.81323242 596.20581055 C482.61611704 596.35412008 482.61611704 596.35412008 454 594 C453.03268951 593.92429779 452.06537903 593.84859558 451.0687561 593.77059937 C445.84649304 593.3549291 440.6419015 592.84734019 435.4375 592.25 C434.32746613 592.12644638 434.32746613 592.12644638 433.19500732 592.00039673 C372.92779423 585.24158255 311.82499879 570.41373011 257.05224609 543.97900391 C254.75923032 542.88514318 252.45291922 541.82274205 250.14453125 540.76171875 C237.35323272 534.84124343 225.11977708 528.18934549 213 521 C212.17991455 520.51660156 211.3598291 520.03320312 210.51489258 519.53515625 C190.28946047 507.52870634 170.6865083 493.95620729 152.921875 478.51953125 C150.08075683 476.06963657 147.17959478 473.71786655 144.25 471.375 C140.01213475 467.93058122 136.13578461 464.28232378 132.36328125 460.3359375 C130.35913573 458.35498044 128.3157193 456.52906836 126.1796875 454.6953125 C122.13314237 451.18282678 118.4487067 447.43125946 114.8125 443.5 C114.17030518 442.8093042 113.52811035 442.1186084 112.86645508 441.40698242 C51.51470455 375.05648004 13.51751038 291.15377411 2.6875 201.5 C2.60609772 200.827341 2.52469543 200.15468201 2.44082642 199.4616394 C0.61746037 184.15397676 -0.1502719 169.00255031 -0.11352539 153.59985352 C-0.11324253 151.91293337 -0.11340318 150.2260131 -0.1139679 148.53909302 C-0.11425201 144.00912295 -0.10841831 139.47917996 -0.10139394 134.94921613 C-0.09509553 130.19669057 -0.09455151 125.44416422 -0.09336853 120.69163513 C-0.09027419 111.71418105 -0.08208665 102.73673931 -0.07201904 93.75929064 C-0.06079863 83.52939304 -0.05533258 73.29949482 -0.05032361 63.0695926 C-0.03990224 42.04638821 -0.02233994 21.02319488 0 0 Z " fill="#001E3E" transform="translate(515,1502)"/>
<path d="M0 0 C11.05595366 0 21.96746662 0.00435892 32.984375 0.55078125 C34.22746933 0.60907608 35.47056366 0.66737091 36.75132751 0.72743225 C40.06577819 0.88453347 43.37997303 1.04593859 46.69405746 1.21056366 C48.78171894 1.31407267 50.86944224 1.41624818 52.95718384 1.51812744 C143.57721745 5.95007498 234.23924741 13.54523476 324 27 C324.90721802 27.13554291 325.81443604 27.27108582 326.74914551 27.41073608 C343.00718264 29.84930917 359.22317045 32.50314099 375.42333984 35.29956055 C379.12908174 35.93820344 382.83597762 36.56982571 386.54296875 37.20117188 C400.91696839 39.66644933 415.19575422 42.42477537 429.45812988 45.46633911 C432.98691229 46.20720039 436.52406563 46.88927339 440.06640625 47.5625 C485.96280596 56.32230488 531.82857356 67.214178 576.42675781 81.20019531 C580.68993503 82.52525874 584.97088637 83.79007361 589.25 85.0625 C657.19727518 105.40893039 723.15030015 131.21621607 786.70770264 162.70608521 C788.51419007 163.60106601 790.32274226 164.49187536 792.13134766 165.38256836 C793.22366699 165.92921143 794.31598633 166.47585449 795.44140625 167.0390625 C796.39732666 167.51553223 797.35324707 167.99200195 798.33813477 168.48291016 C801.14438625 170.08229076 803.53384586 171.92067712 806 174 C805.58862793 174.53665283 805.17725586 175.07330566 804.75341797 175.6262207 C797.42505622 185.19453777 790.12132696 194.77621194 783 204.5 C777.41341913 212.12743219 771.70723613 219.65644628 765.9609375 227.1640625 C761.57935674 232.89902727 757.26457042 238.67759563 753 244.5 C748.07435225 251.22497112 743.06649705 257.8805141 738 264.5 C731.59852383 272.86406866 725.31053147 281.30443766 719.0859375 289.80078125 C716.08863495 293.8908702 713.05129782 297.95008317 710 302 C703.69137009 300.07329521 697.89727954 297.62363797 692 294.6875 C682.50299407 290.06277942 672.85178177 285.86121391 663.125 281.75 C662.43615723 281.45821869 661.74731445 281.16643738 661.03759766 280.86581421 C607.04392423 258.02190404 551.31668281 239.94088165 494.7286377 224.73376465 C492.18116161 224.04871661 489.63486741 223.35945439 487.08886719 222.66894531 C463.96912475 216.41564894 440.6377579 211.29118432 417.18511963 206.45123291 C415.2576247 206.05320017 413.33067372 205.65253534 411.40380859 205.25146484 C404.28074499 203.77229154 397.14409129 202.37360012 390 201 C388.56620127 200.72108282 387.13244758 200.44193405 385.69873047 200.16259766 C302.49993115 183.99351374 218.46255693 173.61277352 134 167 C133.30960884 166.94588455 132.61921768 166.8917691 131.90790558 166.83601379 C98.5428168 164.22803596 65.14981902 162.40195825 31.71728516 160.95019531 C30.41360992 160.8930687 29.10993469 160.83594208 27.76675415 160.77708435 C25.34399153 160.67172679 22.92112492 160.56872027 20.49813843 160.46864319 C19.40562775 160.42138596 18.31311707 160.37412872 17.1875 160.32543945 C16.25292969 160.28643021 15.31835938 160.24742096 14.35546875 160.20722961 C9.56255363 159.91122508 4.78232584 159.43475689 0 159 C0 106.53 0 54.06 0 0 Z " fill="#001E3E" transform="translate(1195,587)"/>
<path d="M0 0 C1.40356445 1.44262695 1.40356445 1.44262695 2.86328125 3.48828125 C3.41290527 4.24737793 3.9625293 5.00647461 4.52880859 5.78857422 C5.41173584 7.03791748 5.41173584 7.03791748 6.3125 8.3125 C7.58184165 10.0717514 8.85137813 11.83086224 10.12109375 13.58984375 C11.09151611 14.94505127 11.09151611 14.94505127 12.08154297 16.32763672 C14.98115406 20.36672338 17.92510063 24.37256233 20.875 28.375 C21.44645752 29.15206299 22.01791504 29.92912598 22.60668945 30.72973633 C27.00962888 36.70066195 31.49258557 42.60768627 36 48.5 C44.04102314 59.01162075 51.89059941 69.65630433 59.70898438 80.33398438 C67.16750661 90.51397425 74.70694445 100.62200916 82.40771484 110.62060547 C84.28693344 113.06943052 86.1486376 115.53005558 88 118 C88.68078613 118.90347168 89.36157227 119.80694336 90.06298828 120.73779297 C90.71380371 121.62740723 91.36461914 122.51702148 92.03515625 123.43359375 C92.92473022 124.6390686 92.92473022 124.6390686 93.83227539 125.86889648 C94.21762451 126.57216064 94.60297363 127.2754248 95 128 C94 131 94 131 92.0234375 132.29589844 C91.14945313 132.7293457 90.27546875 133.16279297 89.375 133.609375 C88.375896 134.10880615 87.37679199 134.6082373 86.34741211 135.12280273 C84.69044312 135.92826538 84.69044312 135.92826538 83 136.75 C81.84443604 137.31855713 80.68887207 137.88711426 79.49829102 138.47290039 C44.98075847 155.36974656 9.58855012 170.38176904 -26.38322449 183.88160706 C-30.11316272 185.2826715 -33.83224093 186.7068807 -37.5390625 188.16796875 C-62.97668113 198.16880323 -89.18466765 206.29096758 -115.40917969 213.9453125 C-118.88527404 214.96630296 -122.35324163 216.0113295 -125.8203125 217.0625 C-169.53974635 230.19203531 -214.12207375 240.79704374 -258.90234375 249.59375 C-265.44714178 250.88165728 -271.9742154 252.24454557 -278.5 253.625 C-288.49296884 255.72103829 -298.5045625 257.6387144 -308.5625 259.39599609 C-311.0245008 259.82859481 -313.48526125 260.26608616 -315.9453125 260.70947266 C-405.13908072 276.7608498 -495.46761392 286.35173866 -638.125 295.75 C-639.24621246 295.80916595 -640.36742493 295.86833191 -641.52261353 295.92929077 C-661.01212679 296.94283443 -680.48465574 297.44241874 -700 298 C-700 245.53 -700 193.06 -700 139 C-697.0566584 138.01888613 -694.92921918 137.80983372 -691.85107422 137.69042969 C-690.78263779 137.6463649 -689.71420135 137.60230011 -688.61338806 137.55690002 C-687.43901688 137.51234177 -686.26464569 137.46778351 -685.0546875 137.421875 C-682.48231853 137.31522572 -679.90997258 137.2080202 -677.33764648 137.1003418 C-675.94937195 137.04330997 -674.56109679 136.98629326 -673.17282104 136.92929077 C-595.30835539 133.7051172 -517.61006701 127.42998617 -134.22784424 51.72784424 C-132.01096444 51.00358212 -129.79260071 50.28405676 -127.57373047 49.56591797 C-110.23036928 43.94737697 -93.11979232 37.94065452 -76.1628418 31.22802734 C-73.21664443 30.0841159 -70.25683726 28.98320138 -67.29086304 27.89179993 C-58.31613569 24.58032123 -49.55789984 20.87183182 -40.8125 17 C-39.45393674 16.40327984 -38.09521283 15.80692528 -36.73632812 15.2109375 C-28.44669583 11.56723232 -20.20895485 7.82236423 -12 4 C-10.29176516 3.20812083 -8.58345171 2.41641118 -6.875 1.625 C-6.19179687 1.30789063 -5.50859375 0.99078125 -4.8046875 0.6640625 C-3 0 -3 0 0 0 Z " fill="#001E3E" transform="translate(1895,1233)"/>
<path d="M0 0 C127.71 0 255.42 0 387 0 C387 45.87 387 91.74 387 139 C349.38 139 311.76 139 273 139 C273 268.03 273 397.06 273 530 C265.320315 531.91992125 257.75345656 533.70098426 250 535.1875 C220.03561556 541.10272528 190.51731344 548.25826057 161.0871582 556.42126465 C159.22853042 556.9366322 157.3691966 557.44945197 155.50976562 557.96191406 C144.56175651 560.98636407 133.72301951 564.29322903 122.92504883 567.81738281 C122.04872803 568.10194336 121.17240723 568.38650391 120.26953125 568.6796875 C119.49198486 568.93476074 118.71443848 569.18983398 117.91333008 569.45263672 C116 570 116 570 114 570 C114 427.44 114 284.88 114 138 C76.38 138 38.76 138 0 138 C0 92.46 0 46.92 0 0 Z " fill="#001E3E" transform="translate(400,46)"/>
<path d="M0 0 C128.04 0 256.08 0 388 0 C388 45.87 388 91.74 388 139 C350.38 139 312.76 139 274 139 C274 271.99 274 404.98 274 542 C266.1573562 540.87962231 258.61222377 539.787407 250.90356445 538.19946289 C235.08530083 534.94866845 219.16784999 532.28941522 203.22998047 529.69970703 C200.70435498 529.28889546 198.17909647 528.87581821 195.65429688 528.45996094 C168.8378162 524.05346289 141.95115054 520.6280395 115 517 C115 391.93 115 266.86 115 138 C77.05 138 39.1 138 0 138 C0 92.46 0 46.92 0 0 Z " fill="#001E3E" transform="translate(1354,46)"/>
<path d="M0 0 C5.29857296 0 9.35226079 0.06361038 14.39453125 0.953125 C15.60044922 1.16066406 16.80636719 1.36820313 18.04882812 1.58203125 C19.29083984 1.80246094 20.53285156 2.02289062 21.8125 2.25 C24.23514299 2.67493131 26.65835029 3.09665448 29.08203125 3.515625 C29.74133636 3.62977249 30.40064148 3.74391998 31.07992554 3.86152649 C36.43348619 4.77203746 41.80107579 5.5553693 47.17674255 6.32337952 C62.28143429 8.49053916 77.26884647 11.15990872 92.25048828 14.04418945 C95.56905243 14.68304064 98.88935493 15.31225404 102.2103157 15.93851185 C105.52143646 16.56437793 108.8309361 17.1986372 112.140625 17.83203125 C113.27397278 18.04583939 114.40732056 18.25964752 115.57501221 18.47993469 C130.13808441 21.29866852 144.51190429 24.72849452 159 28 C159 171.22 159 314.44 159 462 C127.69396552 468.95689655 127.69396552 468.95689655 116.8125 471.1875 C115.68521484 471.42146484 114.55792969 471.65542969 113.39648438 471.89648438 C98.55906616 474.95496411 83.6828903 477.59092217 68.72711182 479.98989868 C63.98007241 480.75157494 59.23410068 481.51982591 54.48828125 482.2890625 C53.56730652 482.4383168 52.64633179 482.58757111 51.69744873 482.74134827 C44.66469178 483.88445118 37.64181262 485.07491864 30.625 486.3125 C18.44207636 488.45232405 18.44207636 488.45232405 13.5625 489.25 C12.20318359 489.47429687 12.20318359 489.47429687 10.81640625 489.703125 C7.22945215 490.0812228 3.60682654 490 0 490 C0 328.3 0 166.6 0 0 Z " fill="#001E3E" transform="translate(1469,813)"/>
<path d="M0 0 C0 151.14 0 302.28 0 458 C-6.88945141 456.74737247 -13.61219173 455.47136608 -20.375 453.75 C-21.66760742 453.42249756 -21.66760742 453.42249756 -22.98632812 453.08837891 C-32.71814253 450.5954395 -42.36977257 447.85848247 -52 445 C-52.62024048 444.81630859 -53.24048096 444.63261719 -53.8795166 444.44335938 C-86.97795996 434.63221578 -119.49251723 423.75652339 -151.4765625 410.73828125 C-152.12577164 410.47532257 -152.77498077 410.21236389 -153.44386292 409.94143677 C-157.88093817 408.11906183 -157.88093817 408.11906183 -159 407 C-159.09764917 405.10258524 -159.1237133 403.20147657 -159.12304783 401.30155087 C-159.12503888 400.0559876 -159.12702993 398.81042433 -159.12908131 397.52711672 C-159.12622772 396.12695926 -159.12328211 394.72680199 -159.12025452 393.3266449 C-159.12069009 391.85322792 -159.12156474 390.37981102 -159.12284368 388.90639454 C-159.1250914 384.83828224 -159.1210636 380.77019602 -159.11606562 376.70208704 C-159.11176525 372.32237726 -159.11320725 367.94266906 -159.1139679 363.56295776 C-159.1144934 355.9684101 -159.1113439 348.373871 -159.10573006 340.77932549 C-159.09761855 329.79875591 -159.0950002 318.81819049 -159.09374207 307.83761824 C-159.09155099 290.0243115 -159.08488942 272.21100933 -159.07543945 254.39770508 C-159.06626676 237.08911156 -159.05918523 219.78051928 -159.05493164 202.47192383 C-159.05466892 201.40582913 -159.05440619 200.33973443 -159.05413551 199.24133383 C-159.05283051 193.89329104 -159.0515668 188.54524823 -159.05032361 183.19720542 C-159.03994928 138.79813378 -159.02232947 94.39906713 -159 50 C-157.91433746 49.59583359 -156.82867493 49.19166718 -155.71011353 48.7752533 C-154.26456481 48.23556467 -152.81903995 47.69581213 -151.37353516 47.15600586 C-150.66048721 46.89074852 -149.94743927 46.62549118 -149.21278381 46.35219574 C-145.11147737 44.8190005 -141.05260804 43.22042852 -137.0234375 41.50390625 C-129.65210342 38.39098666 -122.14868409 35.65460919 -114.625 32.9375 C-113.85554047 32.65920349 -113.08608093 32.38090698 -112.29330444 32.09417725 C-80.92464651 20.78549425 -49.00444709 11.25433578 -16.6875 3.0625 C-15.4814209 2.75530029 -14.2753418 2.44810059 -13.03271484 2.1315918 C-11.91203613 1.85226807 -10.79135742 1.57294434 -9.63671875 1.28515625 C-8.64373779 1.03644775 -7.65075684 0.78773926 -6.62768555 0.53149414 C-4 0 -4 0 0 0 Z " fill="#001E3E" transform="translate(673,830)"/>
</svg>
