<svg xmlns="http://www.w3.org/2000/svg" width="1254" height="402" viewBox="0 0 1254 402">
<g>
<path d="M 311.50 133.84 C309.14,135.15 305.31,135.55 293.50,135.72 C277.07,135.96 273.96,135.23 267.21,129.53 C256.24,120.27 257.09,101.16 268.81,93.56 C275.02,89.52 279.48,88.78 295.13,89.15 C309.27,89.49 309.79,89.58 314.54,92.52 C324.01,98.38 327.73,111.39 322.94,121.95 C320.83,126.60 316.57,131.02 311.50,133.84 ZM 309.25 82.95 C303.67,84.50 279.32,84.20 274.62,82.53 C265.91,79.42 260.04,70.57 260.04,60.50 C260.04,48.98 266.90,40.21 277.65,37.96 C285.76,36.26 307.63,37.25 312.43,39.54 C316.42,41.43 321.59,46.87 323.20,50.86 C324.74,54.70 325.01,63.89 323.71,68.41 C322.25,73.51 314.24,81.56 309.25,82.95 Z" fill="rgb(3,54,134)"/>
<path d="M 678.76 209.88 L 678.50 243.50 L 672.75 243.80 L 667.00 244.10 L 667.00 100.03 L 672.25 100.43 C675.14,100.65 677.83,100.86 678.24,100.91 C678.64,100.96 679.09,115.06 679.24,132.25 L 679.50 163.50 L 694.74 163.31 C703.13,163.21 710.44,162.85 710.99,162.50 C711.63,162.11 712.00,150.82 712.00,131.49 L 712.00 101.09 L 715.34 100.46 C717.18,100.12 719.99,99.99 721.59,100.17 L 724.50 100.50 L 724.50 243.50 L 712.00 244.10 L 712.00 210.11 C712.00,187.63 711.65,175.90 710.96,175.47 C710.39,175.12 702.97,175.15 694.47,175.55 L 679.03 176.27 ZM 862.25 239.25 L 861.72 244.00 L 856.47 244.00 C853.16,244.00 851.06,243.54 850.79,242.75 C850.56,242.06 850.40,209.77 850.44,171.00 L 850.50 100.50 L 855.00 100.24 C855.36,100.22 855.70,100.20 856.03,100.17 C857.84,100.05 859.14,99.96 860.08,100.50 C862.52,101.91 862.49,107.58 862.41,127.98 C862.41,129.40 862.40,130.89 862.40,132.46 C862.34,149.26 862.57,163.00 862.92,163.00 C863.26,163.00 865.64,158.16 868.21,152.25 C870.78,146.34 876.20,134.30 880.26,125.50 C884.32,116.70 888.48,107.59 889.51,105.26 C891.00,101.87 891.99,100.92 894.44,100.53 C897.91,99.96 905.00,100.17 905.00,100.83 C905.00,101.22 894.52,124.28 879.37,157.21 L 873.98 168.92 L 883.58 190.71 C888.86,202.69 896.25,219.25 900.01,227.50 C903.76,235.75 906.49,242.86 906.06,243.30 C905.64,243.75 902.66,243.97 899.45,243.80 L 893.60 243.50 L 884.86 224.00 C880.06,213.27 874.90,201.80 873.41,198.50 C870.43,191.93 864.00,176.75 864.00,176.29 C864.00,176.13 863.54,176.00 862.99,176.00 C862.32,176.00 862.11,185.93 862.38,205.25 C862.60,221.34 862.54,236.64 862.25,239.25 ZM 1087.87 242.77 C1075.50,244.56 1069.68,244.37 1066.86,242.09 C1064.52,240.19 1064.50,240.04 1064.50,219.12 C1064.50,217.68 1064.50,216.32 1064.49,215.04 C1064.47,203.05 1064.46,197.75 1067.09,195.34 C1069.46,193.19 1073.97,193.37 1082.53,193.15 L 1096.00 192.80 L 1096.12 190.15 C1096.18,188.69 1096.33,183.11 1096.44,177.75 L 1096.66 168.00 L 1075.09 168.00 L 1074.80 174.75 L 1074.50 181.50 L 1065.50 181.50 L 1065.21 172.24 C1064.94,163.52 1065.07,162.84 1067.42,160.49 C1069.87,158.04 1070.19,158.00 1085.95,158.00 L 1086.45 158.00 C1097.65,158.00 1102.42,158.00 1104.48,160.36 C1106.03,162.14 1106.05,165.27 1106.13,170.75 C1106.81,215.92 1106.90,236.16 1106.43,239.75 L 1105.88 244.00 L 1101.52 244.00 C1098.97,244.00 1097.00,243.49 1096.76,242.77 C1096.44,241.81 1094.56,241.81 1087.87,242.77 ZM 1128.76 206.25 L 1128.50 243.50 L 1124.34 243.80 C1122.05,243.97 1119.97,243.74 1119.70,243.30 C1119.33,242.68 1119.44,205.02 1119.96,161.75 C1120.00,158.00 1120.01,158.00 1124.30,158.00 C1126.67,158.00 1129.08,158.48 1129.67,159.07 C1130.41,159.81 1132.53,159.83 1136.62,159.14 C1151.84,156.57 1156.86,156.80 1159.08,160.18 C1159.39,160.66 1162.72,160.34 1166.47,159.47 C1170.23,158.60 1176.40,157.86 1180.19,157.82 C1180.96,157.82 1181.68,157.79 1182.35,157.77 C1184.82,157.70 1186.60,157.65 1187.86,158.42 C1191.08,160.39 1191.02,167.69 1190.82,193.51 C1190.80,196.26 1190.78,199.22 1190.76,202.41 L 1190.50 243.50 L 1181.50 243.50 L 1181.24 205.62 L 1180.98 167.74 L 1177.24 168.36 C1175.18,168.70 1170.69,168.98 1167.26,168.99 L 1161.02 169.00 L 1160.76 206.25 L 1160.50 243.50 L 1151.00 244.11 L 1151.00 167.73 L 1146.36 168.36 C1143.81,168.71 1138.86,169.00 1135.37,169.00 L 1129.02 169.00 ZM 1045.08 241.42 C1042.67,243.98 1042.54,244.00 1027.08,243.97 C1010.30,243.93 1008.93,243.57 1007.04,238.60 C1005.64,234.93 1005.65,168.80 1007.05,163.76 C1007.62,161.71 1008.94,159.57 1009.98,159.01 C1011.03,158.45 1018.96,158.00 1027.78,158.00 C1029.05,158.00 1030.23,157.99 1031.34,157.99 C1039.13,157.95 1043.16,157.94 1045.28,159.94 C1047.56,162.10 1047.62,166.59 1047.75,175.92 C1047.77,177.16 1047.79,178.48 1047.81,179.89 C1048.11,196.68 1048.01,197.71 1045.99,200.29 L 1043.85 203.00 L 1015.95 203.00 L 1016.22 218.25 L 1016.50 233.50 L 1037.50 233.50 L 1037.79 225.75 L 1038.08 218.00 L 1048.18 218.00 L 1047.84 228.42 C1047.53,237.83 1047.26,239.10 1045.08,241.42 ZM 792.76 205.25 L 792.50 243.50 L 786.75 243.80 L 781.00 244.10 L 781.00 155.00 L 786.30 155.00 C789.22,155.00 792.11,155.51 792.74,156.14 C793.59,156.99 796.12,156.99 802.76,156.14 C807.64,155.51 814.83,155.00 818.75,155.00 C825.24,155.00 826.03,155.23 827.94,157.65 C829.98,160.25 830.02,161.06 829.76,201.90 L 829.50 243.50 L 818.50 243.50 L 818.24 204.61 L 817.98 165.71 L 811.24 166.35 C807.53,166.70 801.92,166.99 798.76,166.99 L 793.02 167.00 ZM 979.01 112.00 L 978.50 243.50 L 972.75 243.80 L 967.00 244.10 L 967.00 112.07 L 956.75 111.78 L 946.50 111.50 L 946.20 105.87 L 945.91 100.23 L 972.95 100.08 L 1000.00 99.92 L 1000.00 112.00 ZM 630.01 112.00 L 629.50 243.50 L 623.75 243.80 L 618.00 244.10 L 618.00 112.00 L 596.90 112.00 L 597.20 106.25 L 597.50 100.50 L 651.00 99.97 L 651.00 112.00 ZM 758.76 171.70 L 758.50 243.50 L 753.24 243.80 C749.61,244.01 747.82,243.70 747.48,242.80 C747.21,242.09 747.10,209.77 747.24,171.00 L 747.50 100.50 L 753.26 100.20 L 759.01 99.90 ZM 389.44 371.78 C388.09,373.71 386.98,374.00 381.01,374.00 C373.03,374.00 371.00,372.67 371.00,367.43 C371.00,364.46 371.33,364.00 373.43,364.00 C375.35,364.00 375.94,364.59 376.18,366.75 C376.48,369.30 376.83,369.50 381.00,369.50 L 385.50 369.50 L 385.80 364.25 L 386.10 359.00 L 380.73 359.00 C376.24,359.00 374.95,358.57 372.92,356.42 C370.59,353.94 370.50,353.30 370.50,339.52 C370.50,321.19 370.61,321.02 382.62,321.20 L 391.00 321.32 L 391.00 345.44 C391.00,365.65 390.75,369.92 389.44,371.78 ZM 692.44 371.78 C691.09,373.70 689.98,374.00 684.10,374.00 C676.30,374.00 674.00,372.44 674.00,367.17 C674.00,364.48 674.37,364.00 676.43,364.00 C678.35,364.00 678.94,364.59 679.18,366.75 C679.48,369.30 679.83,369.50 684.00,369.50 L 688.50 369.50 L 689.10 359.00 L 684.19 359.00 C680.73,359.00 678.49,358.39 676.63,356.93 L 674.00 354.85 L 674.00 339.58 L 674.00 338.88 C674.00,328.62 674.00,324.25 676.15,322.41 C677.75,321.05 680.52,321.07 685.35,321.10 L 685.80 321.10 L 694.00 321.16 L 694.00 345.36 C694.00,365.64 693.75,369.91 692.44,371.78 ZM 1062.44 371.78 C1061.14,373.64 1059.96,374.00 1055.19,373.97 C1047.61,373.93 1046.00,372.88 1046.00,367.95 C1046.00,364.71 1046.35,364.00 1047.93,364.00 C1049.30,364.00 1049.96,364.81 1050.18,366.75 C1050.47,369.24 1050.88,369.50 1054.50,369.50 L 1058.50 369.50 L 1059.10 359.00 L 1054.73 359.00 C1051.32,359.00 1049.81,358.43 1047.92,356.42 C1045.64,354.00 1045.48,353.05 1045.18,340.15 C1044.88,327.42 1045.01,326.26 1046.99,323.74 C1048.98,321.21 1049.62,321.04 1056.56,321.11 L 1064.00 321.19 L 1064.00 345.37 C1064.00,365.64 1063.75,369.91 1062.44,371.78 ZM 1038.00 327.78 L 1038.00 358.55 L 1030.56 358.67 C1019.65,358.83 1019.50,358.57 1019.50,340.00 C1019.50,322.37 1020.00,321.28 1028.36,320.80 L 1033.50 320.50 L 1033.79 309.54 C1034.06,299.20 1034.65,297.07 1037.25,297.02 C1037.66,297.01 1038.00,310.85 1038.00,327.78 ZM 806.17 357.35 C803.95,359.36 791.10,359.70 789.20,357.80 C787.93,356.53 787.41,325.69 788.61,322.58 C789.09,321.31 790.87,321.00 797.57,321.00 C804.81,321.00 806.07,321.26 806.96,322.93 C807.55,324.03 808.00,331.57 808.00,340.28 C808.00,353.94 807.79,355.88 806.17,357.35 ZM 934.17 357.35 C931.95,359.36 919.10,359.70 917.20,357.80 C916.36,356.96 916.00,351.58 916.00,340.00 C916.00,328.42 916.36,323.04 917.20,322.20 C917.92,321.48 921.42,321.00 926.00,321.00 C930.58,321.00 934.08,321.48 934.80,322.20 C935.63,323.03 936.00,328.32 936.00,339.55 C936.00,353.92 935.80,355.87 934.17,357.35 ZM 360.90 357.62 C360.10,358.58 357.36,359.00 351.91,359.00 C345.18,359.00 343.92,358.73 343.04,357.07 C342.45,355.96 342.00,348.27 342.00,339.19 C342.00,326.73 342.31,322.99 343.40,322.08 C344.29,321.34 347.86,321.02 353.15,321.21 L 361.50 321.50 L 361.77 338.87 C361.96,350.83 361.69,356.67 360.90,357.62 ZM 502.17 357.35 C499.79,359.50 486.83,359.71 485.10,357.62 C484.31,356.67 484.04,350.83 484.23,338.87 L 484.50 321.50 L 492.85 321.21 C498.14,321.02 501.71,321.34 502.60,322.08 C503.70,322.99 504.00,326.77 504.00,339.47 C504.00,353.91 503.80,355.87 502.17,357.35 ZM 1074.75 233.44 C1075.35,234.07 1095.01,233.36 1095.63,232.69 C1095.72,232.58 1096.05,225.86 1096.36,217.75 L 1096.92 203.00 L 1074.00 203.00 L 1074.00 217.83 C1074.00,225.99 1074.34,233.02 1074.75,233.44 ZM 213.22 344.25 C212.96,358.02 212.82,359.00 211.03,359.00 C209.98,359.00 208.91,358.66 208.65,358.24 C208.39,357.82 208.25,343.98 208.34,327.49 L 208.50 297.50 L 210.72 297.18 C212.91,296.87 212.95,297.07 213.22,310.18 L 213.50 323.50 L 220.50 323.50 C226.01,323.50 227.52,323.18 227.60,322.00 C227.65,321.17 227.76,315.21 227.85,308.75 C227.99,297.72 228.12,297.00 230.00,297.00 C231.96,297.00 232.00,297.67 232.00,328.00 C232.00,358.33 231.96,359.00 230.00,359.00 C228.42,359.00 227.99,358.32 227.96,355.75 C227.93,353.96 227.82,347.33 227.71,341.00 L 227.50 329.50 L 213.50 329.50 ZM 864.57 354.39 C864.02,358.05 863.48,359.00 861.94,359.00 C860.06,359.00 860.00,358.01 860.00,328.00 C860.00,298.38 860.08,297.00 861.87,297.00 C864.23,297.00 865.13,303.04 864.44,314.25 C864.18,318.51 864.37,322.00 864.86,322.00 C865.35,322.00 867.11,318.74 868.77,314.75 C875.72,298.00 876.29,297.05 879.25,297.02 C880.76,297.01 882.00,297.21 882.00,297.47 C882.00,297.73 879.08,304.32 875.51,312.13 L 869.02 326.32 L 876.05 341.82 C882.98,357.09 883.48,359.62 879.42,358.84 C878.18,358.60 875.76,354.21 871.64,344.75 C868.35,337.19 865.35,331.00 864.97,331.00 C864.59,331.00 864.50,335.22 864.77,340.39 C865.04,345.55 864.95,351.85 864.57,354.39 ZM 1016.70 193.37 C1017.08,193.75 1021.92,193.94 1027.45,193.78 L 1037.50 193.50 L 1038.06 167.00 L 1016.00 167.00 L 1016.00 179.83 C1016.00,186.89 1016.31,192.98 1016.70,193.37 ZM 746.77 341.03 L 746.50 358.29 L 737.95 358.58 C733.24,358.73 728.84,358.52 728.16,358.10 C727.28,357.55 727.01,354.47 727.21,347.42 L 727.50 337.50 L 741.50 336.50 L 741.80 330.75 L 742.10 325.00 L 737.11 325.00 C732.22,325.00 732.12,325.06 731.81,328.25 C731.57,330.73 731.03,331.50 729.50,331.50 C727.90,331.50 727.44,330.73 727.19,327.68 C727.01,325.58 727.41,323.22 728.06,322.43 C729.70,320.46 744.27,320.42 745.90,322.38 C746.69,323.33 746.96,329.14 746.77,341.03 ZM 259.80 357.80 C259.07,358.53 255.54,359.00 250.84,359.00 C244.18,359.00 242.92,358.72 242.04,357.07 C240.53,354.24 240.67,323.73 242.20,322.20 C242.92,321.48 246.42,321.00 251.00,321.00 C255.58,321.00 259.08,321.48 259.80,322.20 C261.40,323.80 261.40,338.20 259.80,339.80 C259.12,340.48 255.86,341.00 252.25,341.00 L 245.91 341.00 L 246.20 347.75 L 246.50 354.50 L 250.32 354.81 C254.92,355.19 257.15,353.61 256.56,350.38 C256.21,348.41 256.55,348.00 258.57,348.00 C260.77,348.00 261.00,348.41 261.00,352.30 C261.00,354.67 260.46,357.14 259.80,357.80 ZM 663.80 357.80 C663.09,358.51 659.68,359.00 655.46,359.00 L 655.43 359.00 C651.31,359.00 648.82,359.00 647.31,357.78 C645.00,355.92 645.00,351.20 645.00,339.25 L 645.00 339.21 C645.00,338.52 645.00,337.87 645.00,337.23 C644.99,327.83 644.99,323.87 646.94,322.20 C648.37,320.98 650.83,320.99 655.10,321.00 C655.49,321.00 655.90,321.00 656.33,321.00 C662.21,321.00 663.91,321.34 664.39,322.58 C665.50,325.46 665.05,338.55 663.80,339.80 C663.12,340.48 659.86,341.00 656.25,341.00 L 649.91 341.00 L 650.20 347.75 L 650.50 354.50 L 655.50 354.50 C660.41,354.50 660.51,354.44 660.81,351.25 C661.05,348.81 661.61,348.00 663.06,348.00 C664.68,348.00 665.00,348.71 665.00,352.30 C665.00,354.67 664.46,357.14 663.80,357.80 ZM 307.17 357.35 C304.95,359.36 292.10,359.70 290.20,357.80 C288.52,356.12 288.52,323.88 290.20,322.20 C290.92,321.48 294.42,321.00 299.00,321.00 C303.58,321.00 307.08,321.48 307.80,322.20 C308.51,322.91 309.00,326.32 309.00,330.55 C309.00,339.58 307.73,341.00 299.67,341.00 L 294.00 341.00 L 294.00 355.11 L 298.75 354.80 C303.30,354.51 303.51,354.37 303.81,351.25 C304.07,348.56 304.55,348.00 306.56,348.00 C308.72,348.00 309.00,348.44 309.00,351.85 C309.00,354.30 308.34,356.29 307.17,357.35 ZM 473.80 357.80 C473.09,358.51 469.68,359.00 465.45,359.00 C455.03,359.00 455.00,358.95 455.00,339.74 L 455.00 338.76 C455.00,328.29 455.00,323.92 457.13,322.18 C458.66,320.93 461.28,321.03 465.77,321.19 C465.96,321.20 466.16,321.20 466.36,321.21 L 474.50 321.50 L 474.79 329.85 C474.98,335.14 474.66,338.71 473.92,339.60 C473.14,340.53 470.62,341.00 466.33,341.00 L 459.91 341.00 L 460.50 354.50 L 464.32 354.81 C468.78,355.18 471.00,353.71 471.00,350.38 C471.00,348.67 471.56,348.00 473.00,348.00 C474.69,348.00 475.00,348.67 475.00,352.30 C475.00,354.67 474.46,357.14 473.80,357.80 ZM 418.02 356.43 C417.09,358.89 416.70,359.00 409.22,359.00 C404.47,359.00 400.93,358.53 400.20,357.80 C398.52,356.12 398.52,323.88 400.20,322.20 C400.93,321.47 404.47,321.00 409.22,321.00 C416.70,321.00 417.09,321.11 418.02,323.57 C419.31,326.95 419.27,336.62 417.96,339.07 C417.09,340.69 415.83,341.00 409.96,341.00 L 403.00 341.00 L 403.02 346.75 C403.04,354.31 403.70,355.20 409.10,354.81 C413.26,354.52 413.52,354.32 413.81,351.25 C414.07,348.56 414.55,348.00 416.56,348.00 C418.59,348.00 419.00,348.49 419.00,350.93 C419.00,352.55 418.56,355.02 418.02,356.43 ZM 952.67 357.75 C951.48,359.64 950.06,359.25 949.03,356.75 C948.13,354.56 942.00,324.37 942.00,322.12 C942.00,321.50 942.85,321.00 943.89,321.00 C946.03,321.00 946.11,321.25 948.58,335.71 C949.55,341.32 950.65,345.72 951.03,345.48 C951.42,345.24 952.75,339.64 954.00,333.02 C955.87,323.06 956.56,321.00 958.02,321.00 C960.23,321.00 960.36,321.35 962.49,333.50 C964.34,344.03 965.53,346.87 966.43,342.89 C967.10,339.91 969.99,322.77 970.00,321.75 C970.00,321.34 971.06,321.00 972.35,321.00 L 974.70 321.00 L 971.29 339.25 C969.42,349.29 967.50,357.90 967.01,358.38 C964.78,360.63 963.31,357.78 961.57,347.86 C958.60,330.86 958.07,330.56 955.59,344.50 C954.42,351.10 953.11,357.06 952.67,357.75 ZM 1010.80 357.80 C1010.10,358.50 1006.77,359.00 1002.86,359.00 C993.31,359.00 993.00,358.41 993.00,340.34 C993.00,332.53 993.44,324.98 993.98,323.57 C994.91,321.11 995.29,321.00 1002.87,321.00 C1009.17,321.00 1010.91,321.32 1011.39,322.58 C1012.50,325.46 1012.05,338.55 1010.80,339.80 C1010.14,340.46 1006.97,341.00 1003.75,341.00 L 997.91 341.00 L 998.20 347.75 L 998.50 354.50 L 1001.82 354.82 C1005.79,355.20 1008.00,353.61 1008.00,350.38 C1008.00,348.67 1008.56,348.00 1010.00,348.00 C1011.69,348.00 1012.00,348.67 1012.00,352.30 C1012.00,354.67 1011.46,357.14 1010.80,357.80 ZM 182.80 357.80 C181.13,359.47 167.57,359.40 166.17,357.71 C165.52,356.92 165.01,349.79 164.88,339.62 C164.71,326.06 164.94,322.64 166.09,321.90 C166.86,321.40 171.10,321.10 175.50,321.24 L 183.50 321.50 L 183.79 330.42 C184.00,336.87 183.73,339.56 182.79,340.15 C182.08,340.60 178.67,340.98 175.20,340.98 L 168.91 341.00 L 169.20 347.75 L 169.50 354.50 L 174.50 354.50 C179.41,354.50 179.51,354.44 179.81,351.25 C180.05,348.81 180.61,348.00 182.06,348.00 C183.68,348.00 184.00,348.71 184.00,352.30 C184.00,354.67 183.46,357.14 182.80,357.80 ZM 140.77 342.24 C140.54,355.96 140.26,358.52 138.95,358.77 C138.10,358.94 137.09,358.75 136.70,358.37 C136.32,357.98 136.00,344.02 136.00,327.33 L 136.00 297.00 L 141.00 297.00 L 141.00 321.73 L 147.78 321.25 C153.03,320.87 154.84,321.10 155.80,322.26 C156.72,323.36 156.98,328.40 156.77,341.13 C156.50,358.29 156.47,358.50 154.25,358.82 L 152.00 359.14 L 152.00 324.74 L 148.25 325.36 C146.19,325.70 143.72,325.98 142.77,325.99 C141.22,326.00 141.02,327.64 140.77,342.24 ZM 1086.80 357.80 C1086.13,358.47 1082.90,359.00 1079.45,359.00 C1070.15,359.00 1070.00,358.69 1070.00,339.37 C1070.00,328.28 1070.37,323.03 1071.20,322.20 C1071.91,321.49 1075.33,321.00 1079.59,321.00 C1085.23,321.00 1086.92,321.34 1087.39,322.58 C1088.50,325.46 1088.05,338.55 1086.80,339.80 C1086.14,340.46 1083.21,341.00 1080.30,341.00 L 1075.00 341.00 L 1075.00 355.11 L 1079.25 354.81 C1083.24,354.52 1083.52,354.30 1083.81,351.25 C1084.05,348.81 1084.61,348.00 1086.06,348.00 C1087.68,348.00 1088.00,348.71 1088.00,352.30 C1088.00,354.67 1087.46,357.14 1086.80,357.80 ZM 1158.79 341.88 L 1158.50 358.27 L 1151.92 358.60 C1147.81,358.81 1144.89,358.49 1144.17,357.77 C1142.87,356.47 1142.55,340.26 1143.78,338.31 C1144.20,337.66 1146.78,336.99 1149.52,336.81 L 1154.50 336.50 L 1155.10 325.00 L 1151.11 325.00 C1147.35,325.00 1147.11,325.18 1146.81,328.25 C1146.61,330.33 1145.96,331.50 1145.00,331.50 C1143.13,331.50 1142.55,327.31 1143.93,323.69 C1144.89,321.15 1145.31,321.00 1151.46,321.00 C1157.37,321.00 1158.01,321.20 1158.52,323.25 C1158.82,324.49 1158.94,332.87 1158.79,341.88 ZM 1136.90 357.62 C1135.36,359.47 1125.64,359.47 1124.10,357.62 C1123.31,356.67 1123.04,350.83 1123.23,338.87 L 1123.50 321.50 L 1130.22 321.20 C1138.17,320.86 1138.28,321.02 1137.80,333.01 L 1137.50 340.50 L 1131.71 340.80 L 1125.91 341.10 L 1126.21 347.80 C1126.49,354.32 1126.58,354.51 1129.31,354.82 C1132.80,355.22 1135.00,353.50 1135.00,350.38 C1135.00,348.69 1135.56,348.00 1136.93,348.00 C1138.60,348.00 1138.81,348.57 1138.45,352.12 C1138.23,354.39 1137.53,356.86 1136.90,357.62 ZM 1167.77 342.24 C1167.53,356.78 1167.32,358.51 1165.75,358.81 C1164.13,359.12 1164.00,357.71 1164.00,340.26 L 1164.00 321.38 L 1190.50 321.50 L 1190.50 339.75 C1190.50,351.25 1190.13,358.00 1189.50,358.00 C1188.89,358.00 1188.39,351.91 1188.22,342.28 C1188.07,333.62 1187.62,326.23 1187.22,325.84 C1186.83,325.45 1184.93,325.46 1183.00,325.86 L 1179.50 326.58 L 1179.00 342.46 C1178.64,353.91 1178.15,358.45 1177.25,358.75 C1176.28,359.07 1176.00,355.40 1176.00,342.58 L 1176.00 326.00 L 1168.05 326.00 ZM 531.77 339.66 L 531.50 358.32 L 522.77 358.63 C515.02,358.91 513.93,358.74 513.02,357.04 C512.44,355.95 512.00,347.77 512.00,338.07 L 512.00 321.00 L 517.00 321.00 L 517.00 354.10 L 522.25 353.80 L 527.50 353.50 L 527.20 344.50 C527.03,339.55 527.18,332.24 527.53,328.25 C528.09,321.97 528.43,321.00 530.11,321.00 C531.96,321.00 532.03,321.78 531.77,339.66 ZM 431.77 342.25 C431.50,358.25 431.46,358.51 429.25,358.82 L 427.00 359.14 L 427.00 321.31 L 436.75 321.41 L 446.50 321.50 L 446.50 340.00 C446.50,357.83 446.43,358.50 444.50,358.50 C442.59,358.50 442.49,357.74 442.23,341.62 L 441.95 324.75 L 438.23 325.36 C436.18,325.70 433.95,325.98 433.27,325.99 C432.37,326.00 431.98,330.25 431.77,342.25 ZM 820.77 342.25 C820.50,358.25 820.46,358.51 818.25,358.82 L 816.00 359.14 L 816.00 321.26 L 825.75 321.38 L 835.50 321.50 L 835.50 340.00 C835.50,357.83 835.43,358.50 833.50,358.50 C831.59,358.50 831.49,357.74 831.23,341.64 L 830.95 324.78 L 828.73 325.38 C827.50,325.70 825.27,325.98 823.77,325.99 L 821.05 326.00 ZM 602.50 342.74 C602.32,358.05 602.25,358.51 600.16,358.82 C598.01,359.14 598.00,359.03 598.00,340.26 L 598.00 321.38 L 607.49 321.22 C616.52,321.07 617.00,321.17 617.52,323.28 C617.83,324.50 617.94,332.92 617.79,342.00 C617.51,357.74 617.41,358.50 615.50,358.50 C613.59,358.50 613.49,357.74 613.23,341.64 L 612.95 324.78 L 608.23 325.48 C605.63,325.87 603.32,326.36 603.10,326.58 C602.87,326.80 602.61,334.07 602.50,342.74 ZM 557.80 357.80 C556.21,359.39 542.79,359.39 541.20,357.80 C540.54,357.14 540.00,354.21 540.00,351.30 C540.00,346.35 540.16,346.00 542.44,346.00 C544.60,346.00 544.92,346.49 545.19,350.25 L 545.50 354.50 L 554.50 354.50 L 554.75 350.50 C555.00,346.65 554.73,346.27 547.50,340.19 L 540.00 333.87 L 540.00 328.64 C540.00,325.76 540.54,322.86 541.20,322.20 C541.93,321.47 545.46,321.00 550.18,321.00 C557.53,321.00 558.00,321.13 558.55,323.36 C559.55,327.32 558.67,332.50 557.00,332.50 C555.99,332.50 555.40,331.28 555.19,328.75 L 554.88 325.00 L 545.00 325.00 L 545.00 328.80 C545.00,332.29 545.57,333.07 552.00,338.36 L 559.00 344.12 L 559.00 350.36 C559.00,353.88 558.48,357.12 557.80,357.80 ZM 892.00 342.50 C892.00,358.33 891.92,359.00 890.00,359.00 C888.07,359.00 888.00,358.33 888.00,340.19 L 888.00 321.38 L 897.49 321.22 C906.52,321.07 907.00,321.17 907.52,323.28 C907.83,324.50 907.94,332.92 907.79,342.00 C907.51,357.74 907.41,358.50 905.50,358.50 C903.59,358.50 903.49,357.74 903.23,341.64 L 902.95 324.78 L 900.73 325.38 C899.50,325.70 897.04,325.98 895.25,325.99 L 892.00 326.00 ZM 120.77 330.29 C120.52,356.21 120.36,358.50 118.75,358.81 C117.12,359.12 117.00,357.25 117.00,330.57 L 117.00 302.00 L 112.00 302.00 C107.32,302.00 107.00,301.84 107.00,299.47 L 107.00 296.94 L 118.75 297.22 C129.74,297.48 130.50,297.63 130.50,299.50 C130.50,301.18 129.73,301.55 125.77,301.80 L 121.03 302.11 ZM 347.67 354.33 C348.89,355.56 355.74,355.02 356.91,353.61 C357.68,352.68 357.97,347.86 357.78,338.86 L 357.50 325.50 L 352.25 325.20 L 347.00 324.90 L 347.00 339.28 C347.00,347.19 347.30,353.97 347.67,354.33 ZM 377.22 353.44 C379.84,355.28 380.09,355.30 383.43,354.02 L 386.00 353.05 L 386.00 325.00 L 382.43 325.00 C375.30,325.00 375.00,325.58 375.00,339.48 C375.00,351.17 375.13,351.98 377.22,353.44 ZM 767.65 357.46 C766.74,359.84 759.36,359.54 758.04,357.07 C757.46,355.98 757.00,348.66 757.00,340.47 C757.00,326.65 756.89,325.78 755.00,325.29 C753.90,325.00 753.00,323.97 753.00,323.00 C753.00,322.03 753.90,321.00 755.00,320.71 C756.70,320.27 757.00,319.35 757.00,314.59 C757.00,309.29 757.13,309.00 759.50,309.00 C761.89,309.00 762.00,309.27 762.00,315.00 L 762.00 321.00 L 765.00 321.00 C767.33,321.00 768.00,321.44 768.00,323.00 C768.00,324.56 767.33,325.00 765.00,325.00 L 762.00 325.00 L 762.00 339.50 C762.00,347.48 762.34,354.03 762.75,354.08 C767.34,354.55 768.47,355.32 767.65,357.46 ZM 489.67 354.33 C490.61,355.28 496.24,355.13 497.83,354.13 C499.32,353.18 500.75,332.13 499.62,327.63 C499.02,325.23 498.53,325.00 493.98,325.00 L 489.00 325.00 L 489.00 339.33 C489.00,347.22 489.30,353.97 489.67,354.33 ZM 638.82 356.25 C638.55,358.11 637.78,358.55 634.31,358.80 C630.97,359.05 629.91,358.71 629.06,357.12 C628.45,355.97 628.00,348.80 628.00,340.07 C628.00,325.67 627.91,325.00 626.00,325.00 C624.71,325.00 624.00,324.33 624.00,323.12 C624.00,322.07 624.89,321.00 626.00,320.71 C627.70,320.27 628.00,319.35 628.00,314.59 C628.00,309.29 628.13,309.00 630.50,309.00 C632.89,309.00 633.00,309.27 633.00,315.00 L 633.00 321.00 L 636.00 321.00 C638.33,321.00 639.00,321.44 639.00,323.00 C639.00,324.56 638.33,325.00 636.00,325.00 L 633.00 325.00 L 633.00 354.00 L 636.07 354.00 C638.68,354.00 639.09,354.34 638.82,356.25 ZM 682.00 354.33 C682.83,354.63 684.62,354.80 686.00,354.69 L 688.50 354.50 L 689.05 325.00 L 684.73 325.00 C682.35,325.00 679.86,325.54 679.20,326.20 C678.40,327.00 678.00,331.31 678.00,339.01 C678.00,350.70 678.62,353.07 682.00,354.33 ZM 1113.77 330.30 C1113.52,356.12 1113.35,358.50 1111.77,358.81 C1110.16,359.12 1110.01,357.07 1109.77,330.82 L 1109.50 302.50 L 1105.69 302.19 C1102.42,301.92 1101.92,301.56 1102.19,299.69 C1102.48,297.63 1103.06,297.49 1111.81,297.34 C1120.82,297.18 1121.11,297.25 1120.81,299.34 C1120.58,300.96 1119.70,301.58 1117.27,301.81 L 1114.03 302.12 ZM 281.80 356.82 C281.59,357.96 280.29,358.60 277.80,358.81 C271.66,359.32 270.82,356.93 271.10,339.82 C271.34,325.80 271.30,325.49 269.17,325.18 C266.36,324.77 266.15,321.00 268.93,321.00 C271.25,321.00 272.26,318.28 271.82,313.23 C271.55,310.03 271.81,309.46 273.70,309.19 C275.72,308.90 275.92,309.35 276.20,314.69 C276.48,320.20 276.64,320.52 279.25,320.82 C281.19,321.04 282.00,321.70 282.00,323.07 C282.00,324.55 281.30,325.00 278.97,325.00 L 275.95 325.00 L 276.50 354.50 L 279.31 354.82 C281.31,355.05 282.03,355.63 281.80,356.82 ZM 921.71 354.38 C922.11,354.77 924.24,354.96 926.46,354.80 L 930.50 354.50 L 931.05 325.00 L 921.00 325.00 L 921.00 339.33 C921.00,347.22 921.32,353.99 921.71,354.38 ZM 793.46 353.76 C793.81,354.68 795.35,355.02 798.24,354.81 L 802.50 354.50 L 802.78 339.69 L 803.05 324.89 L 798.28 325.19 L 793.50 325.50 L 793.22 338.95 C793.07,346.35 793.17,353.01 793.46,353.76 ZM 588.50 297.50 L 588.50 358.50 L 584.00 359.14 L 584.00 296.86 ZM 1025.25 352.85 C1025.93,353.53 1028.07,353.96 1030.00,353.80 L 1033.50 353.50 L 1034.05 325.00 L 1030.23 325.00 C1028.12,325.00 1025.86,325.54 1025.20,326.20 C1023.50,327.90 1023.54,351.14 1025.25,352.85 ZM 321.77 341.74 C321.54,355.91 321.26,358.52 319.95,358.77 C319.10,358.94 318.09,358.75 317.70,358.37 C317.32,357.98 317.00,349.49 317.00,339.49 L 317.00 321.32 L 325.41 321.20 C335.32,321.05 336.25,321.72 335.81,328.67 C335.55,332.73 335.18,333.50 333.50,333.50 C331.86,333.50 331.44,332.73 331.19,329.25 L 330.89 325.00 L 322.05 325.00 ZM 1052.14 353.30 C1054.56,355.27 1059.56,355.24 1059.40,353.25 C1059.34,352.56 1059.23,345.90 1059.15,338.44 L 1059.00 324.89 L 1050.50 325.50 L 1050.21 338.50 C1049.94,350.88 1050.03,351.59 1052.14,353.30 ZM 706.12 357.75 C706.06,358.44 705.10,359.00 704.00,359.00 C702.07,359.00 702.00,358.33 702.00,340.09 L 702.00 321.19 L 710.75 321.34 L 719.50 321.50 L 720.39 325.11 C721.60,329.99 720.51,334.00 717.98,334.00 C716.30,334.00 716.00,333.32 716.00,329.45 L 716.00 324.89 L 711.25 325.20 L 706.50 325.50 L 706.37 341.00 C706.30,349.52 706.19,357.06 706.12,357.75 ZM 985.00 328.00 C985.00,358.33 984.96,359.00 983.00,359.00 C981.04,359.00 981.00,358.33 981.00,328.00 C981.00,297.67 981.04,297.00 983.00,297.00 C984.96,297.00 985.00,297.67 985.00,328.00 ZM 779.80 339.75 C779.50,358.33 779.48,358.50 777.25,358.82 L 775.00 359.14 L 775.00 321.00 L 780.10 321.00 ZM 731.71 353.38 C732.10,353.77 734.47,353.96 736.96,353.80 L 741.50 353.50 L 742.10 341.00 L 731.00 341.00 L 731.00 346.83 C731.00,350.04 731.32,352.99 731.71,353.38 ZM 246.00 325.00 L 246.00 337.10 L 251.25 336.80 L 256.50 336.50 L 257.10 325.00 ZM 169.71 336.38 C170.10,336.77 172.47,336.96 174.96,336.80 L 179.50 336.50 L 179.80 330.75 L 180.10 325.00 L 169.00 325.00 L 169.00 330.33 C169.00,333.27 169.32,335.99 169.71,336.38 ZM 460.71 336.38 C461.10,336.77 463.47,336.96 465.96,336.80 L 470.50 336.50 L 471.10 325.00 L 460.00 325.00 L 460.00 330.33 C460.00,333.27 460.32,335.99 460.71,336.38 ZM 650.67 336.33 C651.64,337.31 659.79,337.15 660.41,336.14 C660.70,335.67 660.67,332.97 660.33,330.14 L 659.72 325.00 L 650.00 325.00 L 650.00 330.33 C650.00,333.27 650.30,335.97 650.67,336.33 ZM 294.00 325.00 L 294.00 337.11 L 298.75 336.80 L 303.50 336.50 L 304.10 325.00 ZM 403.43 335.67 C403.83,336.71 405.31,337.03 408.74,336.81 L 413.50 336.50 L 413.50 325.50 L 403.50 325.50 L 403.19 329.86 C403.01,332.26 403.12,334.88 403.43,335.67 ZM 998.71 336.38 C999.11,336.77 1001.24,336.96 1003.46,336.80 L 1007.50 336.50 L 1007.80 330.75 L 1008.10 325.00 L 998.00 325.00 L 998.00 330.33 C998.00,333.27 998.32,335.99 998.71,336.38 ZM 1075.00 325.00 L 1075.00 337.11 L 1083.50 336.50 L 1084.10 325.00 ZM 1126.71 336.38 C1127.11,336.77 1129.02,336.96 1130.96,336.80 L 1134.50 336.50 L 1135.10 325.00 L 1126.00 325.00 L 1126.00 330.33 C1126.00,333.27 1126.32,335.99 1126.71,336.38 ZM 1147.00 341.00 L 1147.00 354.12 L 1154.50 353.50 L 1155.10 341.00 ZM 778.24 312.46 C775.56,313.49 775.00,312.98 775.00,309.50 C775.00,306.74 775.40,306.00 776.89,306.00 C779.25,306.00 780.43,311.62 778.24,312.46 Z" fill="rgb(6,6,6)"/>
<path d="M 476.50 133.34 C472.55,135.48 471.83,135.50 413.50,135.72 C365.62,135.90 353.78,135.69 350.70,134.57 C343.81,132.09 339.38,128.40 336.62,122.87 C330.85,111.29 335.08,97.75 346.35,91.72 L 350.50 89.50 L 412.00 89.50 C473.38,89.50 473.51,89.50 477.59,91.69 C494.32,100.64 493.70,124.06 476.50,133.34 ZM 645.00 337.23 C645.00,337.81 645.00,338.41 645.00,339.03 C645.00,338.41 645.00,337.81 645.00,337.23 C645.00,336.61 645.00,336.01 645.00,335.44 C645.00,336.01 645.00,336.61 645.00,337.23 Z" fill="rgb(38,49,67)"/>
<path d="M 276.50 187.13 C265.50,187.10 233.55,187.17 205.50,187.29 C144.76,187.54 123.91,186.97 119.00,184.90 C114.08,182.82 109.00,177.97 109.00,175.33 C109.00,174.11 108.03,172.44 106.85,171.61 C104.95,170.28 104.78,169.47 105.29,164.45 C105.61,161.34 106.61,157.98 107.51,156.98 C108.41,155.99 109.24,154.57 109.35,153.84 C109.69,151.59 111.04,150.00 112.61,150.00 C113.43,150.00 115.16,148.86 116.45,147.46 C118.28,145.49 119.40,145.06 121.42,145.57 C122.85,145.93 124.58,145.78 125.26,145.24 C125.97,144.68 140.36,143.99 159.00,143.61 C202.12,142.75 492.04,142.69 494.27,143.55 C495.22,143.92 497.24,143.85 498.75,143.41 C502.24,142.39 543.00,142.24 543.00,143.25 C543.00,143.66 543.84,144.00 544.86,144.00 C548.71,144.00 559.38,154.21 558.98,157.50 C558.94,157.78 559.20,159.57 559.56,161.47 C560.88,168.53 555.17,182.51 550.55,183.50 C549.42,183.74 545.58,184.60 542.00,185.41 C536.58,186.63 521.08,186.90 448.50,187.00 C400.65,187.08 359.70,187.10 357.50,187.05 C355.30,187.01 342.48,187.05 329.00,187.14 C315.52,187.23 302.70,187.28 300.50,187.25 C298.30,187.22 287.50,187.17 276.50,187.13 ZM 119.00 154.47 C119.00,156.36 120.05,156.41 122.46,154.65 C123.79,153.68 123.97,153.10 123.10,152.56 C121.42,151.52 119.00,152.64 119.00,154.47 Z" fill="rgb(61,146,219)"/>
<path d="M 276.50 187.13 C287.50,187.17 298.30,187.22 300.50,187.25 C302.70,187.28 315.52,187.23 329.00,187.14 C342.48,187.05 355.30,187.01 357.50,187.05 C359.70,187.10 400.65,187.08 448.50,187.00 C521.08,186.90 536.58,186.63 542.00,185.41 C545.58,184.60 549.42,183.74 550.55,183.50 C555.17,182.51 560.88,168.53 559.56,161.47 C559.20,159.57 558.94,157.78 558.98,157.50 C559.38,154.21 548.71,144.00 544.86,144.00 C543.96,144.00 543.20,143.74 543.03,143.39 C549.51,143.68 550.50,144.10 551.64,144.68 C556.92,147.41 561.59,153.83 563.05,160.35 C565.37,170.70 560.70,181.15 551.29,186.68 L 546.50 189.50 L 335.00 189.71 C321.37,189.72 308.60,189.74 296.63,189.75 C126.91,189.94 118.80,189.95 114.10,185.95 C113.54,185.47 113.02,184.93 112.27,184.33 C98.95,173.52 101.95,150.95 117.59,144.40 C120.08,143.36 162.13,143.07 334.23,142.90 C422.67,142.82 474.50,142.77 505.14,142.89 C501.85,143.02 499.48,143.20 498.75,143.41 C497.24,143.85 495.22,143.92 494.27,143.55 C492.04,142.69 202.12,142.75 159.00,143.61 C140.36,143.99 125.97,144.68 125.26,145.24 C124.58,145.78 122.85,145.93 121.42,145.57 C119.40,145.06 118.28,145.49 116.45,147.46 C115.16,148.86 113.43,150.00 112.61,150.00 C111.04,150.00 109.69,151.59 109.35,153.84 C109.24,154.57 108.41,155.99 107.51,156.98 C106.61,157.98 105.61,161.34 105.29,164.45 C104.78,169.47 104.95,170.28 106.85,171.61 C108.03,172.44 109.00,174.11 109.00,175.33 C109.00,177.97 114.08,182.82 119.00,184.90 C123.91,186.97 144.76,187.54 205.50,187.29 C233.55,187.17 265.50,187.10 276.50,187.13 ZM 119.00 154.47 C119.00,152.64 121.42,151.52 123.10,152.56 C123.97,153.10 123.79,153.68 122.46,154.65 C120.05,156.41 119.00,156.36 119.00,154.47 Z" fill="rgb(65,143,208)"/>
<path d="M 231.12 134.98 C225.59,136.52 201.26,136.18 196.56,134.51 C177.69,127.79 174.91,101.61 192.04,92.00 C196.34,89.59 197.15,89.50 214.58,89.50 L 232.66 89.50 L 237.58 92.50 C248.05,98.90 251.21,113.66 244.44,124.60 C241.13,129.96 236.65,133.45 231.12,134.98 ZM 549.78 133.45 C546.97,134.62 542.33,135.00 530.74,135.00 L 515.41 135.00 L 510.00 131.75 C495.84,123.25 495.15,103.16 508.67,93.01 L 513.32 89.52 L 527.85 89.14 C546.15,88.67 551.24,89.70 556.73,94.98 C568.56,106.34 564.80,127.17 549.78,133.45 Z" fill="rgb(82,159,37)"/>
<path d="M 310.50 242.13 C307.20,243.63 303.95,243.95 292.00,243.93 C282.47,243.92 276.21,243.45 273.75,242.57 C257.77,236.87 252.81,215.39 264.77,203.73 C270.91,197.75 273.90,197.00 291.65,197.00 C305.55,197.00 307.87,197.24 311.69,199.09 C316.95,201.64 321.43,206.88 323.47,212.87 C325.49,218.81 325.40,221.86 323.00,228.27 C320.66,234.53 316.12,239.56 310.50,242.13 Z" fill="rgb(116,115,115)"/>
<path d="M 436.12 242.98 C433.96,243.58 416.40,243.97 392.50,243.94 C347.63,243.88 347.55,243.87 340.15,236.65 C336.15,232.74 333.00,225.38 333.00,219.92 C333.00,215.27 336.76,206.63 340.25,203.25 C341.47,202.07 342.46,201.11 343.57,200.33 C348.35,197.00 355.45,197.00 393.28,197.00 L 393.50 197.00 C426.93,197.00 436.75,197.29 439.28,198.35 C444.30,200.45 449.70,207.14 451.57,213.59 C453.55,220.42 453.03,224.58 449.26,231.97 C446.28,237.80 442.07,241.33 436.12,242.98 Z" fill="rgb(123,160,195)"/>
<path d="M 232.38 242.78 C226.58,244.50 200.65,244.32 195.61,242.53 C193.47,241.76 189.77,239.23 187.39,236.89 C178.20,227.87 177.56,214.55 185.85,204.86 C191.82,197.89 194.92,197.04 214.50,197.04 C228.94,197.04 232.10,197.32 235.50,198.90 C245.67,203.60 250.43,216.07 246.78,228.38 C245.17,233.80 237.80,241.17 232.38,242.78 Z" fill="rgb(185,142,9)"/>
<path d="M 158.22 240.87 C154.35,242.80 152.39,242.99 137.22,242.92 C121.52,242.85 120.21,242.69 115.80,240.40 C107.66,236.17 103.42,227.82 104.24,217.63 C104.90,209.39 108.24,204.05 115.25,200.03 L 120.50 197.02 L 137.00 197.03 C150.81,197.04 154.15,197.34 157.51,198.86 C166.88,203.12 171.32,213.32 169.23,225.76 C167.99,233.12 164.70,237.63 158.22,240.87 Z" fill="rgb(202,209,187)"/>
<path d="M 551.58 240.84 L 547.50 243.50 L 514.50 243.73 C488.70,243.91 480.68,243.67 477.76,242.60 C467.38,238.83 462.00,230.93 462.00,219.47 C462.00,210.29 466.34,203.06 474.50,198.66 C478.30,196.61 480.01,196.48 508.50,196.17 C543.81,195.78 547.27,196.08 553.38,200.13 C562.09,205.90 565.74,216.34 562.57,226.42 C560.51,232.96 557.38,237.07 551.58,240.84 ZM 156.78 82.45 C153.97,83.62 149.34,84.00 137.78,83.99 C123.82,83.98 122.07,83.78 117.50,81.62 C111.54,78.81 108.83,76.05 106.08,70.00 C102.38,61.83 104.20,50.71 110.31,44.15 C115.25,38.86 119.41,37.71 135.50,37.22 C152.39,36.71 156.55,37.44 162.93,42.07 C168.37,46.01 171.12,52.05 171.24,60.32 C171.37,69.97 165.63,78.76 156.78,82.45 ZM 155.60 134.53 C150.29,136.10 126.65,136.48 121.99,135.07 C114.63,132.83 110.08,129.13 106.58,122.55 C100.29,110.73 105.53,96.46 118.14,91.04 C122.85,89.01 124.56,88.86 139.46,89.17 C155.49,89.50 155.72,89.53 160.56,92.53 C166.65,96.29 170.83,102.80 171.66,109.77 C172.17,114.12 171.84,115.83 169.50,120.71 C165.69,128.67 161.58,132.75 155.60,134.53 Z" fill="rgb(226,87,8)"/>
<path d="M 0.00 201.00 L 0.00 0.00 L 627.00 0.00 L 1254.00 0.00 L 1254.00 201.00 L 1254.00 402.00 L 627.00 402.00 L 0.00 402.00 L 0.00 201.00 ZM 389.44 371.78 C390.75,369.92 391.00,365.65 391.00,345.44 L 391.00 321.32 L 382.62 321.20 C370.61,321.02 370.50,321.19 370.50,339.52 C370.50,353.30 370.59,353.94 372.92,356.42 C374.95,358.57 376.24,359.00 380.73,359.00 L 386.10 359.00 L 385.80 364.25 L 385.50 369.50 L 381.00 369.50 C376.83,369.50 376.48,369.30 376.18,366.75 C375.94,364.59 375.35,364.00 373.43,364.00 C371.33,364.00 371.00,364.46 371.00,367.43 C371.00,372.67 373.03,374.00 381.01,374.00 C386.98,374.00 388.09,373.71 389.44,371.78 ZM 692.44 371.78 C693.75,369.91 694.00,365.64 694.00,345.36 L 694.00 321.16 L 685.80 321.10 C673.85,321.02 674.00,320.78 674.00,339.58 L 674.00 354.85 L 676.63 356.93 C678.49,358.39 680.73,359.00 684.19,359.00 L 689.10 359.00 L 688.80 364.25 L 688.50 369.50 L 684.00 369.50 C679.83,369.50 679.48,369.30 679.18,366.75 C678.94,364.59 678.35,364.00 676.43,364.00 C674.37,364.00 674.00,364.48 674.00,367.17 C674.00,372.44 676.30,374.00 684.10,374.00 C689.98,374.00 691.09,373.70 692.44,371.78 ZM 1062.44 371.78 C1063.75,369.91 1064.00,365.64 1064.00,345.37 L 1064.00 321.19 L 1056.56 321.11 C1049.62,321.04 1048.98,321.21 1046.99,323.74 C1045.01,326.26 1044.88,327.42 1045.18,340.15 C1045.48,353.05 1045.64,354.00 1047.92,356.42 C1049.81,358.43 1051.32,359.00 1054.73,359.00 L 1059.10 359.00 L 1058.80 364.25 L 1058.50 369.50 L 1054.50 369.50 C1050.88,369.50 1050.47,369.24 1050.18,366.75 C1049.96,364.81 1049.30,364.00 1047.93,364.00 C1046.35,364.00 1046.00,364.71 1046.00,367.95 C1046.00,372.88 1047.61,373.93 1055.19,373.97 C1059.96,374.00 1061.14,373.64 1062.44,371.78 ZM 120.77 330.29 L 121.03 302.11 L 125.77 301.80 C129.73,301.55 130.50,301.18 130.50,299.50 C130.50,297.63 129.74,297.48 118.75,297.22 L 107.00 296.94 L 107.00 299.47 C107.00,301.84 107.32,302.00 112.00,302.00 L 117.00 302.00 L 117.00 330.57 C117.00,357.25 117.12,359.12 118.75,358.81 C120.36,358.50 120.52,356.21 120.77,330.29 ZM 140.77 342.24 C141.02,327.64 141.22,326.00 142.77,325.99 C143.72,325.98 146.19,325.70 148.25,325.36 L 152.00 324.74 L 152.00 341.94 L 152.00 359.14 L 154.25 358.82 C156.47,358.50 156.50,358.29 156.77,341.13 C156.98,328.40 156.72,323.36 155.80,322.26 C154.84,321.10 153.03,320.87 147.78,321.25 L 141.00 321.73 L 141.00 309.37 L 141.00 297.00 L 138.50 297.00 L 136.00 297.00 L 136.00 327.33 C136.00,344.02 136.32,357.98 136.70,358.37 C137.09,358.75 138.10,358.94 138.95,358.77 C140.26,358.52 140.54,355.96 140.77,342.24 ZM 182.80 357.80 C183.46,357.14 184.00,354.67 184.00,352.30 C184.00,348.71 183.68,348.00 182.06,348.00 C180.61,348.00 180.05,348.81 179.81,351.25 C179.51,354.44 179.41,354.50 174.50,354.50 L 169.50 354.50 L 169.20 347.75 L 168.91 341.00 L 175.20 340.98 C178.67,340.98 182.08,340.60 182.79,340.15 C183.73,339.56 184.00,336.87 183.79,330.42 L 183.50 321.50 L 175.50 321.24 C171.10,321.10 166.86,321.40 166.09,321.90 C164.94,322.64 164.71,326.06 164.88,339.62 C165.01,349.79 165.52,356.92 166.17,357.71 C167.57,359.40 181.13,359.47 182.80,357.80 ZM 213.22 344.25 L 213.50 329.50 L 220.50 329.50 L 227.50 329.50 L 227.71 341.00 C227.82,347.33 227.93,353.96 227.96,355.75 C227.99,358.32 228.42,359.00 230.00,359.00 C231.96,359.00 232.00,358.33 232.00,328.00 C232.00,297.67 231.96,297.00 230.00,297.00 C228.12,297.00 227.99,297.72 227.85,308.75 C227.76,315.21 227.65,321.17 227.60,322.00 C227.52,323.18 226.01,323.50 220.50,323.50 L 213.50 323.50 L 213.22 310.18 C212.95,297.07 212.91,296.87 210.72,297.18 L 208.50 297.50 L 208.34 327.49 C208.25,343.98 208.39,357.82 208.65,358.24 C208.91,358.66 209.98,359.00 211.03,359.00 C212.82,359.00 212.96,358.02 213.22,344.25 ZM 259.80 357.80 C260.46,357.14 261.00,354.67 261.00,352.30 C261.00,348.41 260.77,348.00 258.57,348.00 C256.55,348.00 256.21,348.41 256.56,350.38 C257.15,353.61 254.92,355.19 250.32,354.81 L 246.50 354.50 L 246.20 347.75 L 245.91 341.00 L 252.25 341.00 C255.86,341.00 259.12,340.48 259.80,339.80 C261.40,338.20 261.40,323.80 259.80,322.20 C259.08,321.48 255.58,321.00 251.00,321.00 C246.42,321.00 242.92,321.48 242.20,322.20 C240.67,323.73 240.53,354.24 242.04,357.07 C242.92,358.72 244.18,359.00 250.84,359.00 C255.54,359.00 259.07,358.53 259.80,357.80 ZM 281.80 356.82 C282.03,355.63 281.31,355.05 279.31,354.82 L 276.50 354.50 L 276.22 339.75 L 275.95 325.00 L 278.97 325.00 C281.30,325.00 282.00,324.55 282.00,323.07 C282.00,321.70 281.19,321.04 279.25,320.82 C276.64,320.52 276.48,320.20 276.20,314.69 C275.92,309.35 275.72,308.90 273.70,309.19 C271.81,309.46 271.55,310.03 271.82,313.23 C272.26,318.28 271.25,321.00 268.93,321.00 C266.15,321.00 266.36,324.77 269.17,325.18 C271.30,325.49 271.34,325.80 271.10,339.82 C270.82,356.93 271.66,359.32 277.80,358.81 C280.29,358.60 281.59,357.96 281.80,356.82 ZM 307.17 357.35 C308.34,356.29 309.00,354.30 309.00,351.85 C309.00,348.44 308.72,348.00 306.56,348.00 C304.55,348.00 304.07,348.56 303.81,351.25 C303.51,354.37 303.30,354.51 298.75,354.80 L 294.00 355.11 L 294.00 348.05 L 294.00 341.00 L 299.67 341.00 C307.73,341.00 309.00,339.58 309.00,330.55 C309.00,326.32 308.51,322.91 307.80,322.20 C307.08,321.48 303.58,321.00 299.00,321.00 C294.42,321.00 290.92,321.48 290.20,322.20 C288.52,323.88 288.52,356.12 290.20,357.80 C292.10,359.70 304.95,359.36 307.17,357.35 ZM 321.77 341.74 L 322.05 325.00 L 326.47 325.00 L 330.89 325.00 L 331.19 329.25 C331.44,332.73 331.86,333.50 333.50,333.50 C335.18,333.50 335.55,332.73 335.81,328.67 C336.25,321.72 335.32,321.05 325.41,321.20 L 317.00 321.32 L 317.00 339.49 C317.00,349.49 317.32,357.98 317.70,358.37 C318.09,358.75 319.10,358.94 319.95,358.77 C321.26,358.52 321.54,355.91 321.77,341.74 ZM 360.90 357.62 C361.69,356.67 361.96,350.83 361.77,338.87 L 361.50 321.50 L 353.15 321.21 C347.86,321.02 344.29,321.34 343.40,322.08 C342.31,322.99 342.00,326.73 342.00,339.19 C342.00,348.27 342.45,355.96 343.04,357.07 C343.92,358.73 345.18,359.00 351.91,359.00 C357.36,359.00 360.10,358.58 360.90,357.62 ZM 418.02 356.43 C418.56,355.02 419.00,352.55 419.00,350.93 C419.00,348.49 418.59,348.00 416.56,348.00 C414.55,348.00 414.07,348.56 413.81,351.25 C413.52,354.32 413.26,354.52 409.10,354.81 C403.70,355.20 403.04,354.31 403.02,346.75 L 403.00 341.00 L 409.96 341.00 C415.83,341.00 417.09,340.69 417.96,339.07 C419.27,336.62 419.31,326.95 418.02,323.57 C417.09,321.11 416.70,321.00 409.22,321.00 C404.47,321.00 400.93,321.47 400.20,322.20 C398.52,323.88 398.52,356.12 400.20,357.80 C400.93,358.53 404.47,359.00 409.22,359.00 C416.70,359.00 417.09,358.89 418.02,356.43 ZM 431.77 342.25 C431.98,330.25 432.37,326.00 433.27,325.99 C433.95,325.98 436.18,325.70 438.23,325.36 L 441.95 324.75 L 442.23 341.62 C442.49,357.74 442.59,358.50 444.50,358.50 C446.43,358.50 446.50,357.83 446.50,340.00 L 446.50 321.50 L 436.75 321.41 L 427.00 321.31 L 427.00 340.23 L 427.00 359.14 L 429.25 358.82 C431.46,358.51 431.50,358.25 431.77,342.25 ZM 473.80 357.80 C474.46,357.14 475.00,354.67 475.00,352.30 C475.00,348.67 474.69,348.00 473.00,348.00 C471.56,348.00 471.00,348.67 471.00,350.38 C471.00,353.71 468.78,355.18 464.32,354.81 L 460.50 354.50 L 460.20 347.75 L 459.91 341.00 L 466.33 341.00 C470.62,341.00 473.14,340.53 473.92,339.60 C474.66,338.71 474.98,335.14 474.79,329.85 L 474.50 321.50 L 466.36 321.21 C454.80,320.80 455.00,320.47 455.00,339.74 C455.00,358.95 455.03,359.00 465.45,359.00 C469.68,359.00 473.09,358.51 473.80,357.80 ZM 502.17 357.35 C503.80,355.87 504.00,353.91 504.00,339.47 C504.00,326.77 503.70,322.99 502.60,322.08 C501.71,321.34 498.14,321.02 492.85,321.21 L 484.50 321.50 L 484.23 338.87 C484.04,350.83 484.31,356.67 485.10,357.62 C486.83,359.71 499.79,359.50 502.17,357.35 ZM 531.77 339.66 C532.03,321.78 531.96,321.00 530.11,321.00 C528.43,321.00 528.09,321.97 527.53,328.25 C527.18,332.24 527.03,339.55 527.20,344.50 L 527.50 353.50 L 522.25 353.80 L 517.00 354.10 L 517.00 337.55 L 517.00 321.00 L 514.50 321.00 L 512.00 321.00 L 512.00 338.07 C512.00,347.77 512.44,355.95 513.02,357.04 C513.93,358.74 515.02,358.91 522.77,358.63 L 531.50 358.32 L 531.77 339.66 ZM 557.80 357.80 C558.48,357.12 559.00,353.88 559.00,350.36 L 559.00 344.12 L 552.00 338.36 C545.57,333.07 545.00,332.29 545.00,328.80 L 545.00 325.00 L 549.94 325.00 L 554.88 325.00 L 555.19 328.75 C555.40,331.28 555.99,332.50 557.00,332.50 C558.67,332.50 559.55,327.32 558.55,323.36 C558.00,321.13 557.53,321.00 550.18,321.00 C545.46,321.00 541.93,321.47 541.20,322.20 C540.54,322.86 540.00,325.76 540.00,328.64 L 540.00 333.87 L 547.50 340.19 C554.73,346.27 555.00,346.65 554.75,350.50 L 554.50 354.50 L 550.00 354.50 L 545.50 354.50 L 545.19 350.25 C544.92,346.49 544.60,346.00 542.44,346.00 C540.16,346.00 540.00,346.35 540.00,351.30 C540.00,354.21 540.54,357.14 541.20,357.80 C542.79,359.39 556.21,359.39 557.80,357.80 ZM 588.50 328.00 L 588.50 297.50 L 586.25 297.18 L 584.00 296.86 L 584.00 328.00 L 584.00 359.14 L 586.25 358.82 L 588.50 358.50 L 588.50 328.00 ZM 602.50 342.74 C602.61,334.07 602.87,326.80 603.10,326.58 C603.32,326.36 605.63,325.87 608.23,325.48 L 612.95 324.78 L 613.23 341.64 C613.49,357.74 613.59,358.50 615.50,358.50 C617.41,358.50 617.51,357.74 617.79,342.00 C617.94,332.92 617.83,324.50 617.52,323.28 C617.00,321.17 616.52,321.07 607.49,321.22 L 598.00 321.38 L 598.00 340.26 C598.00,359.03 598.01,359.14 600.16,358.82 C602.25,358.51 602.32,358.05 602.50,342.74 ZM 638.82 356.25 C639.09,354.34 638.68,354.00 636.07,354.00 L 633.00 354.00 L 633.00 339.50 L 633.00 325.00 L 636.00 325.00 C638.33,325.00 639.00,324.56 639.00,323.00 C639.00,321.44 638.33,321.00 636.00,321.00 L 633.00 321.00 L 633.00 315.00 C633.00,309.27 632.89,309.00 630.50,309.00 C628.13,309.00 628.00,309.29 628.00,314.59 C628.00,319.35 627.70,320.27 626.00,320.71 C624.89,321.00 624.00,322.07 624.00,323.12 C624.00,324.33 624.71,325.00 626.00,325.00 C627.91,325.00 628.00,325.67 628.00,340.07 C628.00,348.80 628.45,355.97 629.06,357.12 C629.91,358.71 630.97,359.05 634.31,358.80 C637.78,358.55 638.55,358.11 638.82,356.25 ZM 663.80 357.80 C664.46,357.14 665.00,354.67 665.00,352.30 C665.00,348.71 664.68,348.00 663.06,348.00 C661.61,348.00 661.05,348.81 660.81,351.25 C660.51,354.44 660.41,354.50 655.50,354.50 L 650.50 354.50 L 650.20 347.75 L 649.91 341.00 L 656.25 341.00 C659.86,341.00 663.12,340.48 663.80,339.80 C665.05,338.55 665.50,325.46 664.39,322.58 C663.91,321.34 662.21,321.00 656.33,321.00 C644.56,321.00 645.00,320.29 645.00,339.21 C645.00,359.02 644.99,359.00 655.46,359.00 C659.68,359.00 663.09,358.51 663.80,357.80 ZM 706.12 357.75 C706.19,357.06 706.30,349.52 706.37,341.00 L 706.50 325.50 L 711.25 325.20 L 716.00 324.89 L 716.00 329.45 C716.00,333.32 716.30,334.00 717.98,334.00 C720.51,334.00 721.60,329.99 720.39,325.11 L 719.50 321.50 L 710.75 321.34 L 702.00 321.19 L 702.00 340.09 C702.00,358.33 702.07,359.00 704.00,359.00 C705.10,359.00 706.06,358.44 706.12,357.75 ZM 746.77 341.03 C746.96,329.14 746.69,323.33 745.90,322.38 C744.27,320.42 729.70,320.46 728.06,322.43 C727.41,323.22 727.01,325.58 727.19,327.68 C727.44,330.73 727.90,331.50 729.50,331.50 C731.03,331.50 731.57,330.73 731.81,328.25 C732.12,325.06 732.22,325.00 737.11,325.00 L 742.10 325.00 L 741.80 330.75 L 741.50 336.50 L 734.50 337.00 L 727.50 337.50 L 727.21 347.42 C727.01,354.47 727.28,357.55 728.16,358.10 C728.84,358.52 733.24,358.73 737.95,358.58 L 746.50 358.29 L 746.77 341.03 ZM 767.65 357.46 C768.47,355.32 767.34,354.55 762.75,354.08 C762.34,354.03 762.00,347.48 762.00,339.50 L 762.00 325.00 L 765.00 325.00 C767.33,325.00 768.00,324.56 768.00,323.00 C768.00,321.44 767.33,321.00 765.00,321.00 L 762.00 321.00 L 762.00 315.00 C762.00,309.27 761.89,309.00 759.50,309.00 C757.13,309.00 757.00,309.29 757.00,314.59 C757.00,319.35 756.70,320.27 755.00,320.71 C753.90,321.00 753.00,322.03 753.00,323.00 C753.00,323.97 753.90,325.00 755.00,325.29 C756.89,325.78 757.00,326.65 757.00,340.47 C757.00,348.66 757.46,355.98 758.04,357.07 C759.36,359.54 766.74,359.84 767.65,357.46 ZM 779.80 339.75 L 780.10 321.00 L 777.55 321.00 L 775.00 321.00 L 775.00 340.07 L 775.00 359.14 L 777.25 358.82 C779.48,358.50 779.50,358.33 779.80,339.75 ZM 806.17 357.35 C807.79,355.88 808.00,353.94 808.00,340.28 C808.00,331.57 807.55,324.03 806.96,322.93 C806.07,321.26 804.81,321.00 797.57,321.00 C790.87,321.00 789.09,321.31 788.61,322.58 C787.41,325.69 787.93,356.53 789.20,357.80 C791.10,359.70 803.95,359.36 806.17,357.35 ZM 820.77 342.25 L 821.05 326.00 L 823.77 325.99 C825.27,325.98 827.50,325.70 828.73,325.38 L 830.95 324.78 L 831.23 341.64 C831.49,357.74 831.59,358.50 833.50,358.50 C835.43,358.50 835.50,357.83 835.50,340.00 L 835.50 321.50 L 825.75 321.38 L 816.00 321.26 L 816.00 340.20 L 816.00 359.14 L 818.25 358.82 C820.46,358.51 820.50,358.25 820.77,342.25 ZM 864.57 354.39 C864.95,351.85 865.04,345.55 864.77,340.39 C864.50,335.22 864.59,331.00 864.97,331.00 C865.35,331.00 868.35,337.19 871.64,344.75 C875.76,354.21 878.18,358.60 879.42,358.84 C883.48,359.62 882.98,357.09 876.05,341.82 L 869.02 326.32 L 875.51 312.13 C879.08,304.32 882.00,297.73 882.00,297.47 C882.00,297.21 880.76,297.01 879.25,297.02 C876.29,297.05 875.72,298.00 868.77,314.75 C867.11,318.74 865.35,322.00 864.86,322.00 C864.37,322.00 864.18,318.51 864.44,314.25 C865.13,303.04 864.23,297.00 861.87,297.00 C860.08,297.00 860.00,298.38 860.00,328.00 C860.00,358.01 860.06,359.00 861.94,359.00 C863.48,359.00 864.02,358.05 864.57,354.39 ZM 892.00 342.50 L 892.00 326.00 L 895.25 325.99 C897.04,325.98 899.50,325.70 900.73,325.38 L 902.95 324.78 L 903.23 341.64 C903.49,357.74 903.59,358.50 905.50,358.50 C907.41,358.50 907.51,357.74 907.79,342.00 C907.94,332.92 907.83,324.50 907.52,323.28 C907.00,321.17 906.52,321.07 897.49,321.22 L 888.00 321.38 L 888.00 340.19 C888.00,358.33 888.07,359.00 890.00,359.00 C891.92,359.00 892.00,358.33 892.00,342.50 ZM 934.17 357.35 C935.80,355.87 936.00,353.92 936.00,339.55 C936.00,328.32 935.63,323.03 934.80,322.20 C934.08,321.48 930.58,321.00 926.00,321.00 C921.42,321.00 917.92,321.48 917.20,322.20 C916.36,323.04 916.00,328.42 916.00,340.00 C916.00,351.58 916.36,356.96 917.20,357.80 C919.10,359.70 931.95,359.36 934.17,357.35 ZM 952.67 357.75 C953.11,357.06 954.42,351.10 955.59,344.50 C958.07,330.56 958.60,330.86 961.57,347.86 C963.31,357.78 964.78,360.63 967.01,358.38 C967.50,357.90 969.42,349.29 971.29,339.25 L 974.70 321.00 L 972.35 321.00 C971.06,321.00 970.00,321.34 970.00,321.75 C969.99,322.77 967.10,339.91 966.43,342.89 C965.53,346.87 964.34,344.03 962.49,333.50 C960.36,321.35 960.23,321.00 958.02,321.00 C956.56,321.00 955.87,323.06 954.00,333.02 C952.75,339.64 951.42,345.24 951.03,345.48 C950.65,345.72 949.55,341.32 948.58,335.71 C946.11,321.25 946.03,321.00 943.89,321.00 C942.85,321.00 942.00,321.50 942.00,322.12 C942.00,324.37 948.13,354.56 949.03,356.75 C950.06,359.25 951.48,359.64 952.67,357.75 ZM 985.00 328.00 C985.00,297.67 984.96,297.00 983.00,297.00 C981.04,297.00 981.00,297.67 981.00,328.00 C981.00,358.33 981.04,359.00 983.00,359.00 C984.96,359.00 985.00,358.33 985.00,328.00 ZM 1010.80 357.80 C1011.46,357.14 1012.00,354.67 1012.00,352.30 C1012.00,348.67 1011.69,348.00 1010.00,348.00 C1008.56,348.00 1008.00,348.67 1008.00,350.38 C1008.00,353.61 1005.79,355.20 1001.82,354.82 L 998.50 354.50 L 998.20 347.75 L 997.91 341.00 L 1003.75 341.00 C1006.97,341.00 1010.14,340.46 1010.80,339.80 C1012.05,338.55 1012.50,325.46 1011.39,322.58 C1010.91,321.32 1009.17,321.00 1002.87,321.00 C995.29,321.00 994.91,321.11 993.98,323.57 C993.44,324.98 993.00,332.53 993.00,340.34 C993.00,358.41 993.31,359.00 1002.86,359.00 C1006.77,359.00 1010.10,358.50 1010.80,357.80 ZM 1038.00 327.78 C1038.00,310.85 1037.66,297.01 1037.25,297.02 C1034.65,297.07 1034.06,299.20 1033.79,309.54 L 1033.50 320.50 L 1028.36 320.80 C1020.00,321.28 1019.50,322.37 1019.50,340.00 C1019.50,358.57 1019.65,358.83 1030.56,358.67 L 1038.00 358.55 L 1038.00 327.78 ZM 1086.80 357.80 C1087.46,357.14 1088.00,354.67 1088.00,352.30 C1088.00,348.71 1087.68,348.00 1086.06,348.00 C1084.61,348.00 1084.05,348.81 1083.81,351.25 C1083.52,354.30 1083.24,354.52 1079.25,354.81 L 1075.00 355.11 L 1075.00 348.06 L 1075.00 341.00 L 1080.30 341.00 C1083.21,341.00 1086.14,340.46 1086.80,339.80 C1088.05,338.55 1088.50,325.46 1087.39,322.58 C1086.92,321.34 1085.23,321.00 1079.59,321.00 C1075.33,321.00 1071.91,321.49 1071.20,322.20 C1070.37,323.03 1070.00,328.28 1070.00,339.37 C1070.00,358.69 1070.15,359.00 1079.45,359.00 C1082.90,359.00 1086.13,358.47 1086.80,357.80 ZM 1113.77 330.30 L 1114.03 302.12 L 1117.27 301.81 C1119.70,301.58 1120.58,300.96 1120.81,299.34 C1121.11,297.25 1120.82,297.18 1111.81,297.34 C1103.06,297.49 1102.48,297.63 1102.19,299.69 C1101.92,301.56 1102.42,301.92 1105.69,302.19 L 1109.50 302.50 L 1109.77 330.82 C1110.01,357.07 1110.16,359.12 1111.77,358.81 C1113.35,358.50 1113.52,356.12 1113.77,330.30 ZM 1136.90 357.62 C1137.53,356.86 1138.23,354.39 1138.45,352.12 C1138.81,348.57 1138.60,348.00 1136.93,348.00 C1135.56,348.00 1135.00,348.69 1135.00,350.38 C1135.00,353.50 1132.80,355.22 1129.31,354.82 C1126.58,354.51 1126.49,354.32 1126.21,347.80 L 1125.91 341.10 L 1131.71 340.80 L 1137.50 340.50 L 1137.80 333.01 C1138.28,321.02 1138.17,320.86 1130.22,321.20 L 1123.50 321.50 L 1123.23 338.87 C1123.04,350.83 1123.31,356.67 1124.10,357.62 C1125.64,359.47 1135.36,359.47 1136.90,357.62 ZM 1158.79 341.88 C1158.94,332.87 1158.82,324.49 1158.52,323.25 C1158.01,321.20 1157.37,321.00 1151.46,321.00 C1145.31,321.00 1144.89,321.15 1143.93,323.69 C1142.55,327.31 1143.13,331.50 1145.00,331.50 C1145.96,331.50 1146.61,330.33 1146.81,328.25 C1147.11,325.18 1147.35,325.00 1151.11,325.00 L 1155.10 325.00 L 1154.80 330.75 L 1154.50 336.50 L 1149.52 336.81 C1146.78,336.99 1144.20,337.66 1143.78,338.31 C1142.55,340.26 1142.87,356.47 1144.17,357.77 C1144.89,358.49 1147.81,358.81 1151.92,358.60 L 1158.50 358.27 L 1158.79 341.88 ZM 1167.77 342.24 L 1168.05 326.00 L 1172.02 326.00 L 1176.00 326.00 L 1176.00 342.58 C1176.00,355.40 1176.28,359.07 1177.25,358.75 C1178.15,358.45 1178.64,353.91 1179.00,342.46 L 1179.50 326.58 L 1183.00 325.86 C1184.93,325.46 1186.83,325.45 1187.22,325.84 C1187.62,326.23 1188.07,333.62 1188.22,342.28 C1188.39,351.91 1188.89,358.00 1189.50,358.00 C1190.13,358.00 1190.50,351.25 1190.50,339.75 L 1190.50 321.50 L 1177.25 321.44 L 1164.00 321.38 L 1164.00 340.26 C1164.00,357.71 1164.13,359.12 1165.75,358.81 C1167.32,358.51 1167.53,356.78 1167.77,342.24 ZM 778.24 312.46 C780.43,311.62 779.25,306.00 776.89,306.00 C775.40,306.00 775.00,306.74 775.00,309.50 C775.00,312.98 775.56,313.49 778.24,312.46 ZM 232.38 242.78 C237.80,241.17 245.17,233.80 246.78,228.38 C250.43,216.07 245.67,203.60 235.50,198.90 C232.10,197.32 228.94,197.04 214.50,197.04 C194.92,197.04 191.82,197.89 185.85,204.86 C177.56,214.55 178.20,227.87 187.39,236.89 C189.77,239.23 193.47,241.76 195.61,242.53 C200.65,244.32 226.58,244.50 232.38,242.78 ZM 310.50 242.13 C316.12,239.56 320.66,234.53 323.00,228.27 C325.40,221.86 325.49,218.81 323.47,212.87 C321.43,206.88 316.95,201.64 311.69,199.09 C307.87,197.24 305.55,197.00 291.65,197.00 C273.90,197.00 270.91,197.75 264.77,203.73 C252.81,215.39 257.77,236.87 273.75,242.57 C276.21,243.45 282.47,243.92 292.00,243.93 C303.95,243.95 307.20,243.63 310.50,242.13 ZM 436.12 242.98 C442.07,241.33 446.28,237.80 449.26,231.97 C453.03,224.58 453.55,220.42 451.57,213.59 C449.70,207.14 444.30,200.45 439.28,198.35 C436.75,197.29 426.93,197.00 393.50,197.00 C346.63,197.00 346.71,196.99 340.25,203.25 C336.76,206.63 333.00,215.27 333.00,219.92 C333.00,225.38 336.15,232.74 340.15,236.65 C347.55,243.87 347.63,243.88 392.50,243.94 C416.40,243.97 433.96,243.58 436.12,242.98 ZM 551.58 240.84 C557.38,237.07 560.51,232.96 562.57,226.42 C565.74,216.34 562.09,205.90 553.38,200.13 C547.27,196.08 543.81,195.78 508.50,196.17 C480.01,196.48 478.30,196.61 474.50,198.66 C466.34,203.06 462.00,210.29 462.00,219.47 C462.00,230.93 467.38,238.83 477.76,242.60 C480.68,243.67 488.70,243.91 514.50,243.73 L 547.50 243.50 L 551.58 240.84 ZM 629.76 177.75 L 630.01 112.00 L 640.51 112.00 L 651.00 112.00 L 651.00 105.98 L 651.00 99.97 L 624.25 100.23 L 597.50 100.50 L 597.20 106.25 L 596.90 112.00 L 607.45 112.00 L 618.00 112.00 L 618.00 178.05 L 618.00 244.10 L 623.75 243.80 L 629.50 243.50 L 629.76 177.75 ZM 678.76 209.88 L 679.03 176.27 L 694.47 175.55 C702.97,175.15 710.39,175.12 710.96,175.47 C711.65,175.90 712.00,187.63 712.00,210.11 L 712.00 244.10 L 718.25 243.80 L 724.50 243.50 L 724.50 172.00 L 724.50 100.50 L 721.59 100.17 C719.99,99.99 717.18,100.12 715.34,100.46 L 712.00 101.09 L 712.00 131.49 C712.00,150.82 711.63,162.11 710.99,162.50 C710.44,162.85 703.13,163.21 694.74,163.31 L 679.50 163.50 L 679.24 132.25 C679.09,115.06 678.64,100.96 678.24,100.91 C677.83,100.86 675.14,100.65 672.25,100.43 L 667.00 100.03 L 667.00 172.06 L 667.00 244.10 L 672.75 243.80 L 678.50 243.50 L 678.76 209.88 ZM 758.76 171.70 L 759.01 99.90 L 753.26 100.20 L 747.50 100.50 L 747.24 171.00 C747.10,209.77 747.21,242.09 747.48,242.80 C747.82,243.70 749.61,244.01 753.24,243.80 L 758.50 243.50 L 758.76 171.70 ZM 792.76 205.25 L 793.02 167.00 L 798.76 166.99 C801.92,166.99 807.53,166.70 811.24,166.35 L 817.98 165.71 L 818.24 204.61 L 818.50 243.50 L 824.00 243.50 L 829.50 243.50 L 829.76 201.90 C830.02,161.06 829.98,160.25 827.94,157.65 C826.03,155.23 825.24,155.00 818.75,155.00 C814.83,155.00 807.64,155.51 802.76,156.14 C796.12,156.99 793.59,156.99 792.74,156.14 C792.11,155.51 789.22,155.00 786.30,155.00 L 781.00 155.00 L 781.00 199.55 L 781.00 244.10 L 786.75 243.80 L 792.50 243.50 L 792.76 205.25 ZM 862.25 239.25 C862.54,236.64 862.60,221.34 862.38,205.25 C862.11,185.93 862.32,176.00 862.99,176.00 C863.54,176.00 864.00,176.13 864.00,176.29 C864.00,176.75 870.43,191.93 873.41,198.50 C874.90,201.80 880.06,213.27 884.86,224.00 L 893.60 243.50 L 899.45 243.80 C902.66,243.97 905.64,243.75 906.06,243.30 C906.49,242.86 903.76,235.75 900.01,227.50 C896.25,219.25 888.86,202.69 883.58,190.71 L 873.98 168.92 L 879.37 157.21 C894.52,124.28 905.00,101.22 905.00,100.83 C905.00,100.17 897.91,99.96 894.44,100.53 C891.99,100.92 891.00,101.87 889.51,105.26 C888.48,107.59 884.32,116.70 880.26,125.50 C876.20,134.30 870.78,146.34 868.21,152.25 C865.64,158.16 863.26,163.00 862.92,163.00 C862.57,163.00 862.34,149.26 862.40,132.46 C862.51,98.16 862.88,99.78 855.00,100.24 L 850.50 100.50 L 850.44 171.00 C850.40,209.77 850.56,242.06 850.79,242.75 C851.06,243.54 853.16,244.00 856.47,244.00 L 861.72 244.00 L 862.25 239.25 ZM 978.76 177.75 L 979.01 112.00 L 989.51 112.00 L 1000.00 112.00 L 1000.00 105.96 L 1000.00 99.92 L 972.95 100.08 L 945.91 100.23 L 946.20 105.87 L 946.50 111.50 L 956.75 111.78 L 967.00 112.07 L 967.00 178.08 L 967.00 244.10 L 972.75 243.80 L 978.50 243.50 L 978.76 177.75 ZM 1045.08 241.42 C1047.26,239.10 1047.53,237.83 1047.84,228.42 L 1048.18 218.00 L 1043.13 218.00 L 1038.08 218.00 L 1037.79 225.75 L 1037.50 233.50 L 1027.00 233.50 L 1016.50 233.50 L 1016.22 218.25 L 1015.95 203.00 L 1029.90 203.00 L 1043.85 203.00 L 1045.99 200.29 C1048.01,197.71 1048.11,196.68 1047.81,179.89 C1047.40,156.51 1048.77,158.00 1027.78,158.00 C1018.96,158.00 1011.03,158.45 1009.98,159.01 C1008.94,159.57 1007.62,161.71 1007.05,163.76 C1005.65,168.80 1005.64,234.93 1007.04,238.60 C1008.93,243.57 1010.30,243.93 1027.08,243.97 C1042.54,244.00 1042.67,243.98 1045.08,241.42 ZM 1087.87 242.77 C1094.56,241.81 1096.44,241.81 1096.76,242.77 C1097.00,243.49 1098.97,244.00 1101.52,244.00 L 1105.88 244.00 L 1106.43 239.75 C1106.90,236.16 1106.81,215.92 1106.13,170.75 C1105.94,157.89 1106.11,158.00 1085.95,158.00 C1070.19,158.00 1069.87,158.04 1067.42,160.49 C1065.07,162.84 1064.94,163.52 1065.21,172.24 L 1065.50 181.50 L 1070.00 181.50 L 1074.50 181.50 L 1074.80 174.75 L 1075.09 168.00 L 1085.87 168.00 L 1096.66 168.00 L 1096.44 177.75 C1096.33,183.11 1096.18,188.69 1096.12,190.15 L 1096.00 192.80 L 1082.53 193.15 C1063.43,193.65 1064.50,192.10 1064.50,219.12 C1064.50,240.04 1064.52,240.19 1066.86,242.09 C1069.68,244.37 1075.50,244.56 1087.87,242.77 ZM 1128.76 206.25 L 1129.02 169.00 L 1135.37 169.00 C1138.86,169.00 1143.81,168.71 1146.36,168.36 L 1151.00 167.73 L 1151.00 205.92 L 1151.00 244.11 L 1155.75 243.80 L 1160.50 243.50 L 1160.76 206.25 L 1161.02 169.00 L 1167.26 168.99 C1170.69,168.98 1175.18,168.70 1177.24,168.36 L 1180.98 167.74 L 1181.24 205.62 L 1181.50 243.50 L 1186.00 243.50 L 1190.50 243.50 L 1190.76 202.41 C1191.07,154.32 1191.87,157.71 1180.19,157.82 C1176.40,157.86 1170.23,158.60 1166.47,159.47 C1162.72,160.34 1159.39,160.66 1159.08,160.18 C1156.86,156.80 1151.84,156.57 1136.62,159.14 C1132.53,159.83 1130.41,159.81 1129.67,159.07 C1129.08,158.48 1126.67,158.00 1124.30,158.00 C1120.01,158.00 1120.00,158.00 1119.96,161.75 C1119.44,205.02 1119.33,242.68 1119.70,243.30 C1119.97,243.74 1122.05,243.97 1124.34,243.80 L 1128.50 243.50 L 1128.76 206.25 ZM 158.22 240.87 C164.70,237.63 167.99,233.12 169.23,225.76 C171.32,213.32 166.88,203.12 157.51,198.86 C154.15,197.34 150.81,197.04 137.00,197.03 L 120.50 197.02 L 115.25 200.03 C108.24,204.05 104.90,209.39 104.24,217.63 C103.42,227.82 107.66,236.17 115.80,240.40 C120.21,242.69 121.52,242.85 137.22,242.92 C152.39,242.99 154.35,242.80 158.22,240.87 ZM 551.29 186.68 C560.70,181.15 565.37,170.70 563.05,160.35 C561.59,153.83 556.92,147.41 551.64,144.68 C547.83,142.71 545.72,142.70 334.23,142.90 C162.13,143.07 120.08,143.36 117.59,144.40 C101.95,150.95 98.95,173.52 112.27,184.33 C119.64,190.30 104.74,189.94 335.00,189.71 L 546.50 189.50 L 551.29 186.68 ZM 155.60 134.53 C161.58,132.75 165.69,128.67 169.50,120.71 C171.84,115.83 172.17,114.12 171.66,109.77 C170.83,102.80 166.65,96.29 160.56,92.53 C155.72,89.53 155.49,89.50 139.46,89.17 C124.56,88.86 122.85,89.01 118.14,91.04 C105.53,96.46 100.29,110.73 106.58,122.55 C110.08,129.13 114.63,132.83 121.99,135.07 C126.65,136.48 150.29,136.10 155.60,134.53 ZM 231.12 134.98 C236.65,133.45 241.13,129.96 244.44,124.60 C251.21,113.66 248.05,98.90 237.58,92.50 L 232.66 89.50 L 214.58 89.50 C197.15,89.50 196.34,89.59 192.04,92.00 C174.91,101.61 177.69,127.79 196.56,134.51 C201.26,136.18 225.59,136.52 231.12,134.98 ZM 311.50 133.84 C316.57,131.02 320.83,126.60 322.94,121.95 C327.73,111.39 324.01,98.38 314.54,92.52 C309.79,89.58 309.27,89.49 295.13,89.15 C279.48,88.78 275.02,89.52 268.81,93.56 C257.09,101.16 256.24,120.27 267.21,129.53 C273.96,135.23 277.07,135.96 293.50,135.72 C305.31,135.55 309.14,135.15 311.50,133.84 ZM 476.50 133.34 C493.70,124.06 494.32,100.64 477.59,91.69 C473.51,89.50 473.38,89.50 412.00,89.50 L 350.50 89.50 L 346.35 91.72 C335.08,97.75 330.85,111.29 336.62,122.87 C339.38,128.40 343.81,132.09 350.70,134.57 C353.78,135.69 365.62,135.90 413.50,135.72 C471.83,135.50 472.55,135.48 476.50,133.34 ZM 549.78 133.45 C564.80,127.17 568.56,106.34 556.73,94.98 C551.24,89.70 546.15,88.67 527.85,89.14 L 513.32 89.52 L 508.67 93.01 C495.15,103.16 495.84,123.25 510.00,131.75 L 515.41 135.00 L 530.74 135.00 C542.33,135.00 546.97,134.62 549.78,133.45 ZM 156.78 82.45 C165.63,78.76 171.37,69.97 171.24,60.32 C171.12,52.05 168.37,46.01 162.93,42.07 C156.55,37.44 152.39,36.71 135.50,37.22 C119.41,37.71 115.25,38.86 110.31,44.15 C104.20,50.71 102.38,61.83 106.08,70.00 C108.83,76.05 111.54,78.81 117.50,81.62 C122.07,83.78 123.82,83.98 137.78,83.99 C149.34,84.00 153.97,83.62 156.78,82.45 ZM 309.25 82.95 C314.24,81.56 322.25,73.51 323.71,68.41 C325.01,63.89 324.74,54.70 323.20,50.86 C321.59,46.87 316.42,41.43 312.43,39.54 C307.63,37.25 285.76,36.26 277.65,37.96 C266.90,40.21 260.04,48.98 260.04,60.50 C260.04,70.57 265.91,79.42 274.62,82.53 C279.32,84.20 303.67,84.50 309.25,82.95 ZM 377.22 353.44 C375.13,351.98 375.00,351.17 375.00,339.48 C375.00,325.58 375.30,325.00 382.43,325.00 L 386.00 325.00 L 386.00 339.02 L 386.00 353.05 L 383.43 354.02 C380.09,355.30 379.84,355.28 377.22,353.44 ZM 682.00 354.33 C678.62,353.07 678.00,350.70 678.00,339.01 C678.00,331.31 678.40,327.00 679.20,326.20 C679.86,325.54 682.35,325.00 684.73,325.00 L 689.05 325.00 L 688.78 339.75 L 688.50 354.50 L 686.00 354.69 C684.62,354.80 682.83,354.63 682.00,354.33 ZM 1052.14 353.30 C1050.03,351.59 1049.94,350.88 1050.21,338.50 L 1050.50 325.50 L 1054.75 325.19 L 1059.00 324.89 L 1059.15 338.44 C1059.23,345.90 1059.34,352.56 1059.40,353.25 C1059.56,355.24 1054.56,355.27 1052.14,353.30 ZM 169.71 336.38 C169.32,335.99 169.00,333.27 169.00,330.33 L 169.00 325.00 L 174.55 325.00 L 180.10 325.00 L 179.80 330.75 L 179.50 336.50 L 174.96 336.80 C172.47,336.96 170.10,336.77 169.71,336.38 ZM 246.00 331.05 L 246.00 325.00 L 251.55 325.00 L 257.10 325.00 L 256.80 330.75 L 256.50 336.50 L 251.25 336.80 L 246.00 337.10 L 246.00 331.05 ZM 294.00 331.05 L 294.00 325.00 L 299.05 325.00 L 304.10 325.00 L 303.80 330.75 L 303.50 336.50 L 298.75 336.80 L 294.00 337.11 L 294.00 331.05 ZM 347.67 354.33 C347.30,353.97 347.00,347.19 347.00,339.28 L 347.00 324.90 L 352.25 325.20 L 357.50 325.50 L 357.78 338.86 C357.97,347.86 357.68,352.68 356.91,353.61 C355.74,355.02 348.89,355.56 347.67,354.33 ZM 403.43 335.67 C403.12,334.88 403.01,332.26 403.19,329.86 L 403.50 325.50 L 408.50 325.50 L 413.50 325.50 L 413.50 331.00 L 413.50 336.50 L 408.74 336.81 C405.31,337.03 403.83,336.71 403.43,335.67 ZM 460.71 336.38 C460.32,335.99 460.00,333.27 460.00,330.33 L 460.00 325.00 L 465.55 325.00 L 471.10 325.00 L 470.80 330.75 L 470.50 336.50 L 465.96 336.80 C463.47,336.96 461.10,336.77 460.71,336.38 ZM 489.67 354.33 C489.30,353.97 489.00,347.22 489.00,339.33 L 489.00 325.00 L 493.98 325.00 C498.53,325.00 499.02,325.23 499.62,327.63 C500.75,332.13 499.32,353.18 497.83,354.13 C496.24,355.13 490.61,355.28 489.67,354.33 ZM 650.67 336.33 C650.30,335.97 650.00,333.27 650.00,330.33 L 650.00 325.00 L 654.86 325.00 L 659.72 325.00 L 660.33 330.14 C660.67,332.97 660.70,335.67 660.41,336.14 C659.79,337.15 651.64,337.31 650.67,336.33 ZM 731.71 353.38 C731.32,352.99 731.00,350.04 731.00,346.83 L 731.00 341.00 L 736.55 341.00 L 742.10 341.00 L 741.80 347.25 L 741.50 353.50 L 736.96 353.80 C734.47,353.96 732.10,353.77 731.71,353.38 ZM 793.46 353.76 C793.17,353.01 793.07,346.35 793.22,338.95 L 793.50 325.50 L 798.28 325.19 L 803.05 324.89 L 802.78 339.69 L 802.50 354.50 L 798.24 354.81 C795.35,355.02 793.81,354.68 793.46,353.76 ZM 921.71 354.38 C921.32,353.99 921.00,347.22 921.00,339.33 L 921.00 325.00 L 926.03 325.00 L 931.05 325.00 L 930.78 339.75 L 930.50 354.50 L 926.46 354.80 C924.24,354.96 922.11,354.77 921.71,354.38 ZM 998.71 336.38 C998.32,335.99 998.00,333.27 998.00,330.33 L 998.00 325.00 L 1003.05 325.00 L 1008.10 325.00 L 1007.80 330.75 L 1007.50 336.50 L 1003.46 336.80 C1001.24,336.96 999.11,336.77 998.71,336.38 ZM 1025.25 352.85 C1023.54,351.14 1023.50,327.90 1025.20,326.20 C1025.86,325.54 1028.12,325.00 1030.23,325.00 L 1034.05 325.00 L 1033.78 339.25 L 1033.50 353.50 L 1030.00 353.80 C1028.07,353.96 1025.93,353.53 1025.25,352.85 ZM 1075.00 331.06 L 1075.00 325.00 L 1079.55 325.00 L 1084.10 325.00 L 1083.80 330.75 L 1083.50 336.50 L 1079.25 336.81 L 1075.00 337.11 L 1075.00 331.06 ZM 1126.71 336.38 C1126.32,335.99 1126.00,333.27 1126.00,330.33 L 1126.00 325.00 L 1130.55 325.00 L 1135.10 325.00 L 1134.80 330.75 L 1134.50 336.50 L 1130.96 336.80 C1129.02,336.96 1127.11,336.77 1126.71,336.38 ZM 1147.00 347.56 L 1147.00 341.00 L 1151.05 341.00 L 1155.10 341.00 L 1154.80 347.25 L 1154.50 353.50 L 1150.75 353.81 L 1147.00 354.12 L 1147.00 347.56 ZM 1016.70 193.37 C1016.31,192.98 1016.00,186.89 1016.00,179.83 L 1016.00 167.00 L 1027.03 167.00 L 1038.06 167.00 L 1037.78 180.25 L 1037.50 193.50 L 1027.45 193.78 C1021.92,193.94 1017.08,193.75 1016.70,193.37 ZM 1074.75 233.44 C1074.34,233.02 1074.00,225.99 1074.00,217.83 L 1074.00 203.00 L 1085.46 203.00 L 1096.92 203.00 L 1096.36 217.75 C1096.05,225.86 1095.72,232.58 1095.63,232.69 C1095.01,233.36 1075.35,234.07 1074.75,233.44 Z" fill="rgb(254,254,254)"/>
</g>
</svg>