<svg id="svg" version="1.1" width="400" height="400" viewBox="0 0 400 400" xmlns="http://www.w3.org/2000/svg" xmlns:xlink="http://www.w3.org/1999/xlink"><g id="svgg"><path id="path0" d="M94.723 233.943 C 94.435 234.351,93.795 234.813,93.300 234.970 C 92.788 235.131,92.400 235.577,92.400 236.003 C 92.400 236.416,92.220 236.864,92.000 237.000 C 91.780 237.136,91.600 237.597,91.600 238.024 C 91.600 238.451,91.420 238.800,91.200 238.800 C 90.980 238.800,90.800 239.149,90.800 239.576 C 90.800 240.003,90.620 240.464,90.400 240.600 C 90.180 240.736,90.000 241.287,90.000 241.824 C 90.000 242.361,89.820 242.800,89.600 242.800 C 89.380 242.800,89.200 243.340,89.200 244.000 C 89.200 244.660,89.020 245.200,88.800 245.200 C 88.580 245.200,88.400 245.740,88.400 246.400 C 88.400 247.060,88.220 247.600,88.000 247.600 C 87.780 247.600,87.600 248.140,87.600 248.800 C 87.600 249.460,87.420 250.000,87.200 250.000 C 86.980 250.000,86.800 250.619,86.800 251.376 C 86.800 252.133,86.620 252.864,86.400 253.000 C 86.180 253.136,86.000 253.946,86.000 254.800 C 86.000 255.654,85.820 256.464,85.600 256.600 C 85.380 256.736,85.200 257.456,85.200 258.200 C 85.200 258.944,85.020 259.664,84.800 259.800 C 84.580 259.936,84.400 261.027,84.400 262.224 C 84.400 263.421,84.220 264.400,84.000 264.400 C 83.769 264.400,83.600 265.659,83.600 267.376 C 83.600 269.013,83.420 270.464,83.200 270.600 C 82.947 270.756,82.800 275.463,82.800 283.400 C 82.800 291.337,82.947 296.044,83.200 296.200 C 83.420 296.336,83.600 297.686,83.600 299.200 C 83.600 300.714,83.780 302.064,84.000 302.200 C 84.220 302.336,84.400 303.427,84.400 304.624 C 84.400 305.821,84.580 306.800,84.800 306.800 C 85.020 306.800,85.200 307.520,85.200 308.400 C 85.200 309.280,85.380 310.000,85.600 310.000 C 85.820 310.000,86.000 310.799,86.000 311.776 C 86.000 312.753,86.180 313.664,86.400 313.800 C 86.620 313.936,86.800 314.577,86.800 315.224 C 86.800 315.871,86.980 316.400,87.200 316.400 C 87.420 316.400,87.600 317.019,87.600 317.776 C 87.600 318.533,87.780 319.264,88.000 319.400 C 88.220 319.536,88.400 320.076,88.400 320.600 C 88.400 321.124,88.580 321.664,88.800 321.800 C 89.020 321.936,89.200 322.397,89.200 322.824 C 89.200 323.251,89.380 323.600,89.600 323.600 C 89.820 323.600,90.000 324.140,90.000 324.800 C 90.000 325.460,90.180 326.000,90.400 326.000 C 90.620 326.000,90.800 326.355,90.800 326.788 C 90.800 327.221,91.160 328.217,91.600 329.000 C 92.040 329.783,92.400 330.689,92.400 331.012 C 92.400 331.335,92.580 331.600,92.800 331.600 C 93.020 331.600,93.200 331.949,93.200 332.376 C 93.200 332.803,93.380 333.264,93.600 333.400 C 93.820 333.536,94.000 333.963,94.000 334.348 C 94.000 334.734,94.360 335.436,94.800 335.908 C 95.240 336.380,95.600 336.918,95.600 337.104 C 95.600 337.697,96.589 339.594,96.900 339.597 C 97.065 339.599,97.200 339.960,97.200 340.400 C 97.200 340.840,97.380 341.200,97.600 341.200 C 97.820 341.200,98.000 341.560,98.000 342.000 C 98.000 342.440,98.180 342.800,98.400 342.800 C 98.620 342.800,98.800 343.036,98.800 343.325 C 98.800 343.613,99.160 344.236,99.600 344.708 C 100.040 345.180,100.400 345.778,100.400 346.036 C 100.400 346.295,100.716 346.797,101.103 347.153 C 101.489 347.509,102.060 348.295,102.370 348.900 C 102.681 349.505,103.085 350.000,103.268 350.000 C 103.450 350.000,103.600 350.320,103.600 350.712 C 103.600 351.103,103.960 351.683,104.400 352.000 C 104.840 352.317,105.200 352.785,105.200 353.040 C 105.200 353.295,105.876 354.200,106.702 355.052 C 107.528 355.903,108.647 357.230,109.189 358.000 C 109.731 358.770,110.855 360.061,111.687 360.869 C 112.519 361.676,113.200 362.526,113.200 362.757 C 113.200 362.987,113.740 363.575,114.400 364.063 C 115.060 364.551,115.600 365.105,115.600 365.293 C 115.600 365.704,117.444 367.600,117.843 367.600 C 117.997 367.600,118.740 368.320,119.493 369.200 C 120.246 370.080,121.042 370.800,121.263 370.800 C 121.483 370.800,122.324 371.481,123.131 372.313 C 123.939 373.145,125.230 374.264,126.000 374.800 C 126.770 375.336,127.940 376.274,128.600 376.885 C 129.260 377.496,129.985 377.997,130.212 377.998 C 130.438 377.999,130.883 378.360,131.200 378.800 C 131.517 379.240,132.031 379.600,132.341 379.600 C 132.652 379.600,133.197 379.916,133.553 380.303 C 133.909 380.689,134.695 381.260,135.300 381.570 C 135.905 381.881,136.400 382.285,136.400 382.468 C 136.400 382.650,136.745 382.800,137.167 382.800 C 137.588 382.800,137.993 382.935,138.067 383.100 C 138.234 383.476,140.364 384.775,141.300 385.071 C 141.685 385.193,142.000 385.452,142.000 385.647 C 142.000 385.841,142.360 386.000,142.800 386.000 C 143.240 386.000,143.600 386.154,143.600 386.342 C 143.600 386.530,145.175 387.449,147.100 388.383 C 149.025 389.317,150.913 390.243,151.295 390.441 C 151.677 390.638,152.262 390.800,152.595 390.800 C 152.928 390.800,153.200 390.980,153.200 391.200 C 153.200 391.420,153.560 391.600,154.000 391.600 C 154.440 391.600,154.800 391.780,154.800 392.000 C 154.800 392.220,155.340 392.400,156.000 392.400 C 156.660 392.400,157.200 392.580,157.200 392.800 C 157.200 393.020,157.549 393.200,157.976 393.200 C 158.403 393.200,158.864 393.380,159.000 393.600 C 159.136 393.820,159.687 394.000,160.224 394.000 C 160.761 394.000,161.200 394.180,161.200 394.400 C 161.200 394.620,161.740 394.800,162.400 394.800 C 163.060 394.800,163.600 394.980,163.600 395.200 C 163.600 395.420,164.320 395.600,165.200 395.600 C 166.080 395.600,166.800 395.780,166.800 396.000 C 166.800 396.220,167.329 396.400,167.976 396.400 C 168.623 396.400,169.264 396.580,169.400 396.800 C 169.536 397.020,170.267 397.200,171.024 397.200 C 171.781 397.200,172.400 397.380,172.400 397.600 C 172.400 397.820,173.109 398.000,173.976 398.000 C 174.843 398.000,175.664 398.180,175.800 398.400 C 175.936 398.620,177.012 398.800,178.190 398.800 C 179.549 398.800,180.394 398.983,180.500 399.300 C 180.744 400.031,219.256 400.031,219.500 399.300 C 219.603 398.991,220.411 398.800,221.610 398.800 C 222.678 398.800,223.664 398.620,223.800 398.400 C 223.936 398.180,224.847 398.000,225.824 398.000 C 226.801 398.000,227.600 397.820,227.600 397.600 C 227.600 397.380,228.219 397.200,228.976 397.200 C 229.733 397.200,230.464 397.020,230.600 396.800 C 230.736 396.580,231.456 396.400,232.200 396.400 C 232.944 396.400,233.664 396.220,233.800 396.000 C 233.936 395.780,234.577 395.600,235.224 395.600 C 235.871 395.600,236.400 395.420,236.400 395.200 C 236.400 394.980,236.940 394.800,237.600 394.800 C 238.260 394.800,238.800 394.620,238.800 394.400 C 238.800 394.180,239.239 394.000,239.776 394.000 C 240.313 394.000,240.864 393.820,241.000 393.600 C 241.136 393.380,241.597 393.200,242.024 393.200 C 242.451 393.200,242.800 393.020,242.800 392.800 C 242.800 392.580,243.340 392.400,244.000 392.400 C 244.660 392.400,245.200 392.220,245.200 392.000 C 245.200 391.780,245.560 391.600,246.000 391.600 C 246.440 391.600,246.800 391.420,246.800 391.200 C 246.800 390.980,247.025 390.801,247.300 390.803 C 247.790 390.807,253.625 388.086,255.600 386.934 C 256.150 386.613,256.915 386.251,257.300 386.129 C 257.685 386.007,258.000 385.748,258.000 385.553 C 258.000 385.359,258.360 385.200,258.800 385.200 C 259.240 385.200,259.600 385.020,259.600 384.800 C 259.600 384.580,259.836 384.400,260.125 384.400 C 260.413 384.400,261.007 384.085,261.445 383.700 C 262.182 383.052,262.948 382.563,264.996 381.438 C 265.433 381.197,266.084 380.685,266.443 380.300 C 266.801 379.915,267.348 379.600,267.659 379.600 C 267.969 379.600,268.483 379.240,268.800 378.800 C 269.117 378.360,269.562 377.995,269.788 377.989 C 270.015 377.982,271.003 377.262,271.986 376.389 C 272.968 375.515,273.923 374.800,274.108 374.800 C 274.293 374.800,275.504 373.720,276.800 372.400 C 278.096 371.080,279.267 370.000,279.403 370.000 C 279.935 370.000,285.229 364.806,286.742 362.800 C 287.322 362.030,288.255 360.950,288.814 360.400 C 289.373 359.850,290.273 358.770,290.812 358.000 C 291.352 357.230,292.470 355.881,293.297 355.002 C 294.124 354.123,294.800 353.218,294.800 352.990 C 294.800 352.763,295.160 352.317,295.600 352.000 C 296.040 351.683,296.400 351.103,296.400 350.712 C 296.400 350.320,296.550 350.000,296.732 350.000 C 296.915 350.000,297.319 349.505,297.630 348.900 C 297.940 348.295,298.511 347.509,298.897 347.153 C 299.284 346.797,299.600 346.295,299.600 346.036 C 299.600 345.778,299.960 345.180,300.400 344.708 C 300.840 344.236,301.200 343.613,301.200 343.325 C 301.200 343.036,301.380 342.800,301.600 342.800 C 301.820 342.800,302.000 342.440,302.000 342.000 C 302.000 341.560,302.180 341.200,302.400 341.200 C 302.620 341.200,302.800 340.840,302.800 340.400 C 302.800 339.960,302.944 339.600,303.120 339.600 C 303.295 339.600,303.679 338.937,303.972 338.127 C 304.265 337.317,304.841 336.293,305.252 335.852 C 305.663 335.410,306.000 334.734,306.000 334.348 C 306.000 333.963,306.180 333.536,306.400 333.400 C 306.620 333.264,306.800 332.803,306.800 332.376 C 306.800 331.949,306.980 331.600,307.200 331.600 C 307.420 331.600,307.600 331.335,307.600 331.012 C 307.600 330.689,307.960 329.783,308.400 329.000 C 308.840 328.217,309.200 327.309,309.200 326.982 C 309.200 326.656,309.408 325.987,309.662 325.495 C 310.657 323.571,310.800 323.184,310.800 322.418 C 310.800 321.981,311.160 320.983,311.600 320.200 C 312.040 319.417,312.400 318.241,312.400 317.588 C 312.400 316.935,312.580 316.400,312.800 316.400 C 313.020 316.400,313.200 315.871,313.200 315.224 C 313.200 314.577,313.380 313.936,313.600 313.800 C 313.820 313.664,314.000 312.753,314.000 311.776 C 314.000 310.799,314.180 310.000,314.400 310.000 C 314.620 310.000,314.800 309.280,314.800 308.400 C 314.800 307.520,314.980 306.800,315.200 306.800 C 315.420 306.800,315.600 305.821,315.600 304.624 C 315.600 303.427,315.780 302.336,316.000 302.200 C 316.220 302.064,316.400 300.739,316.400 299.256 C 316.400 297.773,316.585 296.375,316.811 296.149 C 317.630 295.330,316.810 264.400,315.970 264.400 C 315.766 264.400,315.600 263.421,315.600 262.224 C 315.600 261.027,315.420 259.936,315.200 259.800 C 314.980 259.664,314.800 258.944,314.800 258.200 C 314.800 257.456,314.620 256.736,314.400 256.600 C 314.180 256.464,314.000 255.643,314.000 254.776 C 314.000 253.909,313.820 253.200,313.600 253.200 C 313.380 253.200,313.200 252.480,313.200 251.600 C 313.200 250.720,313.020 250.000,312.800 250.000 C 312.580 250.000,312.400 249.460,312.400 248.800 C 312.400 248.140,312.220 247.600,312.000 247.600 C 311.780 247.600,311.600 247.060,311.600 246.400 C 311.600 245.740,311.420 245.200,311.200 245.200 C 310.980 245.200,310.800 244.660,310.800 244.000 C 310.800 243.340,310.620 242.800,310.400 242.800 C 310.180 242.800,310.000 242.451,310.000 242.024 C 310.000 241.597,309.820 241.136,309.600 241.000 C 309.380 240.864,309.200 240.313,309.200 239.776 C 309.200 239.239,309.020 238.800,308.800 238.800 C 308.580 238.800,308.400 238.558,308.400 238.261 C 308.400 237.409,307.185 235.200,306.717 235.200 C 306.483 235.200,305.875 234.750,305.365 234.200 L 304.438 233.200 199.842 233.200 C 98.394 233.200,95.230 233.222,94.723 233.943 " stroke="none" fill="#a3c3fc" fill-rule="evenodd"></path><path id="path1" d="M200.099 83.050 L 200.200 166.200 204.800 166.480 C 211.968 166.917,217.682 167.622,223.600 168.802 C 224.810 169.043,226.476 169.341,227.303 169.463 C 228.129 169.585,228.905 169.845,229.026 170.042 C 229.148 170.239,229.629 170.400,230.095 170.400 C 230.864 170.400,232.445 170.821,234.600 171.600 C 235.040 171.759,236.120 172.106,237.000 172.371 C 237.880 172.636,238.960 173.003,239.400 173.187 C 239.840 173.371,241.280 173.931,242.600 174.430 C 248.271 176.576,257.432 181.098,260.462 183.247 C 261.046 183.661,261.618 184.000,261.733 184.000 C 262.479 184.000,272.038 190.996,276.384 194.723 C 287.951 204.643,298.452 218.254,304.870 231.647 C 306.664 235.389,307.089 235.553,309.362 233.375 C 310.380 232.399,311.405 231.600,311.638 231.600 C 311.872 231.600,312.754 230.880,313.600 230.000 C 314.446 229.120,315.346 228.400,315.600 228.400 C 315.854 228.400,316.754 227.680,317.600 226.800 C 318.446 225.920,319.292 225.200,319.481 225.200 C 319.670 225.200,320.769 224.300,321.922 223.200 C 323.075 222.100,324.188 221.200,324.394 221.200 C 324.600 221.200,325.455 220.525,326.293 219.700 C 327.131 218.875,328.623 217.577,329.609 216.815 C 330.594 216.053,331.460 215.288,331.533 215.115 C 331.607 214.942,331.890 214.800,332.163 214.800 C 332.435 214.800,333.622 213.900,334.800 212.800 C 335.978 211.700,337.104 210.800,337.302 210.800 C 337.500 210.800,338.354 210.080,339.200 209.200 C 340.046 208.320,340.892 207.600,341.081 207.600 C 341.270 207.600,342.369 206.700,343.522 205.600 C 344.675 204.500,345.788 203.600,345.994 203.600 C 346.200 203.600,347.082 202.880,347.953 202.000 C 348.824 201.120,349.739 200.400,349.985 200.400 C 350.231 200.400,351.117 199.680,351.954 198.800 C 352.791 197.920,353.666 197.200,353.898 197.200 C 354.129 197.200,355.238 196.300,356.361 195.200 C 357.485 194.100,358.576 193.200,358.787 193.200 C 358.997 193.200,359.882 192.480,360.753 191.600 C 361.624 190.720,362.486 189.998,362.669 189.996 C 362.851 189.994,363.943 189.094,365.095 187.996 C 366.248 186.898,367.387 186.000,367.627 186.000 C 367.866 186.000,368.754 185.280,369.600 184.400 C 370.446 183.520,371.346 182.800,371.600 182.800 C 371.854 182.800,372.754 182.080,373.600 181.200 C 374.446 180.320,375.292 179.600,375.481 179.600 C 375.670 179.600,376.769 178.700,377.922 177.600 C 379.075 176.500,380.188 175.600,380.394 175.600 C 380.600 175.600,381.455 174.925,382.293 174.100 C 383.131 173.275,384.623 171.977,385.609 171.215 C 386.594 170.453,387.460 169.688,387.533 169.515 C 387.607 169.342,387.890 169.200,388.163 169.200 C 388.435 169.200,389.622 168.300,390.800 167.200 C 391.978 166.100,393.104 165.200,393.302 165.200 C 393.500 165.200,394.354 164.480,395.200 163.600 C 396.046 162.720,396.886 161.999,397.069 161.998 C 397.940 161.993,400.000 159.492,400.000 158.439 C 400.000 157.316,398.040 154.800,397.165 154.800 C 396.930 154.800,396.046 154.080,395.200 153.200 C 394.354 152.320,393.424 151.591,393.131 151.580 C 392.839 151.570,391.880 150.851,391.000 149.983 C 390.120 149.116,389.265 148.404,389.101 148.403 C 388.936 148.401,388.037 147.680,387.103 146.800 C 386.169 145.920,385.251 145.200,385.063 145.200 C 384.875 145.200,384.217 144.660,383.600 144.000 C 382.983 143.340,382.267 142.800,382.008 142.800 C 381.749 142.800,380.824 142.080,379.953 141.200 C 379.082 140.320,378.182 139.600,377.953 139.600 C 377.724 139.600,376.846 138.880,376.000 138.000 C 375.154 137.120,374.224 136.391,373.931 136.380 C 373.639 136.370,372.680 135.651,371.800 134.783 C 370.920 133.916,370.065 133.204,369.901 133.203 C 369.736 133.201,368.837 132.480,367.903 131.600 C 366.969 130.720,366.051 130.000,365.863 130.000 C 365.675 130.000,365.017 129.460,364.400 128.800 C 363.783 128.140,363.067 127.600,362.808 127.600 C 362.549 127.600,361.624 126.880,360.753 126.000 C 359.882 125.120,358.982 124.400,358.753 124.400 C 358.524 124.400,357.646 123.680,356.800 122.800 C 355.954 121.920,355.024 121.191,354.731 121.180 C 354.439 121.170,353.480 120.451,352.600 119.583 C 351.720 118.716,350.865 118.004,350.701 118.003 C 350.536 118.001,349.637 117.280,348.703 116.400 C 347.769 115.520,346.851 114.800,346.663 114.800 C 346.475 114.800,345.817 114.260,345.200 113.600 C 344.583 112.940,343.867 112.400,343.608 112.400 C 343.349 112.400,342.424 111.680,341.553 110.800 C 340.682 109.920,339.782 109.200,339.553 109.200 C 339.324 109.200,338.446 108.480,337.600 107.600 C 336.754 106.720,335.824 105.991,335.531 105.980 C 335.239 105.970,334.280 105.251,333.400 104.383 C 332.520 103.516,331.665 102.804,331.501 102.803 C 331.336 102.801,330.437 102.080,329.503 101.200 C 328.569 100.320,327.651 99.600,327.463 99.600 C 327.275 99.600,326.617 99.060,326.000 98.400 C 325.383 97.740,324.667 97.200,324.408 97.200 C 324.149 97.200,323.224 96.480,322.353 95.600 C 321.482 94.720,320.582 94.000,320.353 94.000 C 320.124 94.000,319.246 93.280,318.400 92.400 C 317.554 91.520,316.624 90.791,316.331 90.780 C 316.039 90.770,315.080 90.051,314.200 89.183 C 313.320 88.316,312.465 87.604,312.301 87.603 C 312.136 87.601,311.237 86.880,310.303 86.000 C 309.369 85.120,308.451 84.400,308.263 84.400 C 308.075 84.400,307.417 83.860,306.800 83.200 C 306.183 82.540,305.467 82.000,305.208 82.000 C 304.949 82.000,304.024 81.280,303.153 80.400 C 302.282 79.520,301.382 78.800,301.153 78.800 C 300.924 78.800,300.046 78.080,299.200 77.200 C 298.354 76.320,297.424 75.591,297.131 75.580 C 296.839 75.570,295.880 74.851,295.000 73.983 C 294.120 73.116,293.265 72.404,293.101 72.403 C 292.936 72.401,292.037 71.680,291.103 70.800 C 290.169 69.920,289.251 69.200,289.063 69.200 C 288.875 69.200,288.217 68.660,287.600 68.000 C 286.983 67.340,286.267 66.800,286.008 66.800 C 285.749 66.800,284.824 66.080,283.953 65.200 C 283.082 64.320,282.182 63.600,281.953 63.600 C 281.724 63.600,280.846 62.880,280.000 62.000 C 279.154 61.120,278.224 60.391,277.931 60.380 C 277.639 60.370,276.680 59.651,275.800 58.783 C 274.920 57.916,274.065 57.204,273.901 57.203 C 273.736 57.201,272.837 56.480,271.903 55.600 C 270.969 54.720,270.051 54.000,269.863 54.000 C 269.675 54.000,269.017 53.460,268.400 52.800 C 267.783 52.140,267.067 51.600,266.808 51.600 C 266.549 51.600,265.624 50.880,264.753 50.000 C 263.882 49.120,262.982 48.400,262.753 48.400 C 262.524 48.400,261.646 47.680,260.800 46.800 C 259.954 45.920,259.024 45.191,258.731 45.180 C 258.439 45.170,257.480 44.451,256.600 43.583 C 255.720 42.716,254.865 42.004,254.701 42.003 C 254.536 42.001,253.637 41.280,252.703 40.400 C 251.769 39.520,250.851 38.800,250.663 38.800 C 250.475 38.800,249.817 38.260,249.200 37.600 C 248.583 36.940,247.867 36.400,247.608 36.400 C 247.349 36.400,246.424 35.680,245.553 34.800 C 244.682 33.920,243.782 33.200,243.553 33.200 C 243.324 33.200,242.446 32.480,241.600 31.600 C 240.754 30.720,239.824 29.991,239.531 29.980 C 239.239 29.970,238.280 29.251,237.400 28.383 C 236.520 27.516,235.665 26.804,235.501 26.803 C 235.336 26.801,234.437 26.080,233.503 25.200 C 232.569 24.320,231.651 23.600,231.463 23.600 C 231.275 23.600,230.617 23.060,230.000 22.400 C 229.383 21.740,228.667 21.200,228.408 21.200 C 228.149 21.200,227.224 20.480,226.353 19.600 C 225.482 18.720,224.582 18.000,224.353 18.000 C 224.124 18.000,223.246 17.280,222.400 16.400 C 221.554 15.520,220.624 14.791,220.331 14.780 C 220.039 14.770,219.080 14.051,218.200 13.183 C 217.320 12.316,216.465 11.604,216.301 11.603 C 216.136 11.601,215.237 10.880,214.303 10.000 C 213.369 9.120,212.451 8.400,212.263 8.400 C 212.075 8.400,211.417 7.860,210.800 7.200 C 210.183 6.540,209.467 6.000,209.208 6.000 C 208.949 6.000,208.024 5.280,207.153 4.400 C 206.282 3.520,205.378 2.800,205.145 2.800 C 204.912 2.800,204.215 2.259,203.598 1.597 C 202.980 0.936,201.917 0.283,201.236 0.147 L 199.998 -0.100 200.099 83.050 " stroke="none" fill="#346cc4" fill-rule="evenodd"></path><path id="path2" d="M196.178 1.800 C 195.130 2.790,194.104 3.600,193.897 3.600 C 193.690 3.600,193.044 4.102,192.460 4.715 C 191.877 5.329,190.770 6.265,190.000 6.796 C 189.230 7.328,188.330 8.049,188.000 8.400 C 187.670 8.751,186.770 9.471,186.000 10.000 C 185.230 10.529,184.309 11.286,183.953 11.681 C 183.597 12.076,183.147 12.405,182.953 12.411 C 182.759 12.418,181.797 13.138,180.814 14.011 C 179.832 14.885,178.888 15.600,178.715 15.600 C 178.542 15.600,177.659 16.320,176.752 17.200 C 175.845 18.080,174.927 18.800,174.712 18.800 C 174.497 18.800,173.844 19.302,173.260 19.915 C 172.677 20.529,171.570 21.465,170.800 21.996 C 170.030 22.528,169.130 23.249,168.800 23.600 C 168.470 23.951,167.570 24.671,166.800 25.200 C 166.030 25.729,165.109 26.486,164.753 26.881 C 164.397 27.276,163.947 27.605,163.753 27.611 C 163.559 27.618,162.597 28.338,161.614 29.211 C 160.632 30.085,159.688 30.800,159.515 30.800 C 159.342 30.800,158.459 31.520,157.552 32.400 C 156.645 33.280,155.727 34.000,155.512 34.000 C 155.297 34.000,154.644 34.502,154.060 35.115 C 153.477 35.729,152.370 36.665,151.600 37.196 C 150.830 37.728,149.930 38.449,149.600 38.800 C 149.270 39.151,148.370 39.871,147.600 40.400 C 146.830 40.929,145.909 41.686,145.553 42.081 C 145.197 42.476,144.747 42.805,144.553 42.811 C 144.359 42.818,143.397 43.538,142.414 44.411 C 141.432 45.285,140.488 46.000,140.315 46.000 C 140.142 46.000,139.259 46.720,138.352 47.600 C 137.445 48.480,136.527 49.200,136.312 49.200 C 136.097 49.200,135.444 49.702,134.860 50.315 C 134.277 50.929,133.170 51.865,132.400 52.396 C 131.630 52.928,130.730 53.649,130.400 54.000 C 130.070 54.351,129.170 55.071,128.400 55.600 C 127.630 56.129,126.709 56.886,126.353 57.281 C 125.997 57.676,125.547 58.005,125.353 58.011 C 125.159 58.018,124.197 58.738,123.214 59.611 C 122.232 60.485,121.288 61.200,121.115 61.200 C 120.942 61.200,120.059 61.920,119.152 62.800 C 118.245 63.680,117.327 64.400,117.112 64.400 C 116.897 64.400,116.244 64.902,115.660 65.515 C 115.077 66.129,113.970 67.065,113.200 67.596 C 112.430 68.128,111.530 68.849,111.200 69.200 C 110.870 69.551,109.970 70.271,109.200 70.800 C 108.430 71.329,107.509 72.086,107.153 72.481 C 106.797 72.876,106.347 73.205,106.153 73.211 C 105.959 73.218,104.997 73.938,104.014 74.811 C 103.032 75.685,102.088 76.400,101.915 76.400 C 101.742 76.400,100.859 77.120,99.952 78.000 C 99.045 78.880,98.127 79.600,97.912 79.600 C 97.697 79.600,97.044 80.102,96.460 80.715 C 95.877 81.329,94.770 82.265,94.000 82.796 C 93.230 83.328,92.330 84.049,92.000 84.400 C 91.670 84.751,90.770 85.471,90.000 86.000 C 89.230 86.529,88.309 87.286,87.953 87.681 C 87.597 88.076,87.147 88.405,86.953 88.411 C 86.759 88.418,85.797 89.138,84.814 90.011 C 83.832 90.885,82.888 91.600,82.715 91.600 C 82.542 91.600,81.659 92.320,80.752 93.200 C 79.845 94.080,78.927 94.800,78.712 94.800 C 78.497 94.800,77.844 95.302,77.260 95.915 C 76.677 96.529,75.570 97.465,74.800 97.996 C 74.030 98.528,73.130 99.249,72.800 99.600 C 72.470 99.951,71.570 100.671,70.800 101.200 C 70.030 101.729,69.109 102.486,68.753 102.881 C 68.397 103.276,67.947 103.605,67.753 103.611 C 67.559 103.618,66.597 104.338,65.614 105.211 C 64.632 106.085,63.688 106.800,63.515 106.800 C 63.342 106.800,62.459 107.520,61.552 108.400 C 60.645 109.280,59.727 110.000,59.512 110.000 C 59.297 110.000,58.644 110.502,58.060 111.115 C 57.477 111.729,56.370 112.665,55.600 113.196 C 54.830 113.728,53.930 114.449,53.600 114.800 C 53.270 115.151,52.370 115.871,51.600 116.400 C 50.830 116.929,49.909 117.686,49.553 118.081 C 49.197 118.476,48.747 118.805,48.553 118.811 C 48.359 118.818,47.397 119.538,46.414 120.411 C 45.432 121.285,44.488 122.000,44.315 122.000 C 44.142 122.000,43.259 122.720,42.352 123.600 C 41.445 124.480,40.527 125.200,40.312 125.200 C 40.097 125.200,39.444 125.702,38.860 126.315 C 38.277 126.929,37.170 127.865,36.400 128.396 C 35.630 128.928,34.730 129.649,34.400 130.000 C 34.070 130.351,33.170 131.071,32.400 131.600 C 31.630 132.129,30.709 132.886,30.353 133.281 C 29.997 133.676,29.547 134.005,29.353 134.011 C 29.159 134.018,28.197 134.738,27.214 135.611 C 26.232 136.485,25.288 137.200,25.115 137.200 C 24.942 137.200,24.059 137.920,23.152 138.800 C 22.245 139.680,21.327 140.400,21.112 140.400 C 20.897 140.400,20.244 140.902,19.660 141.515 C 19.077 142.129,17.970 143.065,17.200 143.596 C 16.430 144.128,15.530 144.849,15.200 145.200 C 14.870 145.551,13.970 146.271,13.200 146.800 C 12.430 147.329,11.509 148.086,11.153 148.481 C 10.797 148.876,10.347 149.205,10.153 149.211 C 9.959 149.218,8.997 149.938,8.014 150.811 C 7.032 151.685,6.088 152.400,5.915 152.400 C 5.742 152.400,4.859 153.120,3.952 154.000 C 3.045 154.880,2.121 155.600,1.899 155.600 C 1.210 155.600,-0.000 157.275,-0.000 158.228 C -0.000 159.519,0.403 160.400,0.994 160.400 C 1.274 160.400,2.447 161.300,3.600 162.400 C 4.753 163.500,5.836 164.400,6.006 164.400 C 6.176 164.400,6.899 164.945,7.613 165.612 C 8.327 166.279,9.471 167.222,10.155 167.709 C 10.840 168.196,12.119 169.270,12.998 170.097 C 13.877 170.924,14.746 171.600,14.929 171.600 C 15.113 171.600,15.954 172.320,16.800 173.200 C 17.646 174.080,18.549 174.800,18.808 174.800 C 19.067 174.800,19.756 175.302,20.340 175.915 C 20.923 176.529,22.030 177.462,22.800 177.988 C 23.570 178.515,24.889 179.633,25.731 180.473 C 26.573 181.313,27.401 182.000,27.571 182.000 C 27.742 182.000,28.403 182.497,29.041 183.104 C 29.678 183.712,30.830 184.655,31.600 185.201 C 32.370 185.747,33.719 186.870,34.598 187.697 C 35.477 188.524,36.356 189.200,36.551 189.200 C 36.746 189.200,37.197 189.527,37.553 189.928 C 37.909 190.328,38.515 190.772,38.900 190.915 C 39.285 191.058,39.600 191.451,39.600 191.787 C 39.600 192.124,39.843 192.400,40.141 192.400 C 40.438 192.400,41.203 192.897,41.841 193.504 C 42.478 194.112,43.630 195.053,44.400 195.596 C 45.170 196.138,46.201 196.979,46.691 197.464 C 47.181 197.949,48.257 198.853,49.082 199.473 C 49.907 200.093,51.108 201.095,51.750 201.700 C 52.393 202.305,53.086 202.800,53.291 202.800 C 53.495 202.800,54.354 203.520,55.200 204.400 C 56.046 205.280,56.910 206.000,57.120 206.000 C 57.331 206.000,58.447 206.900,59.600 208.000 C 60.753 209.100,61.836 210.000,62.006 210.000 C 62.176 210.000,62.899 210.545,63.613 211.212 C 64.327 211.879,65.471 212.822,66.155 213.309 C 66.840 213.796,68.119 214.870,68.998 215.697 C 69.877 216.524,70.746 217.200,70.929 217.200 C 71.113 217.200,71.954 217.920,72.800 218.800 C 73.646 219.680,74.505 220.400,74.709 220.400 C 74.914 220.400,75.603 220.897,76.241 221.504 C 76.878 222.112,78.030 223.045,78.800 223.577 C 79.570 224.110,80.889 225.233,81.731 226.073 C 82.573 226.913,83.401 227.600,83.571 227.600 C 83.742 227.600,84.403 228.097,85.041 228.704 C 85.678 229.312,86.830 230.255,87.600 230.801 C 88.370 231.347,89.719 232.470,90.598 233.297 C 92.817 235.385,92.753 235.432,95.961 229.337 C 107.938 206.576,126.831 188.328,149.600 177.529 C 153.599 175.632,154.269 175.332,156.600 174.400 C 157.150 174.180,158.005 173.828,158.500 173.617 C 159.704 173.104,165.448 171.198,167.200 170.729 C 167.970 170.523,169.230 170.171,170.000 169.947 C 171.340 169.557,172.488 169.291,176.700 168.396 C 182.421 167.180,190.867 166.236,196.200 166.215 L 200.200 166.200 200.098 83.100 L 199.996 0.000 199.040 0.000 C 198.456 0.000,197.343 0.700,196.178 1.800 " stroke="none" fill="#4484f4" fill-rule="evenodd"></path><path id="path3" d="M192.737 166.583 C 192.592 166.735,190.612 167.026,188.337 167.230 C 186.062 167.434,183.030 167.785,181.600 168.012 C 180.170 168.238,178.280 168.518,177.400 168.634 C 176.520 168.750,175.440 169.003,175.000 169.195 C 174.560 169.388,173.570 169.656,172.800 169.792 C 172.030 169.927,170.813 170.139,170.096 170.263 C 169.379 170.387,168.694 170.649,168.573 170.844 C 168.452 171.040,167.834 171.200,167.200 171.200 C 166.566 171.200,165.936 171.380,165.800 171.600 C 165.664 171.820,165.124 172.000,164.600 172.000 C 164.076 172.000,163.536 172.180,163.400 172.400 C 163.264 172.620,162.724 172.800,162.200 172.800 C 161.676 172.800,161.136 172.980,161.000 173.200 C 160.864 173.420,160.485 173.600,160.157 173.600 C 159.829 173.600,158.816 173.960,157.906 174.400 C 156.995 174.840,156.092 175.200,155.900 175.200 C 155.386 175.200,145.219 179.956,144.800 180.392 C 144.603 180.597,141.851 182.102,140.103 182.960 C 139.610 183.202,139.205 183.535,139.203 183.700 C 139.201 183.865,139.012 184.000,138.782 184.000 C 138.385 184.000,132.421 187.858,132.000 188.387 C 131.890 188.525,131.170 189.071,130.400 189.600 C 129.630 190.129,128.910 190.660,128.800 190.781 C 128.690 190.901,127.790 191.625,126.800 192.388 C 123.937 194.597,122.109 196.272,117.191 201.190 C 112.180 206.201,111.743 206.690,108.063 211.418 C 106.700 213.168,105.443 214.780,105.270 215.000 C 104.308 216.222,99.998 222.863,99.170 224.400 C 98.636 225.390,98.102 226.290,97.982 226.400 C 97.863 226.510,96.914 228.329,95.873 230.443 C 94.750 232.724,93.619 234.473,93.090 234.745 C 92.225 235.191,92.228 235.197,93.200 234.945 C 93.750 234.802,94.435 234.351,94.723 233.943 C 95.337 233.070,303.202 232.745,304.826 233.614 C 305.252 233.842,305.600 233.967,305.600 233.893 C 305.600 233.779,301.713 226.441,300.248 223.790 C 284.511 195.304,249.765 172.200,216.400 168.037 C 206.756 166.834,193.287 166.006,192.737 166.583 " stroke="none" fill="#73a3fb" fill-rule="evenodd"></path><path id="path4" d="M192.366 166.163 C 192.237 166.294,190.167 166.584,187.766 166.807 C 181.419 167.397,174.868 168.558,169.800 169.992 C 168.920 170.241,167.660 170.593,167.000 170.774 C 165.183 171.273,159.533 173.176,158.400 173.670 C 157.453 174.084,156.413 174.508,154.600 175.222 C 138.383 181.602,121.078 194.713,108.358 210.255 C 103.492 216.201,92.372 234.400,93.605 234.400 C 93.781 234.400,94.789 232.645,95.845 230.500 C 96.901 228.355,97.863 226.510,97.982 226.400 C 98.102 226.290,98.636 225.390,99.170 224.400 C 99.998 222.863,104.308 216.222,105.270 215.000 C 105.443 214.780,106.700 213.168,108.063 211.418 C 111.743 206.690,112.180 206.201,117.191 201.190 C 122.109 196.272,123.937 194.597,126.800 192.388 C 127.790 191.625,128.690 190.901,128.800 190.781 C 128.910 190.660,129.630 190.129,130.400 189.600 C 131.170 189.071,131.890 188.525,132.000 188.387 C 132.421 187.858,138.385 184.000,138.782 184.000 C 139.012 184.000,139.201 183.865,139.203 183.700 C 139.205 183.535,139.610 183.202,140.103 182.960 C 141.851 182.102,144.603 180.597,144.800 180.392 C 145.219 179.956,155.386 175.200,155.900 175.200 C 156.092 175.200,156.995 174.840,157.906 174.400 C 158.816 173.960,159.829 173.600,160.157 173.600 C 160.485 173.600,160.864 173.420,161.000 173.200 C 161.136 172.980,161.676 172.800,162.200 172.800 C 162.724 172.800,163.264 172.620,163.400 172.400 C 163.536 172.180,164.076 172.000,164.600 172.000 C 165.124 172.000,165.664 171.820,165.800 171.600 C 165.936 171.380,166.566 171.200,167.200 171.200 C 167.834 171.200,168.452 171.040,168.573 170.844 C 168.694 170.649,169.379 170.387,170.096 170.263 C 170.813 170.139,172.030 169.927,172.800 169.792 C 173.570 169.656,174.560 169.388,175.000 169.195 C 175.440 169.003,176.520 168.750,177.400 168.634 C 178.280 168.518,180.170 168.238,181.600 168.012 C 190.525 166.599,200.954 166.277,208.800 167.171 C 215.536 167.938,217.430 168.044,216.800 167.618 C 216.470 167.395,215.030 167.208,213.600 167.204 C 212.170 167.199,210.370 167.031,209.600 166.829 C 207.964 166.401,192.711 165.811,192.366 166.163 M217.633 168.144 C 217.725 168.223,218.790 168.399,220.000 168.534 C 221.470 168.698,222.001 168.652,221.600 168.396 C 221.056 168.048,217.242 167.806,217.633 168.144 M223.000 169.041 C 227.124 170.072,228.911 170.423,229.096 170.238 C 229.353 169.981,228.728 169.755,226.800 169.407 C 224.940 169.072,221.984 168.787,223.000 169.041 M231.977 171.221 C 233.394 171.638,234.634 171.899,234.734 171.800 C 234.833 171.700,234.664 171.550,234.357 171.466 C 234.051 171.382,233.157 171.108,232.372 170.856 C 231.586 170.605,230.596 170.414,230.172 170.431 C 229.747 170.447,230.559 170.803,231.977 171.221 M237.168 172.828 C 238.360 173.251,239.421 173.512,239.525 173.408 C 239.629 173.304,239.374 173.110,238.957 172.977 C 238.541 172.844,237.787 172.570,237.281 172.367 C 236.776 172.165,236.056 172.013,235.681 172.029 C 235.307 172.045,235.976 172.405,237.168 172.828 M240.600 174.003 C 241.040 174.195,243.441 175.205,245.935 176.248 C 266.170 184.708,284.693 200.218,297.352 219.300 C 299.573 222.649,300.562 223.816,299.555 221.900 C 295.983 215.108,284.638 201.802,276.384 194.723 C 272.038 190.996,262.479 184.000,261.733 184.000 C 261.618 184.000,261.046 183.661,260.462 183.247 C 256.817 180.661,241.815 173.528,240.231 173.627 C 239.994 173.642,240.160 173.811,240.600 174.003 M300.000 223.328 C 300.000 223.486,300.431 224.299,300.958 225.134 C 301.486 225.969,302.667 228.144,303.584 229.968 C 304.500 231.791,305.334 233.199,305.437 233.096 C 305.607 232.927,304.311 230.316,301.717 225.600 C 300.696 223.744,300.000 222.824,300.000 223.328 " stroke="none" fill="#548ef1" fill-rule="evenodd"></path></g></svg>